<mxfile host="65bd71144e">
    <diagram id="HIP3nbAZw_EuaXWnEj3U" name="Page-1">
        <mxGraphModel dx="606" dy="597" grid="1" gridSize="10" guides="1" tooltips="1" connect="1" arrows="1" fold="1" page="1" pageScale="1" pageWidth="850" pageHeight="1100" background="#ffffff" math="0" shadow="0">
            <root>
                <mxCell id="0"/>
                <mxCell id="1" parent="0"/>
                <mxCell id="7" value="http://ics2o.mths.ca" style="swimlane;whiteSpace=wrap;html=1;shadow=1;" parent="1" vertex="1">
                    <mxGeometry x="40" y="40" width="826" height="710" as="geometry"/>
                </mxCell>
                <mxCell id="14" value="" style="rounded=1;whiteSpace=wrap;html=1;strokeColor=#000000;fillColor=#ffffff;align=left;" parent="7" vertex="1">
                    <mxGeometry x="90" y="250" width="150" height="30" as="geometry"/>
                </mxCell>
                <mxCell id="15" value="" style="rounded=1;whiteSpace=wrap;html=1;fillColor=#ffffff;strokeColor=#000000;align=left;" parent="7" vertex="1">
                    <mxGeometry x="90" y="300" width="150" height="30" as="geometry"/>
                </mxCell>
                <mxCell id="16" value="Formula is&lt;br style=&quot;font-size: 23px;&quot;&gt;V = [(a * b) * h] / 3" style="text;html=1;align=left;verticalAlign=middle;whiteSpace=wrap;rounded=0;strokeWidth=1;fontColor=#000000;fontSize=23;" parent="7" vertex="1">
                    <mxGeometry x="30" y="100" width="310" height="50" as="geometry"/>
                </mxCell>
                <mxCell id="17" value="Area of a Square base pyramid, with JS" style="text;html=1;align=left;verticalAlign=middle;whiteSpace=wrap;rounded=0;strokeWidth=1;fontColor=#000000;fontSize=23;fontStyle=1" parent="7" vertex="1">
                    <mxGeometry x="30" y="40" width="710" height="30" as="geometry"/>
                </mxCell>
                <mxCell id="18" value="&lt;font style=&quot;font-size: 23px;&quot; color=&quot;#000000&quot;&gt;Calculate&lt;/font&gt;" style="rounded=1;whiteSpace=wrap;html=1;fillColor=#ffffff;strokeWidth=1;strokeColor=#000000;" parent="7" vertex="1">
                    <mxGeometry x="30" y="390" width="210" height="30" as="geometry"/>
                </mxCell>
                <mxCell id="19" value="A length" style="text;html=1;strokeColor=none;fillColor=none;align=center;verticalAlign=middle;whiteSpace=wrap;rounded=0;strokeWidth=1;fontSize=18;fontColor=#000000;" parent="7" vertex="1">
                    <mxGeometry x="10" y="200" width="90" height="30" as="geometry"/>
                </mxCell>
                <mxCell id="20" value="B length" style="text;html=1;strokeColor=none;fillColor=none;align=center;verticalAlign=middle;whiteSpace=wrap;rounded=0;strokeWidth=1;fontSize=18;fontColor=#000000;" parent="7" vertex="1">
                    <mxGeometry x="10" y="250" width="90" height="30" as="geometry"/>
                </mxCell>
                <mxCell id="21" value="Height" style="text;html=1;strokeColor=none;fillColor=none;align=center;verticalAlign=middle;whiteSpace=wrap;rounded=0;strokeWidth=1;fontSize=18;fontColor=#000000;" parent="7" vertex="1">
                    <mxGeometry x="10" y="300" width="90" height="30" as="geometry"/>
                </mxCell>
                <mxCell id="22" value="mm" style="text;html=1;strokeColor=none;fillColor=none;align=center;verticalAlign=middle;whiteSpace=wrap;rounded=0;strokeWidth=1;fontSize=18;fontColor=#000000;" parent="7" vertex="1">
                    <mxGeometry x="230" y="200" width="60" height="30" as="geometry"/>
                </mxCell>
                <mxCell id="23" value="mm" style="text;html=1;strokeColor=none;fillColor=none;align=center;verticalAlign=middle;whiteSpace=wrap;rounded=0;strokeWidth=1;fontSize=18;fontColor=#000000;" parent="7" vertex="1">
                    <mxGeometry x="230" y="250" width="60" height="30" as="geometry"/>
                </mxCell>
                <mxCell id="24" value="mm" style="text;html=1;strokeColor=none;fillColor=none;align=center;verticalAlign=middle;whiteSpace=wrap;rounded=0;strokeWidth=1;fontSize=18;fontColor=#000000;" parent="7" vertex="1">
                    <mxGeometry x="230" y="300" width="60" height="30" as="geometry"/>
                </mxCell>
                <mxCell id="25" value="Area is:" style="text;html=1;strokeColor=none;fillColor=none;align=center;verticalAlign=middle;whiteSpace=wrap;rounded=0;strokeWidth=1;fontSize=18;fontColor=#000000;" parent="7" vertex="1">
                    <mxGeometry y="440" width="200" height="30" as="geometry"/>
                </mxCell>
                <mxCell id="30" value="Please enter the integers for the dimensions:" style="text;html=1;strokeColor=none;fillColor=none;align=center;verticalAlign=middle;whiteSpace=wrap;rounded=0;strokeWidth=1;fontSize=18;fontColor=#000000;" parent="7" vertex="1">
                    <mxGeometry x="10" y="160" width="380" height="30" as="geometry"/>
                </mxCell>
                <mxCell id="31" value="" style="shape=image;verticalLabelPosition=bottom;labelBackgroundColor=default;verticalAlign=top;aspect=fixed;imageAspect=0;image=data:image/png,iVBORw0KGgoAAAANSUhEUgAAAuoAAAKACAYAAADKCF2aAAAMamlDQ1BJQ0MgUHJvZmlsZQAASImVVwdYU8kWnltSSWiBUKSE3gSRXqSE0CIISBVshCSQUGJMCCp2VFRw7SKKFV0VUXQtgCwqYi+LYu+LBZWVdbGgKCpvQgK67ivfO983d/575sx/yp259w4AWj08qTQX1QYgT5Ivi48IYY1JTWORngMU0AEVkIEGjy+XsuPiogGUgf7v8v4mQJT9NWcl1z/H/6voCoRyPgDIOIgzBHJ+HsRNAOAb+FJZPgBEpd5qSr5UiedArCeDAUK8WomzVHiXEmeocGO/TWI8B+IrAJBpPJ4sCwDN+1DPKuBnQR7NzxC7SgRiCQBaQyEO5It4AoiVsQ/Ny5ukxOUQ20N7KcQwHuCT8R1n1t/4Mwb5ebysQazKq1/IoWK5NJc37f8szf+WvFzFgA9b2GgiWWS8Mn9Yw9s5k6KUmAZxpyQjJlZZa4h7xAJV3QFAqSJFZJLKHjXhyzmwfoAJsauAFxoFsQnE4ZLcmGi1PiNTHM6FGK4WdKo4n5sIsSHEi4TysAS1zRbZpHi1L7Q2U8Zhq/XneLJ+v0pfDxU5SWw1/xuRkKvmxzQLRYkpEFMhti4QJ8dArAmxizwnIUptM6JQxIkZsJEp4pXxW0McL5REhKj4sYJMWXi82r4kTz6QL7ZFJObGqPGBfFFipKo+2Ck+rz9+mAt2RShhJw3wCOVjogdyEQhDw1S5Yy+EkqQENU+PND8kXjUXp0pz49T2uKUwN0Kpt4TYQ16QoJ6LJ+fDxanixzOl+XGJqjjxwmzeyDhVPPhyEA04IBSwgAK2DDAJZANxS2ddJ7xTjYQDHpCBLCAEzmrNwIyU/hEJvCaAQvAnREIgH5wX0j8qBAVQ/2VQq7o6g8z+0YL+GTngGcR5IArkwntF/yzJoLdk8BRqxP/wzoOND+PNhU05/u/1A9pvGjbURKs1igGPLK0BS2IYMZQYSQwnOuDGeCDuj0fDazBsbrgP7juQxzd7wjNCK+Ex4QahjXBnorhI9kOUo0Ab5A9X1yLj+1rgtpDTEw/BAyA7ZMaZuDFwxj2gHzYeBD17Qi1HHbeyKqwfuP+WwXdPQ21HcaWgFANKMMX+x5majpqegyzKWn9fH1WsGYP15gyO/Oif8131BbCP+tESW4QdxM5iJ7DzWCNWB1jYcaweu4QdVeLB1fW0f3UNeIvvjycH8oj/4W/gySorKXetdu1w/awayxdOzVduPM4k6TSZOEuUz2LDr4OQxZXwXYay3Fzd3AFQfmtUr6+3zP5vCMK88E1X9A6AAEFfX1/jN1003OuHFsDt/+ybzu4YfE0YAHCulK+QFah0uPJCgG8JLbjTjIAZsAL2MB834AX8QTAIAyNBLEgEqWACjF4E17kMTAEzwFxQDErBcrAGrAebwTawC+wFB0AdaAQnwBlwEVwBN8A9uHrawUvQBd6DXgRBSAgdYSBGiDligzghbogPEoiEIdFIPJKKpCNZiARRIDOQeUgpshJZj2xFqpBfkCPICeQ80orcQR4hHcgb5BOKoTRUDzVFbdFhqA/KRqPQRHQ8moVORgvR+ehStBytRPegtegJ9CJ6A21DX6LdGMA0MCZmgTljPhgHi8XSsExMhs3CSrAyrBKrwRrgc76GtWGd2EeciDNwFu4MV3AknoTz8cn4LHwJvh7fhdfip/Br+CO8C/9KoBNMCE4EPwKXMIaQRZhCKCaUEXYQDhNOw73UTnhPJBKZRDuiN9yLqcRs4nTiEuJG4j5iE7GV+ITYTSKRjEhOpABSLIlHyicVk9aR9pCOk66S2kk9ZA2yOdmNHE5OI0vIReQy8m7yMfJV8nNyL0WbYkPxo8RSBJRplGWU7ZQGymVKO6WXqkO1owZQE6nZ1LnUcmoN9TT1PvWthoaGpYavxmgNscYcjXKN/RrnNB5pfKTp0hxpHNo4moK2lLaT1kS7Q3tLp9Nt6cH0NHo+fSm9in6S/pDeo8nQdNHkago0Z2tWaNZqXtV8pUXRstFia03QKtQq0zqodVmrU5uibavN0eZpz9Ku0D6ifUu7W4ehM1wnVidPZ4nObp3zOi90Sbq2umG6At35utt0T+o+YWAMKwaHwWfMY2xnnGa06xH17PS4etl6pXp79Vr0uvR19T30k/Wn6lfoH9VvY2JMWyaXmctcxjzAvMn8ZGBqwDYQGiw2qDG4avDBcIhhsKHQsMRwn+ENw09GLKMwoxyjFUZ1Rg+McWNH49HGU4w3GZ827hyiN8R/CH9IyZADQ+6aoCaOJvEm0022mVwy6TY1M40wlZquMz1p2mnGNAs2yzZbbXbMrMOcYR5oLjZfbX7c/A+WPovNymWVs06xuixMLCItFBZbLVosei3tLJMsiyz3WT6wolr5WGVarbZqtuqyNrceZT3Dutr6rg3FxsdGZLPW5qzNB1s72xTbhbZ1ti/sDO24doV21Xb37en2QfaT7SvtrzsQHXwcchw2OlxxRB09HUWOFY6XnVAnLyex00an1qGEob5DJUMrh95ypjmznQucq50fuTBdol2KXOpcXg2zHpY2bMWws8O+unq65rpud703XHf4yOFFwxuGv3FzdOO7Vbhdd6e7h7vPdq93f+3h5CH02ORx25PhOcpzoWez5xcvby+ZV41Xh7e1d7r3Bu9bPno+cT5LfM75EnxDfGf7Nvp+9PPyy/c74PeXv7N/jv9u/xcj7EYIR2wf8STAMoAXsDWgLZAVmB64JbAtyCKIF1QZ9DjYKlgQvCP4OduBnc3ew34V4hoiCzkc8oHjx5nJaQrFQiNCS0JbwnTDksLWhz0MtwzPCq8O74rwjJge0RRJiIyKXBF5i2vK5XOruF0jvUfOHHkqihaVELU+6nG0Y7QsumEUOmrkqFWj7sfYxEhi6mJBLDd2VeyDOLu4yXG/jiaOjhtdMfpZ/PD4GfFnExgJExN2J7xPDElclngvyT5JkdScrJU8Lrkq+UNKaMrKlLYxw8bMHHMx1ThVnFqfRkpLTtuR1j02bOyase3jPMcVj7s53m781PHnJxhPyJ1wdKLWRN7Eg+mE9JT03emfebG8Sl53BjdjQ0YXn8Nfy38pCBasFnQIA4Qrhc8zAzJXZr7ICshaldUhChKViTrFHPF68evsyOzN2R9yYnN25vTlpuTuyyPnpecdkehKciSnJplNmjqpVeokLZa2TfabvGZylyxKtkOOyMfL6/P14E/9JYW9YoHiUUFgQUVBz5TkKQen6kyVTL00zXHa4mnPC8MLf56OT+dPb55hMWPujEcz2TO3zkJmZcxqnm01e/7s9jkRc3bNpc7NmftbkWvRyqJ381LmNcw3nT9n/pMFEQuqizWLZcW3Fvov3LwIXyRe1LLYffG6xV9LBCUXSl1Ly0o/L+EvufDT8J/Kf+pbmrm0ZZnXsk3Licsly2+uCFqxa6XOysKVT1aNWlW7mrW6ZPW7NRPXnC/zKNu8lrpWsbatPLq8fp31uuXrPq8Xrb9REVKxb4PJhsUbPmwUbLy6KXhTzWbTzaWbP20Rb7m9NWJrbaVtZdk24raCbc+2J28/+7PPz1U7jHeU7viyU7KzbVf8rlNV3lVVu012L6tGqxXVHXvG7bmyN3RvfY1zzdZ9zH2l+8F+xf4/fkn/5eaBqAPNB30O1hyyObThMONwSS1SO622q05U11afWt96ZOSR5gb/hsO/uvy6s9GiseKo/tFlx6jH5h/rO154vLtJ2tR5IuvEk+aJzfdOjjl5/dToUy2no06fOxN+5uRZ9tnj5wLONZ73O3/kgs+FuoteF2sveV46/Jvnb4dbvFpqL3tfrr/ie6WhdUTrsatBV09cC7125jr3+sUbMTdabybdvH1r3K2224LbL+7k3nl9t+Bu77059wn3Sx5oPyh7aPKw8neH3/e1ebUdfRT66NLjhMf3nvCfvHwqf/q5ff4z+rOy5+bPq164vWjsCO+48sfYP9pfSl/2dhb/qfPnhlf2rw79FfzXpa4xXe2vZa/73ix5a/R25zuPd83dcd0P3+e97/1Q0mPUs+ujz8ezn1I+Pe+d8pn0ufyLw5eGr1Ff7/fl9fVJeTJe/68ABhuamQnAm50A0FMBYMBzG3Ws6izYL4jq/NqPwH/CqvNiv3gBUAM75W88pwmA/bDZzoHcwQAof+ETgwHq7j7Y1CLPdHdTcdHgSYjQ09f31hQAUgMAX2R9fb0b+/q+bIfB3gGgabLqDKoUIjwzbPFWomvbN84BP4jqfPpdjj/2QBmBB/ix/xcAJpAP6i9DAgAAAIplWElmTU0AKgAAAAgABAEaAAUAAAABAAAAPgEbAAUAAAABAAAARgEoAAMAAAABAAIAAIdpAAQAAAABAAAATgAAAAAAAACQAAAAAQAAAJAAAAABAAOShgAHAAAAEgAAAHigAgAEAAAAAQAAAuqgAwAEAAAAAQAAAoAAAAAAQVNDSUkAAABTY3JlZW5zaG90GXS2AgAAAAlwSFlzAAAWJQAAFiUBSVIk8AAAAdZpVFh0WE1MOmNvbS5hZG9iZS54bXAAAAAAADx4OnhtcG1ldGEgeG1sbnM6eD0iYWRvYmU6bnM6bWV0YS8iIHg6eG1wdGs9IlhNUCBDb3JlIDYuMC4wIj4KICAgPHJkZjpSREYgeG1sbnM6cmRmPSJodHRwOi8vd3d3LnczLm9yZy8xOTk5LzAyLzIyLXJkZi1zeW50YXgtbnMjIj4KICAgICAgPHJkZjpEZXNjcmlwdGlvbiByZGY6YWJvdXQ9IiIKICAgICAgICAgICAgeG1sbnM6ZXhpZj0iaHR0cDovL25zLmFkb2JlLmNvbS9leGlmLzEuMC8iPgogICAgICAgICA8ZXhpZjpQaXhlbFlEaW1lbnNpb24+NjQwPC9leGlmOlBpeGVsWURpbWVuc2lvbj4KICAgICAgICAgPGV4aWY6UGl4ZWxYRGltZW5zaW9uPjc0NjwvZXhpZjpQaXhlbFhEaW1lbnNpb24+CiAgICAgICAgIDxleGlmOlVzZXJDb21tZW50PlNjcmVlbnNob3Q8L2V4aWY6VXNlckNvbW1lbnQ+CiAgICAgIDwvcmRmOkRlc2NyaXB0aW9uPgogICA8L3JkZjpSREY+CjwveDp4bXBtZXRhPgoAWbrIAAAAHGlET1QAAAACAAAAAAAAAUAAAAAoAAABQAAAAUAAAKzDKznnOgAAQABJREFUeAHsvQd3G9e2rLvEnJOYI8CcqWh7n3t//BvvvXvOthWZc84556BbNSF4yzYpgiQAdgPVY3BTokig+1vN7Vqza9Z88Q2H0yECIiACIiACIiACIiACIuApAi8k1D21HjoZERABERABERABERABETACEuq6EURABERABERABERABETAgwQk1D24KDolERABERABERABERABEZBQ1z0gAiIgAiIgAiIgAiIgAh4kIKHuwUXRKYmACIiACIiACIiACIiAhLruAREQAREQAREQAREQARHwIAEJdQ8uik5JBERABERABERABERABCTUdQ+IgAiIgAiIgAiIgAiIgAcJSKh7cFF0SiIgAiIgAiIgAiIgAiIgoa57QAREQAREQAREQAREQAQ8SEBC3YOLolMSAREQAREQAREQAREQAQl13QMiIAIiIAIiIAIiIAIi4EECEuoeXBSdkgiIgAiIgAiIgAiIgAhIqOseEAEREAEREAEREAEREAEPEpBQ9+Ci6JREQAREQAREQAREQAREQEJd94AIiIAIiIAIiIAIiIAIeJCAhLoHF0WnJAIiIAIiIAIiIAIiIAIS6roHREAEREAEREAEREAERMCDBCTUPbgoOiUREAEREAEREAEREAERkFDXPSACIiACIiACIiACIiACHiQgoe7BRdEpiYAIiIAIiIAIiIAIiICEuu4BERABERABERABERABEfAgAQl1Dy6KTkkEREAEREAEREAEREAEJNR1D4iACIiACIiACIiACIiABwlIqHtwUXRKIiACIiACIiACIiACIiChrntABERABERABERABERABDxIQELdg4uiUxIBERABERABERABERABCXXdAyIgAiIgAiIgAiIgAiLgQQIS6h5cFJ2SCIiACIiACIiACIiACEio6x4QAREQAREQAREQAREQAQ8SkFD34KLolERABERABERABERABERAQl33gAiIgAiIgAiIgAiIgAh4kICEugcXRackAiIgAiIgAiIgAiIgAhLqugdEQAREQAREQAREQAREwIMEJNQ9uCg6JREQAREQAREQAREQARGQUNc9IAIiIAIiIAIiIAIiIAIeJCCh7sFF0SmJgAiIgAiIgAiIgAiIgIS67gEREAEREAEREAEREAER8CABCXUPLopOSQREQAREQAREQAREQAQk1HUPiIAIiIAIiIAIiIAIiIAHCUioe3BRdEoiIAIiIAIiIAIiIAIiIKGue0AEREAEREAEREAEREAEPEhAQt2Di6JTEgEREIH7CHz79s3Zx/dvfIHPL168sI/7flb/LgIiIAIi4A8CEur+WCedpQiIgAj8SYAC/ebmxl3z4/oG4jwk0lNTU11qSorE+p+k9AcREAER8DcBCXV/r5/OXgREIAkJXFxcuKPjE3d8cuyO8ZmV9NTUNFdYkO/y8nJdRnoG/p6ShGR0ySIgAiKQWAQk1BNrPXU1IiACCU6A1fSDw0O3tr7htrd33O7unl1xOsR5TXWlKy8vdQX5BS4zMyPBSejyREAERCDxCUioJ/4a6wpFQAQShABF+vX1tVteWXVDw6P4vOI2NjbdDb6ekZHh2ttaXHNj0NXV1rj8/HyXAhuMDhEQAREQAf8SkFD379rpzEVABJKIAEX65eUlLC/Hbnpmzn36/MWtrq65HVTU6VVPT09zLU2NrhkfLS3Nrrys1OVkZ7sU+NbZaKpDBERABETAfwQk1P23ZjpjERCBJCMAjY7m0Wt3dHTslpZX3MTUNCrqw+7w8MhdXV1ZYyl96oWFBa6yotK1tba4hoY6V1VZAQtMpktht6kOERABERAB3xGQUPfdkumERUAEko0AE15OT8/c5ta2m5icdLNz825+YdEEeiYsL2fn51ZtT0tLgz8939XC+tIIC0wbKusU71kQ6zpEQAREQAT8R0BC3X9rpjMWARFIMgL0pW9v77qFpSU3ODRkVfXDw2OXnZ3ligoL3d7+nlXXaY+hWGfyS2Ow0b17+8pVVVSYWGfFXYcIiIAIiIC/CEio+2u9dLYiIAJJRuAS1pbTk1M3Oz9v3vRJ2F6Oj49gacly+Xn5EOH5bmV11ZpKiYaCnGK9srLSdbS1umCgwTXU16HZNB2RjalJRk+XKwIiIAL+JiCh7u/109mLgAgkOIGTkxO3u7fnBgaH3fjkFET5GhpH011tTY1VyinWp6dn3MLigol0S4aBVSY/Lw8edYj19jbX19PlcnNzXFZWVoLT0uWJgAiIQGIRkFBPrPXU1YiACCQIAQpufqwjfpFxjINDw25ufsH86CXFxa6luTk03Cgj041PjLuZ2TlLd6HBJWyBoTBvaGhw7WgurWbGelmZDUJSbGOC3CS6DBEQgYQnIKGe8EusCxQBEfAjgaura0fby/TMrH2Mj09YMyl96bU11a69vR0e9Ry7tNGxUTeFqvo3JMNQqHNKKRtQOcG0tLTUmktbm5tcMBhAZGOWZa7bD+p/REAEREAEPE1AQt3Ty6OTEwERSEoCiGM8huWFE0hpeRkZG8cE0l2rlDN+sQa2l0Cg3qVBkDOekUkwM7OzSIY5YTndFRQU2hCkw4MDy1Fn6ktba6trbW1Gc2m5KyoqNJuMGkyT8u7SRYuACPiIgIS6jxZLpyoCIpD4BFgJZ8oLoxg50GgAlhc2kFKU5xfkozG0HjaWaldRXmYwzs8vINLnENc473a2t+1n2UjKxtGjoyMMSDpC8+mJ/VxjMOCamxtdTXWVY6yjmksT/37SFYqACPibgIS6v9dPZy8CIpBgBC4wfZQpLzNzc25sfBICfMFtbm658vJyaw6tq6t1ZaVlrhCi/QqC/uzs3C0itnEJH/x8CbtLQ0O9y8/PM/sLf3YZQ5JycnNdSUmJ6+vtdq0Q68VFxWguVb56gt0+uhwREIEEIyChnmALqssRARHwN4FDVME3IK4nJqbc8OioO9g/cBTvwUAAXvM6xC5WuGIMMcrJyYbt5dqdnJ259fV1NJyuudmZaaugMxGmrKwUqTCFbguV+XlEO55gYBLaU113Z4drxSCkOkuNKUSUY6rZYPxNTWcvAiIgAolJQEI9MddVVyUCIuBTAhTpk1MzSHKZcKNoIKXlJTcnx7W0tLh6VNNZCc/Ly3HZqIZfMGMdFfVtWF421jfcGH5mZ2fHvSwpdnW1tfiZJrcPn/oCppguLC6ZnSYA60wTppZ2tLe6SgxDyobgT01J8SktnbYIiIAIJDYBCfXEXl9dnQiIgA8IME6RTaGnp6dubmHJfOmriGTc3NqC6H5p1fG6ujpXAWGdDwsLk1/oMWel/QQ/QzFOf/o4qvDrG2sQ96movte616/6XErKC0wtPUTD6bSbhZ0mAz9XXFTkmpua4FuvddVVlXi9bBuS5ANUOkUREAERSCoCEupJtdy6WBEQAS8SYAPpKawpFObjE5Pu46cvlvrCVJYActDZQPry5UtXBCsLRTrFdkZ6GjLVL+z7OBRpf38flfgp+NGX3eHRsQ1E+q9//YqfK4GoT3fDI2P2wffgpqCutsa1NDW6jo52V1JcZMOQlALjxbtD5yQCIpDMBCTUk3n1de0iIALPToDV9PNz2FcQvzg9HcpMn0LKC6ePFqHyTW86bSxZqHrTl56DzxkQ3kxsOYM//QiJLvz54+Njy1tfXFxEVX0DVfgy9+v7tybIy0pfuiU0lHJgEivra/C0Z2VmWMxjT1en5awzRYaDkCTWn/2W0AmIgAiIwJ8EJNT/RKE/iIAIiED8CTCKkdaV0PTREUehvb2za5aX+tpqR8tLZWWVe5GaYuI9LzfHZaSlmaBmgyibT/kaFO3zEOIU43OIamQqzNvXrzDBtAmZ6w2Omer0v3/pH4RYnzI7DCv0rKi3IAWmGb51VurT8No6REAEREAEvEFAQt0b66CzEAERSEICoWr6hVuEXWUGE0hpT9nb30NzJz3mNRDPjUhuKXJ5iFqkgKYvnY2k/PM32GWOT0JCneiuYWdhPCMTXsZRNc9ExbwTIpxNox1trWZ3YZ76yNiEDUhigynjHUtflmIYUrNjZb0YFhjGOuoQAREQARHwBgEJdW+sg85CBEQgCQlwWNHh4ZGltUyiys3BRbSecGBRAyrpzENPgwUmLNKZe86KOm0vrKLT9nKAn2cyzLdvN2ZpoQAfGRuzyaQNSInpRBzjq54ue41riPvFxSU0lS6YF34LDag31zeo2te6Loj6WlTwKzG5lO+nYUhJeEPqkkVABDxHQELdc0uiExIBEUgGAqym7+zuIQN9w/UPDsFfPuN28Xfmn7/q7cHk0QrzqN/g+3iwiTTHPrItyeXy8upPoU4/O/Q9fn4XFpoVNzQ86k5OjmF/KXRdEOrv3776M9mFVhk2lE4hApI2mcWlZYt/ZD57e1uLWWXy8/MR/5iVDMugaxQBERABTxOQUPf08ujkREAEEpEAq+H8mEcU48zcvBuDHWVtY92lY/gQE17ewFteUFCAyna6fR8ZsJLOZtKszNA00UtEM7Kivo+KegaEeio87EcQ4RT+Q8MjlqfO5tCO9jb3y/s3Jtpz8RpMfDk6PrIBSdOw24yOjtl0Uw4+amlptmFINdVVSIIpsddUc2ki3oG6JhEQAb8QkFD3y0rpPEVABBKGwMXFhYnjAQjqEQjlpaUVd3FxjhSWauSbN5pdhfaT8/NLB08LKuip8I7nuFxU1NPhU/928w3fD6GOWEZaX1hRT4NQ5+tuYxLp8MiIW11bQxLMqQ09YvpLWWmpedAJMSTWj62i/vlLv1tdXUV1fx+RjtVoPK03bzutN+F0mYQBrwsRAREQAZ8RkFD32YLpdEVABPxLgHaXa3jCd/f23BYENS0vE8g+p0+cdpPWliaLYixHVCIdL2eYOsqqOIV4PppIaX1JhYDn9/9FqKPynpaGaEWgYZ76KDzqrNbT4sIK/eu+HotppL2FB8/jEpX1jY1NS4ChN54f9MAXIgmmG3YZNrIygz0HU1E5NEmVdUOn/xEBERCBuBKQUI8rbr2ZCIhAMhOg3YUCewm+8GkI46GRUQjqBVeFiaOMUOzr6TZx/OIFq+OXGGh0bpGJTHvJz8dEUghpCmaK/R+FOqvv6fjIykw3b/ro+ARSZOZQMV90VRDnHR1tNtyoob7Ofj4suo+QvU6xPobv/zowaNX5K1hq2Fja2tLiGoMBnE+xbRTCP5PM66drFwEREIF4E5BQjzdxvZ8IiEDSEjg5PXV7e/uook+7EUQxbmxuQFifoomz1arpjcGgNX0yH53NorSoZKGpk42duTlZFrlIwXx1FRL8YesLU1/SMamU30MLDb3nk1MzluzCoUmN2AQwqpEV+x+HGlHsH6PpdGFx6c/m0lUMQyqHTYY+dWas18EOw9fg6+sQAREQARGILwEJ9fjy1ruJgAgkKYFwygv96CNj425oaMjsLdkQ1xxM1Nba4mh5cd9euN39AxPpDvYXNpDmsokU1fSwWL5LqBfAHnN9c40IxmVkqU+5AVhr+HOs2Pf19VqlPBS9mGKrELbibO/suLW1dTcIzzyr6zwxNrNS3DdhEFIdMt15HhT5OkRABERABOJHQEI9fqz1TiIgAklKgIKY4noRlev+wWFYUubd0vIKhg0VI7e8wvUg55y2lKzMLHjHr82CcoPM8xRYYJj2wrSW9Iw0NIymGsE7hTrsMRTZ6xsbqKZPuU9fvpofnVNKX7/qcz3dXRbFyGFI4YPndopK/9HRMfLcJ60Kv4aq+jn88VVVVWZ/6YR15mVJiZ2HLDBhcvosAiIgArEnIKEee8Z6BxEQgSQmwBx0prEcIZ2FdpQPn75Y3vnp2alVq5saAxDDQYj2l+Y9P8MQpGOkuVAQ09KSn5frcnKzLdUlXNG+W6jnYarpC0w3hb0GFfXf//joaLdhJf41Kuq98MBz+mheLgT9Dwc977TZMFOd2eqsqjM1hrGPVVWVlsXOqnp4GFL4PH54Cf1RBERABEQgBgQk1GMAVS8pAiIgAiQQqqRfuf2DA0thoXimN50pKnlIeelFJb0dlhd6wDPSMyDQTy3p5Rw+c1pUslD5ZjU9Jzv7exNoiOvPhHoGRPnZ+Rk2BdPuv//nD9sUXF5fuV5U03u6OtFcWon3K/zLAvE8+cEpqTsYmjQwNArP+rTj5FJW3wOYkNra0uw621stBSYDza06REAEREAEYk9AQj32jPUOIiACSUrgGvYVWkpoJRnFUKO5uQW3gsmhJSXFrr6u1irV9IBTlPN7D49OLOnlGtVtJr3QF86JpBxyhAL7n8fPhDrFPX3qjFv8n3//Ye9NAc7BR52d7S4Aiw0z1W872MBKG8z45DSE/hReY9aaXfNQ1W9uakIqTRd+9qVtLFjxlw3mNor6mgiIgAhEj4CEevRY6pVEQARE4C8EmFW+jvjDWXjSB/qHMDUU3m/YYBoDAdfV1WGValpLriCQGcVIoX6BeMRvEO3ZqKLTn07hzcFDPx4/E+o52aEIRya5/P7ho1tYWLZ0mZbmJmtYZWWckY23HayqM0KSGwvmsA+PjGKC6QrO69gaSruQr94UDNgmIxV+eVlgbqOor4mACIhA9AhIqEePpV5JBERABP4kcAnBzZxy5qVPT89akya/VgybSwtiEplVzgZNDjriYCNGMjJukUI5DZNIWU3PQ4oL89HT0kJNpOEX/7lQzzJrDT3mA2hcncJ703dOjzmnjnbD/sJqPhtTb6uIs4mVTwFoe5mannGzeAqwsLgAC0yWqygvt4jHluZGq6r/3esePj99FgEREAERiA4BCfXocNSriIAIiMBfCFDsbm/vwO89bNNHV1ZWLfKQFhTmmbPCTa93KiIPj45P3fHxiTV+OswXpdUlFw2kFOqsWqf86HvBu0Qi1Cm02bzKxlDGQb6E3aYaKS5vXvdZEyutNayK33bc3ISSYCj2+Rr9gxiGdHDoKOKZ+d4Or3qwocGVl5XeKvZve019TQREQARE4OEEJNQfzkw/IQIiIAJ3EqCYpd98ZXXN4hhHIZIZxchqel1trXv75pWrxRChsu8i9xtEMa0lbCQ9h/2F4pm56WwgzUHG+m1e8EiE+j6y2JeWlzH9dMz1Y+ooK/Ss4L/B+9P+wmo4U11uO8JNsNxs8NyHR8fcMj4z9pH+9moMQ+qi3x1ineeafsfr3Pba+poIiIAIiEDkBCTUI2el7xQBERCBewlQkDNicWJy0pJXaH05RDW6EAOE2lCN/u2Xd64EEYmcOEqbywV87Gz2PDk5M686/ej5yEPPxqCiTGsi/aGL9Pu7RyLUT2Cj2draxhCjUffx02cT/DkQ5+/fcrhSq8U0snL/s4ObDj4VmMI1TCKxZmxiwrLdKc5fIe6xlUOaINyZTCO/+s9I6t9EQARE4HEEJNQfx00/JQIiIAK3Ejg8PHS7e/vuS/8Akl7GzadOQcys9FbYXVjNZnWbSS8U9ecXlxDqx+707AxNpN9skmhBQZ41kd5VqY5EqDO7nRsANoT+gez201Nms6e4d6io035TXlZm53HrRXz/IivrzGHf2dk1Cwxfa2d3x77WhOthYk1jMGAWmKysbDwN0OTSn/HUv4mACIjAQwlIqD+UmL5fBERABG4hYJYXVMjX1zfMLtI/OOSmZmZtEiizy7uRmNJQX+vKy8v+tIqco/J+ikZS+tOZBpOKJlLGMRYUhGwpd3nIIxHqrNafQfyPjU9iQmk/qutbeK9TDD7qc5w0SvtNXl7evR7z0Hudo6F02bz2s7OYqookmOLCAleBqaoU/WxO5cAmZq7f1qB6Cy59SQREQAREIAICEuoRQNK3iIAIiMB9BCi6aTdhUsooGjgXFhbdzt4eqs6NyCBvxGCjZssgp+WFYpbVavrST2F5oVinsKbthd70vPwcS2W5y04SiVDnxoFRj8xTZyWc6S0U6xx6RKEeDAYsgeau9whfL8+Tr3WAoU1sUB0aHsOTgjE7d0485RMCZqzzGgvy8+xJQfhn9VkEREAEROBpBCTUn8ZPPy0CIiACRoDNm2tr6xgWNOlG0Hx5AhH+AoktPZgI2gYxW1dX4/JRwWaVPFR9ZwziCQTviWPeOo8cVNNZUacHnAL6rup0JELdGkIh/peWlt0kNg88p3lsHtpaWmzTQH85hxfRXnPX+9hJff8fWmlsGNIEvOrciCwtuQNYayoryl2QufBoLqWdhmKdFpu/BdX8+FL6swiIgAiIQIQEJNQjBKVvEwEREIGfEWDKy+joOOwh0256Zga2klzYQUrRdNnjmuHlLkYDKZtDebB6fnl5bUKX2ekU1fSs5yGSMQcVd1pIflbpjkSo8324IWBSyyJsK5++fEUz6CQmk9a7RpxPN3LcKzH4iH75n70XX4dHuLK+iuvkMKWBoRE3v7ho0ZGVsMBwQxJoqHc1SIRh7nsk4j/0yvpfERABERCBuwhIqN9FRl8XAREQgXsIWNUa1XBaWKZnZ93XrwNuA5NId3f3XH19nWtoqLNqOvPLWSlnNf0bXpNNpBfnl+7AYhlPzOZCER+eREpLyc+EbqRCnae/C/vN5uaW+/cfHzEAaciq6LWIiezr6YJPvQZ++Hw7r3su1f6Z18sGVV4fs9mZaLO5uWnCvLa62jXB/kIrTD6q6rTw8PjZddg36H9EQAREQATuJCChfica/YMIiIAI/JwAK9a0uKxDrI6gmv7h4ydHi0h6WrrrhRCmF7y6qtIVFhZa1ZoinWL3An52NnoewvpycnqOpJcME/L5zDaHT/2+9JRIhHpYINM3f3R05P6///63+/T5q8VCVqCh9TXiFVkBLy4uhv0l7ecX+sO/chgSNxqzc/Pmxx8aGbFUGGayNyPV5s2rPrPDvHxZ8lP7zg8vqT+KgAiIgAjcQUBC/Q4w+rIIiIAI/IwARTojFZlVTg/4zMysY+Mmk1QohLvRtNnS3GiDhcJ56BTpN/g4PT2zpBc2kVL0Zttwo2x407NM5Kek/DM7/cdzeYhQ5xAlest///gZFf9+ZLyf2zm+hiWH8Yq0rYQtOT++x11/xunDUnPtthHZaHYfVNYX4YPf2dmxgUrBYACvG7DJpdmw1XACqg4REAEREIHHEZBQfxw3/ZQIiECSE7iC5WUHFhD6tQeHht3Kyqrbx2Cjutoa2D+Yl95icYysbIer26xGc2op4xg5jZQineI9NyfHGkizsjPNBhP+/rsQP0Som80GVf6vA0Owvgy7jc0NO5++3h6zqTTU1Vk1/773/PFc7KkAXnMPDbRMuZmEL39iasrhSl0Rnh50wv/OpwmchEobzENe+8f30Z9FQAREINkJSKgn+x2g6xcBEXgwAQpVWlfm5heRlc5EFQw2gr2EtpWW5mZU0zusUv2ypPgvIvX6mpGJ8LSbUD8ykc5GTnrT2dSZabaX1HvP5yFCnRsKfoyMTVjyy+zcHM793PLPGRnJ82Xj612Z7XedDDccrNSvw5PPJwlDaC7d29/D5uMKKTANFtfIyEZaf3iNEut3kdTXRUAEROBuAhLqd7PRv4iACIjAPwhQpNNOwmoyYwqZ8jI3P2+WFSaetCH2kEOAKH7DDZXhF6GIPcXPHh+fWuY6BSzTXvLxvWw2TUdaCr923/EQoR6Kgrw2Mc3K99Awp4si3z0YwLk2I1axwzz03GQ89OAG4Oj42C3jacLIyJhZYNbW110JfO9MlOnp7sT7BG0TEmkM5EPPQd8vAiIgAolMQEI9kVdX1yYCIhBVAhTp/NhAigrF6dAwIgqRTX6Iajorx697e2F3qXPV3yMK/16lPkMTKYXtKRpIWZHPSM+wKMa8vBw0eWZiMmlkleeHCHWeL49lTBOdm19wHz99dcurq64K+eespr951evY+JmZyUFMD8PF12bU5N7+vlteXoUFBk8XMAzp8urSKvQcrsQM+Sqk3hQWFFiTrCrrD2Os7xYBEUhuAhLqyb3+unoREIEHEGAFmakujCWcnpkzf/bu7q6JbNo83r157cow9KcQkYcIJvyL8KWoZfMpfezniGbka2UhkjEbuek5yE+n7SWSajpP9yFCPXx5bHqlWP/9wydLbGHFvxHV7l/evbHm11wkzjxWRPMJAwc+zczOu2EMVlrfWEcs5L6j/53JMmTDwUh8Tz5B0CECIiACIhAZAQn1yDjpu0RABEQAUYqnliPej6bMsfFxyydnFboegpSWFya9UIym/02MUqTzg3nrtMzQAsO/05fOKaSspjPeMNLjMUKdQnpjc9OE+hQq30xuqaurdf/69RcbUlRUVPhooU57Dc+JtpeZuQU3DkvQ9MysWX9Yre9Ac2kjfOtVleUWD/nYDUGkfPR9IiACIpAoBCTUE2UldR0iIAIxI0BRTTG6iar02tq66x8cNCHKCnhJcYlrb2uxBkoK3wzEEab8zUPCn6U4p1A/ODzEa30zUUzLCxNf6A9PwzCkSI/HCPVjWG62d/ZsQun4xCQq4PuopJe7X9+/tap3BSrekVb0bztPMuLTgu3tHcfX5weHLfHr4eZSDkMqxoaAjCTWb6Oor4mACIjAXwlIqP+Vh/4mAiIgAv8gQB82hTY93pOIIaQ3fXl52dVgsmdTUxOmfHajWlxh1fR/iF1YxK/w88xOZ0X+CIkvFKkU5owupFinN/0fP/ePs/jPFx4j1Jn0cnBw4L5iOukoEmAWl5YQpVjg3r99Y9YUeuvpqX+KgOZ5XcGfTq/62EQoZYapMGWlL+GHbzJrUBW8/Pn5+f/YzPzn6vQnERABERCBMAEJ9TAJfRYBERCBOwgcIfOcSSkTk1OW9LK9vY2YxQvYXVpNgDJBhdaR25JNOODo8uLSquknEOvnEMypSHfJzMywWEZaXyiOHyKQHyPU6YlnLOTQyOifaTX0yPd0d7l22HaY/U7/+EM2DH/HxScFfHpAi80KGlaZMMNEHG50SpCpzvcJwAJTjycPHIQkv/rfCervIiACIvBXAhLqf+Whv4mACIjAfwhwCuc3WF42t90squnjqBJTrFNgFiDF5FVvtwn18rJS817/5wdDf2Leyg2y08/RgHp4eGxTQTmAiJNAGcdIkZ4Nf/pDj8cIdVpQWFUfn5y0ivowBDsPNnpyQFEvohS50fh7Us1Dz43fz3x1Wnz4HhOT0251bc1eprKy0nh14f0K0HDL+MqHbFAecy76GREQARHwMwEJdT+vns5dBEQgpgRYCWbKyywaJL8ODLql5RUkmmy4agjO2toam77JSaR5SEy5rTpMcUzLzBlSUTiJ9AKVdVacQyI9FMnItJeHHo8V6twkzOFamP0+AAsMU2gqKypsQNPb16+sqfW263jo+ZHbOaIoF2CvmccGh2J9e3eHOThWTWfOPDPnK8rLnlzFf+i56ftFQAREwE8EJNT9tFo6VxEQgbgRoI3j7PzM7aEhcmx80n38/BVV8UOLVWxvC1leGD1YCv81xe3fG0h5onwNClYKYuanU2DTWsJKMr3pGelptwr8+y7yMUKdr0n7y8rKGpJZ5lz/wBCaPXexachx3Rh69Osv72zDwQSaaBzckOwhopFJMKNIgWHe/Ab86oXwxTfUhyIbG4MN398zKxpvqdcQAREQgYQjIKGecEuqCxIBEXgqAVbCKWrpS5+enXUTE1MmNrPgqy7G1M3enpCvu7Cw0GXDvnKbSOc5UKwen6CJFGkvxycndlpMPKHlJS8XTaSpD2siDV/XY4U6K91bSGVZXFxyA0NDbgWWlPMzeO2x8fgXhHopohRp6YmWHYUVfPr7FxYX3eT0jFlhaL+h9YebnY6ONleLyvpL+Nd1iIAIiIAI/JOAhPo/megrIiACSU6AgvYAUYPLq2tuBAN8FiBs19c3XDmsGkFU0Tth3QiiGkzRfZenm2Kfr3N0dGJi/fTs1L437E1/TBNpeFkeK9S5cWCEIj3j4amqjFNsDAbceww+4nTVstLSBze3hs/rts+0+2zv7MA+FKrikyMnuTJ7vrExiAbTZstzT0+jPz7ltpfQ10RABEQgaQlIqCft0uvCRUAE7iLA5s/llVU3g+mjg0gu2YW/+htELhsv2QhZW1djGeT8+buqzxTprMoffhfqFxfnsLog6QWWlxw0koYsJn+dXnrX+fz9648V6tw8MCJyc2vLjYyM2XRVTiutqa52vb1dtgnhn2nPueu6/n4u9/2dmwNGU5oFBrGQs3PzVmHPxRMFVtJfv+qzNBhGNjIJR4cIiIAIiMB/CEio/4eF/iQCIiAC1jzKxBI2QE5OTdtgI4rW8rIy14IIww5YNhjFmJ+X91NatH2co5rMJlLaPSjcs7KyXCGy0ylI0+FPf6wYfopQv8Tmgd5x+u6ZCT8FS0rpy5eIZ2yGBabZNQWDURXq4ScL+8hwX8UTimlsfjgMickwTNTpaG+3JJjamirkuhcZl6dERP50UfSPIiACIuAzAhLqPlswna4IiEDsCFBUsmF0Y3PLfe0fMiHLlBc2jDJvvBlDe5iZno7m0bssL+GzY9LL6em5DTg6x5/DTaRFRfmhGERUrR97PFao8/1wieYbn5rBUCKI9eGREfPM04pC7z0TWXiu0RbLfLpwhqZaCvX+wWEbuMS89dqaapuMyohIVvNDCTqRT2l9LEP9nAiIgAj4gYCEuh9WSecoAiIQcwKseF8gSnEJE0eZUDKBqi+FJA+mlLx61YtYxgqrPr+gkEWV/baDYj9kMeEk0jOzfVwj7YUV9Bw0kRbk50Lkc7DQ7T9/22v+/WtPEep8LTa3Li4tY3roJGInBxCa6MyG8qqvx/V0dbospNJkIFM9mgctMBTrW1vbbnF51TZB09gscEOQl5tnFf0ghiGxsp6LuMv7NkLRPDe9lgiIgAh4lYCEuldXRuclAiIQVwK0pzCZZWRs3E1iqNESvNuX8KqXl5e7tpYW97qv2xJRmFjys4OClB9Hx6cmiOl358HBRoxlZBOpidDH63QIXua7I1EF53tweOTSIPy5ESiArYb+d24CfmarYbWfUYnjsPd8/PQZle5Txyml9Iv3YYhTYUGhbSp+dp2P/TeLqoQdiE26HIhE7/oZIiyDDQ2upanRtbe3YtNQbDahn13DY99fPycCIiACfiIgoe6n1dK5ioAIxIQAK+D0bXMC6ef+fps+yubPgvwC14ax901NQdeIai9F+n2V3lAT6bV5049RuebfKaRzczmFlE2kGU+2lTxVqNM/z+vl4KM/Pnxy+/v79hSgt7fH9cHiU1ZeCrFeEBPWPHe+P59azCD6cghNrSurq64Y/vT6+lqr6NMOQ7sRWUusx2QZ9KIiIAI+ISCh7pOF0mmKgAjEhkDYksGUF07tHBwacXOLCyZU62tr4Nvudpw++hIZ4/eJdJ4hJ5FSiB4cHluFntYOxjjmI+WESS9PaSINE3iqUOfmgfaX6ZlZ9/sfH906LD6n+HtnZ7sNP6qrq7VM9fD7RfMzN0U8mOfOavonDJKanJrBhubKFRcVobEUDa2NAYuMZJRlNCalRvP89VoiIAIiEE8CEurxpK33EgER8BwBNnrS8jKG6ZnDiGKk5eX4+MQ80y1oHmUaSgmGHFFk/6y6G9KfnER6CSvH+fe0lzOXDpFO20teXq7LZO46hPsd9vaI2TxVqFMsX1/fWFWbQn1xaQnCeRvWkyYbRMR0myr48WN5hLlzaukkLDg8hzN4+hnT2IqnGG/QE8D4xnzYeXSIgAiIQLISkFBP1pXXdYtAkhOgWOXH7t6eW1sLjbkfhT+d1XD6tbu7u10rhHoNJmcy8/u+FJTw6zHphVnlJ5hIen55YXYXNpHS+pKBoT5PaSINL9lThXr4dfgU4fPXAcuLX1xadPW1dahmB113V7sNIeLG5Gebk/DrPOYzeV2hir68vIINw5JFNq5iHZgMwycYTNmpxefKinKk7KSjsq4kmMdw1s+IgAj4m4CEur/XT2cvAiLwSAJhywvTT0ZGx93cPAbx4M+laGSsrKw0C0h9fZ1ZYDIy7k9AofC8uflm1XgOObpAE+k1mkop8nNzskywU2xGQ/hGS6ivo6F0FEOIJiYnLTeeWfG0+7x+3WvWE1p97tugPBK//Rhz1I/QWLqNaj5z62dmQ8OQuLGpq621OEwOmQo1yWY/5a30syIgAiLgSwIS6r5cNp20CIjAUwnQerG/f2ANlV9QVd7d27U4xWZUlCkOGRVI4crhRJGIVVpJKKBpmzmA+Ly5uTZRTsuLTSLF60TicY/kuqIl1Hd2dzEpdME2KkPDwzbEidf87u1rG+7E5tdYe8T5BOPo+BiVdUyCnZtzo9g0nSKFhr7+esRi0q8ewOeK8jLjGY2NTiSM9T0iIAIi4AUCEupeWAWdgwiIQFwJsPp9dHRk4nBgeMT9/uGjZYlz2M7bN69h/eh0ZUgdociO9KB4PkfMICMTOY2UOescjGRCHRXidFTTIxH8kbxftIQ6J7DSbjIEb/6nz1/MXpKPpJtf37/F4KNWS73hRiXWB/PVDxEzOYckmM9fvrol+NW3d3ZNnNdhENPbN68QkdmsFJhYL4ReXwREwHMEJNQ9tyQ6IREQgVgSYOX79PTE0fZBu8Usqriz8wtIHCl01ZiM2d3Z4VhVz8nJQVX3fstL+FyZl35yjCFHqAafoimSvmr+fF5ejjWTRjNqMFpCnedJjz7zzD8gT512HZ73u7dvXGdHmyW/ZCP7PdYHbUjMhd/c2nJT0zOwwGBN8MGNDa1Dr/r6sHFosaZerkssvfOxvla9vgiIgAg8hICE+kNo6XtFQAR8T4BilNMxWb1lFOMmognZ/BloqLe0kaZgwBpIHyoGKXo5fIjDe2jnYOY6m1Lz0ETKqvRDX+9noKMl1HmePO+RsTH34eMniPZ9d4V4yTd4qtDV0W7JLw95qvCzc77v3/iUg+k7GxtbiGucxtoMW9Y7m0u7ujqQRtNiE2KZBMOIy2g9nbjvvPTvIiACIvCcBCTUn5O+3lsERCCuBNjcSQ85B+0wu3tiYsJdQKzmYoQ9Bxt1I0eceekc9hOpF5oCMyQyT93e/hF86pc2mZRTSJkDnp2d6TLS0yN+vUiAREuoM0+dTwI4ifVL/4BbXV1z+weHqGD3WkW9HnnqD2ERybn/7Hu4cWC++8IiU2Cm8HnRzqkc/vRqpO+0t7VaIkwRnn6QqQ4REAERSHQCEuqJvsK6PhEQASNAMc3KOb3PtHpMw2KxhGhAWisa0KxIEdgOsc68dDYyRnrQtkHBe3QMoX5w9GcTKQccMb3EstOZ9hLpC0bwfdES6uHkGw56Ghkdc5MzszaEiNV0VrDZVMsM+Wjadn52eVwjntPW1g5y1ZctjWYS6/QNX6Plpa211ZpLa2tr8KQiV5GNP4OpfxMBEUgIAhLqCbGMuggREIGfEQgLwJW1NavWUqgzQ/z87NzVo1nxNYbr1NXUuIqKMhOlkdoqoCtNpIeG95xCrJ/YaTApJT8/F7GMOS4tNSXqNo1oCXVy4SZjBZX0WUQjDqKxdgpivRGJN81NQdeOhtLK8nJsXrKifg13rRfPiQOjjhFxycmp44iOXFhYwNOKA1dbU43YyKBNUGU6TR42Q5Gu1V3vp6+LgAiIgJcJSKh7eXV0biIgAlEhQEsFvc7jaB5ls+Lc/JyJ6gIknHD66JtXfa6kpMiqtJFaXnhiFJWX8HQfw65Br/cp3iM1Nc2aSPORGMP89Gh608MwoinUWcHmUwbaXj4i+WV4ZMyGDNXX11r6DcVxfl6ebWDC7x/rzzwnfnAzNT+/6AbgV5+HWGfMZVVVletAxb8BthwbhpTO2MuUWJ+SXl8EREAEnoWAhPqzYNebioAIxJMAo/92kRn+dWDIKrQHBwdWJW5qbIRQb7ToP6abPDTnnGKSaSXMTT9DdZ5/ptWF3vRc2F7oT4/FES2hznPjZuMQMY07u3vuf37/6L729+NpQB4aSStdb083MszrXFFxkUVNxuJa7nrN0Hkd2Xl9/vrVjY9PWIQjrUmBQMBsOW0tLRZ/GY8IybvOU18XAREQgVgSkFCPJV29tgiIwLMSoNijmGZWOD3PAxDqs5hAmg0RTSFKLzYbJlmZpV3lodX0K9hGKND/nESKv2dnZcP3nm1e98wHxDs+BFQ0hTrf9xTefdp2/v3HR/flyxcHR48rKixCU2mPTSjlsKGH+PYfci0/+15ufDj8aALNrnwSsoCkHp4nG3WDwYDr7e505bDm0EeP2PoHrd/P3lf/JgIiIAJeISCh7pWV0HmIgAhEnQD91/yYmJoOTd8cGbH89Cb4nNk82tfb7cpLS01UP0Sk80RvsAlgYsrp6TmGJ51Y2gtfgyKStpeMjLSYTfWMtlC/xMAhxlYyS/3Ll36LaaQwpyWotaUJ3vAaYxT1BYrgBbnR2tjcwhCkZdc/OATb0gImyu4jQrPavX7d57iWDaj606uekhLNlt0ITk7fIgIiIAIxJiChHmPAenkREIH4E4CGDlk6jmDpgP96bGLSjY1PIpd7177e0d7uWuFND6JpsqAg33zlrMg+5GDUI33pJyf8OLXXTUtPNcsLE0loo4mVdzraQp2bGfr42UzK/HI+faD3vquzE0k4zUhaCeIpAa8p/l5wPhU5Qb76DqxLjNRkg+k8Kuvp8KZXVZbj3Bq/p9MUmWXnIWuo7xUBERABrxOQUPf6Cun8REAEHkzg5iaUZrK2vm6TRzmBlAKPvvGXL1/CMtFlIp2Z6awcP7SaTmsIxS0r6RTptL+wmkv/NCMZ+T6s8D70dSO90GgLdVat7ckDLCaj2NCMjY+jan2Aanqz5ct3tre5wsICiOPnyS7n+TEJZhXNpdNIpxnChoLnxyMQqLeGYG66qiorjHmsuEe6Pvo+ERABEYgWAQn1aJHU64iACHiGAKvDTGKhr/nL137YXTYs3q8xELAcbuaD05fO2MGHNpDyIikcWXE+hF/6FBV12kbSkJWel5cDj3rWn1aaWAnGaAv1sJd/Dskq3NB8+Tro1tc3LF++DRX13p4u84GHJ6zGe6F5ftxIHB4duZWVNTeMzHdaYTYwVbawsNDWko2vrWgM5po+14Yi3lz0fiIgAolPQEI98ddYVygCSUWAIppWiY2tLUQNjruPHz+Zl5yCnBM3uzraXDUi/mh5eWwGN0U6Gx3Z2MhIxuura0cRW1CQZ5+jPYn07wsYC6FOMbwGcc6poL+jqZSfy8pewlbS7N7CC15eVmpPC2K1+fj7Nf7972GxznSamdk52GCmbSASn56Q/eu+PpumWoonJnnoEYjlE42/n5v+LgIiIAKxIiChHiuyel0REIG4E6CYYzV9c2vbkkJoeZmYnIRwy4PoLIOY64GVo9lywR9jeQlf0Pk5mkhhd6FQZzWdB5tICwvzUc1FEyk2BbE8oi3Uw+dKEUyx/vvvf2BK6YzLgA880FDvfn3/Dvnlla4Qm5vnEuo8R64v8/D39vZtMNPA0AimmG66g4NDWJkCllDD5ldaYB77tCTMQp9FQAREwAsEJNS9sAo6BxEQgagQYHoJM9LZDDk0jOmjy8tue3vXVSMhJBhscB1tLZYQQmvEY6rp9KZTLNLucsJGUnxc4z3TIM5zMNyoAPnjjHlMeWhn6gOvPlZC/RB58NvbO+4PPIUYn5gw731VZZX77Ze3FmNZWvryUdweeHk//fZw4yvXeGxiCikw82aDsc0YEny6Otv/7D/Iysx81o3FTy9E/ygCIiACERCQUI8Akr5FBETA+wRMQKPKvbi85KanZ23C5jE8zSlIKmnFYBw2RFajKswG0sdWhRnJSGsNK+lMezlHgyNDx7OyMkJNpBhpnxrDJtLwKsRKqJ8gT51Nmp8R0TgyNo5q9ZZ7WVLi3r19bTGINZhSSgtRjPch4cu88zPXYA8RjWtrGzbAahwNsMewOzGVpr2tzZpLG4MB2zg9pgfhzjfWP4iACIhAnAlIqMcZuN5OBEQg+gQo0imad2GJYCV4EkJ9Hnnb9C7Tj97C9BJ8cOImLSqPPa6vb9zVNZpID09MGLK6SyHIpBeOt89G6stjKvUPPZ9YCXXaeFhVH0Be+ejYhJtfXLQEm76eHkuAaWoK2oTSx250HnqdP/t+Ju0cHR+5ubkFs8HMzs0hinMPT0+qrKLOnHwOauJTDvnVf0ZS/yYCIuBlAhLqXl4dnZsIiEBEBCjUd/f23OrqmvuMlBc2G9JvzaE4nK7ZjBzwBnitaUl5isi8gs2FjaT78EQfIVWGr5WB6aMccESRHusm0jCMWAl1bjyYDT+CVBVW1MeRPx+uUvOJBG0lj7UNhc89Wp+55jw2NrbcMmIb//3HB0RLTrhsbJi4OWNSDSMbq+FX98o5R+va9ToiIALJQ0BCPXnWWlcqAglJgOKZzZ1zC/Oors5jCumM24VIpzjjoJ7Xr3pdBRpJi4uLniTSKQyZ9ML3Ojg8ttH2fI9s2F6YMpKJPPaQLeRFzDnHSqjbkwlU1WkdGkemOvPKWWXnZNKurg5MKu119H17yU5CG9I++hIGBofdBDzrHGr1AvajCsRv0v7S3triiosKbWDTUzZpMV9UvYEIiIAI3EJAQv0WKPqSCIiAfwhw4NDh4SGmag6jAjxl2do0Udeimt7W2ur6UFnNycmxNJbHXhUFLD/OzpD2goozxeE5BGxONgYcoYKbC296PKu2sRLq5MONz+LSSihPvX/AmnMLCgpsSNRvv74z6xCv1SsH/erkwacozIDnU4BNeOt5DwTxFOXNqz5XU1OFeMkyWWC8smg6DxEQgYgJSKhHjErfKAIi4DUCFM9biGJcxQTSL18HMOBo2po7S5H+0Ym8dFof6mprniyi+T7M6+amgNNIOSWTAjEXSS/0p2fD986BR/Gq2MZSqNP+wojG+YVF1z8wZMOiuO5dnR3uv/71iyvCgCH6/ON1rffdc7Y2WJ8dpNWsrq2bZYd+dd4XJSXFtllrQ2Rjc1OTbdaYyqNDBERABPxCQELdLyul8xQBEfgLAQpKVn/nF5HygkrqEDK16VUuQ4RgMBhwr3p74FWuwBCigic3eFKUs5GUIv0AzZY3eG8enERKoZ6FptUUpqHYV2P/P7EU6rzWnZ1dYzkwNOwWwffg8AjNpE0Q6r/a4KOiItiIcJleEeskzmbiPSTW0LIzyY+paUvgoQWGjaWdHe3YZBTIAhP721PvIAIiEEUCEupRhKmXEgERiB8BTgQ9QvziyOiEeanX1tbMjkJR1oqElxaMky8qLLJmz6cKSgpjWl2OYXmh7QUtqTbUiN505qdzyFE80l7CdGMr1L/hOo/QpLnphkZG3Sx8/yuoVNfX1bo3r1/hcw0GClU+uTE3fC3R+swNBp90rK9vWrb6MM59GxsO5twzVrIxEED6T5M9YVEKTLSo63VEQARiTUBCPdaE9foiIAJRJUCrA6vpO7u7SHmh1WHCjSPtAy5ym0Da293pmpoaXVVFhSWARENAs4mUGeM25Aj2l/S0dEt4YUU9C2kv8bS9EGYshTr5soGUfMfAdgKVafq/OdmVqS+0kND7zXz6WA92euiNw/uCm6k1WKE4DGlxcdGtrK7CopRr+fm9Pd32ZCAXPQucTBuNe+Oh56jvFwEREIGHEJBQfwgtfa8IiMCzE7DqNiqnCxBhjBCcn1+EN3nNIvnqUPVtx/TRWmRpc1JltPzIp8jsPoT94wyJL6ysZ2Vk2pCjXNhemNUe7wptLIU6F5h+fDbo0j4yimFCI2NjlkfeGAy6ro4O+L6bLbbRa0I3tIm7sXNfRlTnJBKARkdHkdBzhqv65nq6u8wGw8jGQnjteX889WnLs/9C6AREQAQSmoCEekIvry5OBBKPAFNXtnd2LOHlK1NJDg8s25weZA41YvMooxijkcLCpG6KPzaR7iE7/RKV9WtYLNhMaQOOkPoSr+z0H1cy1kKd78XK9ByGRo0hRaV/cNAGHVWUl8P73+u6EdXI/PhobYR+vLan/hnLZU8EDrDRmMX5j8ACw43cFppN62trXX19nVXVa5C1TuuSF6/hqQz08yIgAolDQEI9cdZSVyICCU+Awpmj4zmNktMzP3364tJhYaAw/+2Xd6iYdrpCNI9mZWVFhYVVaCHM6Uvf2zswkc4Xzke13qrpJlZTo/JeD3mReAh1VqFXV9asOfPTl6/YDF3adb9988qGSDHyktnxXj24diuoqo9PTsLCM2mfs3FfvCwpca9f97nW5iZrjI3WveJVDjovERABfxOQUPf3+unsRSBpCJj/+OTEfOkcb88IvsWlZRNbrKLT1tDUGIAVhZ7x6ETw8T3PUUU/RkWd1hceqXhtTiKlUE9PS30Wn3M8hDp96qxC0/7yERuiQzy5ePEiBSK9Fx/diD4sMeHu5RtwHykw6xsbZoGZQBLM3v6e+ftbINKb0cfA+6UYCTa8Z2SB8fJK6txEIHkJSKgn79rrykXANwRYHaVw5Lh4Njb2Ywrl7u6Ou0CVl9NH2zHYKBiot2mUFFzREF18z0skhpyenIWaSNFMyomctNTk54eEOpspo/FeD12IeAh1Rl8eIlWH0Ze///EJueSbNuypu6vT9WKIFJNUWJ328sGnAGd4MjC3EIrw5DAkNpqWl5W6ABpiuzs7XXV1pfnVU1OYg+/lq9G5iYAIJCMBCfVkXHVdswj4jAAFF7O8p6dnMNRoxk3ig82BrIa2YUR8R1ub2V/oOY6WcGbcH9NeDmF7OUMzKTcKFOlMecmD7SMb/vRovddDlyMeQj10/RfmU//9wye3vLyCzdGea0OzbicaSpuCDbYxeui5x/P7eQ18KsKYxo3NLQzF6ndTaDDFgwHcO8XmVQ9gKFZDXZ3ZpZjeo0MEREAEvERAQt1Lq6FzEQER+AcBii3aTii0hkdGUFGfd+ubm66kqNDsCy3NzfY5ms2N5k3HgCPmch8eHlvSCwUf/cyhRtJMS3v5x8nG6QvxEOq8FLJfgkD/AOsL89RX4fnmtNcWNO12trda426cLvlJb8ON1jFsU1/7Bx1tU1vbW2gSvnEV5RX2RKajHRs93E+5uTm2+XquDdiTLlI/LAIikJAEJNQTcll1USKQGARCgvkaUYxLJhQpstY3N9w3xAdSML551eeqqiptGmk0IxJvzGpzaVYPNpLSBoICvk0hzcvNtgxuDjl6riNeQp3819Y33ODwKCrR0256dtZVIp8+0FDnXsOr3hgM+ELYcsPBNVxaXrVYzzHk7jMJ5vISw5Cqq10P7Dz19bWI+Kw0exMtTjpEQAREwAsEJNS9sAo6BxEQgVsJ0G7CRs5R5KWzGXBxacnsKGxkbIfl5VVfD/zFBVblvvUFHvlFCrvT03MbcsT3p2ClhzkXIj0PVVdaJJ5TzMVLqBNfuKGU4pa59UVI1alEDvn7t29sAiyfZHgtT/22Zeca0nO/ubWNSbajZqNaxjCkAiT4NDY2uhY0l7Y0B7HGuVFLDbrtPPQ1ERABEXgIAQn1h9DS94qACMSVwB5SO7a2t+EtHkRyx6TlmTMakdaLcHJHZgyE4jVsL8wRp0hnTGEKTM0cbMSkF35Y9T7l+ToP4ynUGYfJdJ3hkTHXPzBoTxPo7/7l/Rv0BrRaFjm9+3442Bx8fHyMJwNzbnJy2gY5XWCIVWFBPjYdLTZ5tby8zJUUF/vhcnSOIiACSUBAQj0JFlmXKAJ+I8CKNj3hSyurNnl0aHgEtoVlVLNzLW2ku7PD1dbWIL2jzCZkRvP6OJWTNomjo2NLezmHkGPcI/3L2WgkDTeRPqePOZ5CncJ2Y2vLqtCfPn12wAMO2e49hHpXB73dRb6pQLOqzsmy7HeYX8BkW2w+NtHvwM1YVWUl7FT1tglswITbtLT0qN9b0bxP9VoiIALJQUBCPTnWWVcpAr4iwJQXCqoxjK8fxmRJJr2wstsMi0I7UkcYEchoQFa5oy2YwyL4EEKdU1Ap2pmzXVCQZ+/HCn603/OhixM+xyM0SDINJy01DYk0aa4gP5fKhIAAAEAASURBVM8mpqag2h+tczxnQy0sI9ws/fv3D2YH4hOGd+8o1NsdK9C5SMHxy2G2JjSXbkCgTyCukfGTnGCahXupqLAITwre2v3FJycZHh7o5BfeOk8REIGnEZBQfxo//bQIiEAUCbDiSSG1f3BgXmI2j47DG318euIyUNVmLGBLc6OrR5weoxij7RPn5FNaIZj2cnR0apGMvDxW0Qvy8yHc0qI2TOkp2OIp1LlRYRY5PepMf9mGFekEGxgOPupERZ3DpgryC7AxeMoVxe9neY9d4WkNn5hwGNLMzDyubdw2I9wgtiMBphX3GJtMS0qKbfqqHzz48SOodxIBEYgnAQn1eNLWe4mACPyUAEU6xRJHv7PSOQEf8QwmkBahYZTWBA7aCdTXuyJE6UXbF02RThF3BhHKSvoxBh1RpKaicZTV1UJU1GmBiVal+qcg7vnHeAp1rgk5cD36B4ZgGVmwBlM+1aBHvREDp+jpZhXfTwetVYxtpAVmcGjE0mB431WhUbampsoxspEbwtAGzR8efD/x17mKgAhERkBCPTJO+i4REIE4EKDNglYODqUZGBo2ewIz1JtR4WyGIOQUUk6VpBUl2lVOq+ZDqLOJ9OT4FFX1CxPumbA/5CDtJT8vJ9RE6oHScTyFOrlQ1DIicxxWpHFsnhaXFpFd32QNvW2tzbYm6ekZvhLr4etiCswCxPo4UoWYLJSakmLJL+3IiW+C1aquttp6I6J9v8Xh10lvIQIikAAEJNQTYBF1CSKQCARYuaVI51CdEVhe+gcGzKKQAQH4+hVsFqhwVlSUQTBz+ihGS0b5sMox0l5oiTiGUL+8ujRhHhpwhEFHlvbijapxvIU6G2zXkafOavrA4AhE7aRZXhoa6s2nzvxx8om2FSnKS3zry7FZdmdnz43Drz48OmbWHm4Yg8GgDdJiT8TLl+yHwObQA5u0Wy9CXxQBEUhYAhLqCbu0ujAR8A8BiuSLi0sbrjMKvzCbRzkJs6iwEAN2yt2r3l6kcTSZBYW53c5FXzBT/DK+7+DgyGIgSY8NmsxNz0LaSywaVx+7QvEV6jzLb253b8/SUj58/Oz6B4dgdykKDQvqxrAgpKRwrWgN8tthjcsQ5hyGZEkwEOuMo6S9qramGo2lHdiU1NpQLT9en9/WQ+crAiLwVwIS6n/lob+JgAjEmQAtCBRLe3v7JpT6h4asentwcGge4UZUNmmvoAWBFdtYWBBwCnYOTJo5OGTay6klqWRlZVjTKu0vHHLkBX86lyeeQp3vxzU6AZODw0Mkv3x0nz5/sR4BJu/09XbbhNKy0pe+TEnhtXGjuIv7j5n9X/sHzQLDezIPmf1NjQHXFAy4YCAAC1SOy/BJZjzXTYcIiID/CUio+38NdQUi4GsC9D8fI2ZwYWHJKukjqGheXF4gqzvLtWL6aHsbLC+IACxGhTMWQpkinWKNIp152kdHJ+4cTYaZqKLnZGdZRd1r0zfjLdR5g1G4Mg3n9w+f3EdU1cmKtiCmvzCJp7q6ChGHmb68F7n+F9+vbwy2KzYxL2EK7gnShvikIBgMuN7uLlTVS20Sri8vUictAiLgSwIS6r5cNp20CCQGAQokeoQ5pp4e4ZnZ+dBgI/jQaTfg9FE2kIbsJ1kxuehQRfWbJb0wl5xJIEw5MW96TpbLhRhNgwUmFpuEx17Qcwh1bqhoDfrydcA+GG3IgwKWTzyCgQb41HM8xekhfFlVv8bHCoZs0frC+5H9EucX59goVlgUJVNgaIfh/ZCGpzs6REAERCDWBCTUY01Yry8CInAnAQqjjfVNt4Dq5SAsLxRITF1pQAQjK7UN9bXwQVfFNG2FQp0i9AjvewjbC8UoD24OKNY5jdSaJKNvi7+Ty33/8BxC3Zpt4eMfGRu34UfsI+CTEA49YkxjG55+5GPgkh8bSsO8GdF5imva3d2zSaxMgmEDbRae7gTQOMunO8yOZ+Msn/joEAEREIFYE5BQjzVhvb4IiMCtBFi1pn1icnLme/PorAk/Trlsbm52r/t6bPpoQUF+TKu0Vim+vAoJdSS+8KDYDAn1LPiu02Pii78VSoRffB6hHvJyz8zOmYd7ABsrRhtyWixFendXu+WpM9/eS08fIkT657fxvjz5bsWaxrVyGBI3j2wmbmhocK0tzVZVpx2L/RJ+vtY/L1p/EAER8CwBCXXPLo1OTAQSmwCrsfv7B2aj4ATSnZ3tP8UQh830IG2DkXixrtDSe30Ku8vxyakJsrS0dEyjTEcjYSjthRYHr4mx5xDqfPLAj2VYQ+bmF8yrvognITVVVRCvLYjQ7LFklGw8hfAar4f+JlGss7l5CU94BoaH7fP29q4rQ4Z/fX0d7s1O8+VzUxLr+/Oh567vFwERSCwCEuqJtZ66GhHwPAFaKPjBaiwnQX7tHzDhx8mW5WXlrquz3awvtZgOGetJoBSe5xhsRG/66ek5/owmUmwO2BSZiyFHTHvheXlNeD6HUOeNRV5bWLfl1VX33//+4GZmZq3ZshHJKO/fvrEozTzLufeQT+gRvxG8P3kvbO/sOj5B4Mf09Kx7gXuBU2p7ERfaBQsMJ7LmwiLltfvjEZesHxEBEfAoAQl1jy6MTksEEpUAK9hMWGFVlmPpxzDtkuKvHFaCxiDTNTrtzxzdHksBBM0J4XmDZI8zG7R0AfvLNSqp5ktH2kt2dqZF8cXyHB67xs8l1Hm+fAqyubXl/s///I6GyylrqqxHL8Ev79+52upq5I8XeM4q9BjOFOuMpNzY3II1a9YND49YljyjOzvb210bfPnMjy8rLbGoyljEhj7mvPUzIiACiUVAQj2x1lNXIwKeJsBmvaOjI7eDZr2R0XE3isbEHVQtOb+Ik0dbMdSI6SH5EOmxzqu+gVK3aEhMId1HZjv/TFEebiLNzEz37ACf5xTq9Guz2fKPj59s/Y6Q2lNeVubev3uDhssGq6rTDuL3IZ58esB7gilAi8srlgLDgUi0w5RiUmlFRQWaS1vgW69zJUVF9iTG0798OjkREAFfEpBQ9+Wy6aRFwH8EOIb++ubarW9sIt1lCSJvwk1NTX8fnPMSdoIuGyzDrOp4TAG9vsY0VFT3KTw5jZSbBQrMfFg3aG/gVFKvVkmfU6hTuB5i8NEXWJa40VpdW7e0l9d9fWgCbnQBJPYwvjDF70r9+68YK+vcWFKs835lbCM97OnoZWiDUG9uCiJKtMYV5Bd4aiiW//4fQmcsAiJwGwEJ9duo6GsiIAJRJ2ApL7CZzMzNu+HRUQw4WnQbG1vwo9eZ5aUdVoKqygpYTrJi3qDHainFLptIT743kaakpkCcZ7gCNJEyfi8Vf/ei7YUL85xCndYlNt4Oj4zCtjQB+9KMbbY6YAdhhZkJMBnw9qciESVRDg564oZuCtfKgUiMEeVTBQr0YDDguvA0qKKi3PzqXt3cJcpa6DpEINkISKgn24rrekXgGQhQGHOw0cbmtkX7DSJJ4whRiLQWdHd2mrirrYW/GVMg09Jin7LC87m4uEQT6akNOuIkUlaB2UTKtBdmp1OkS6j/82Zh9j0bLSeQMU6P+gg2XVdYx8ZAwHWgwbIPA5AykTGeSAOBeM3caHIAEu0vwyNjbhYbTjaSVpSXu472VttwVsIOw6dBEuv/vG/0FREQgccRkFB/HDf9lAiIQIQEKIr5sbW97SanZswuMTI6ZpXzkuIS9w5pIaymFxbmx20EfSjV48LtHx5Z6gtFGNNeclDNZzU9C2LLy8dzVtTJhbzm5hbcBKwgX/r7kUF/7CoxvbMbsYXv3742hkzsSaSD9/Ah+iv29vfdHx8+u8HBIZsDwGFInJ7bgv6KjtZWbPRy7QlDIl27rkUEROD5CEioPx97vbMIJAUBirpDVM/pSx8cGnHL8PoyNaQa+du0vTAznZ9ZiYxHJjUF1yUSXmh74XnRyuHQ5UrLjUUy4jxi3cj61IV/bqHOJyGM1mRV+Wv/IDZhW7bR6ezocP/69b0rxJAq5qkn2nGBtCLaYCYmp23TubS8DL/+gV0rp+kyX72ystwGdXn5iUyirYuuRwQSmYCEeiKvrq5NBJ6ZAEUxp4+urW9A2Ey7z19QfYU4ZqMhG/E6O9pdPXy+paUv43amrKazIZKxjMdIfOHfaVWgSKfthZVgr9s2nluok9nW9o5bwqarf2AQn5fNQsQnI//rv36zVBSKdevQjdvKxu+NuNFcXllzQ8PDeLIw73YRWVmGe7gXtp9GVNeZXMR7KB4bz/hdtd5JBETgOQhIqD8Hdb2nCCQBAYp0Vh/39vbcJHKoZ2Zm0Xg4h0bDdMT5ldo0S8Yx0pdOr2+8Dqa9sBmSTaTcRMCJbueUk8OKeo41QXrdY+wFoc5IyzUkvgwMDbt5ZOJv7ey4IOIZf0FMYw2GVXGNX7zwbkPuU+435qvvwwJDK9f0ND7m5mzzWVVViYmlTZaxXlRQgKjPXM/2OTzl+vWzIiAC8SMgoR4/1nonEUgqArRH7OzuWgPeyNi4W1wMJWWUo/murZV56QEbx06bCRtI43GY7QVpL6zqs6J+gamkqXhv2l7Mn47PfrAsPLdQJ0dudFhVZ2Mlk1/mFxdddWWl6+vtthQfJqJww+P1Tc9j7jtePxtql5ZX3czsrBscHrUNKZOCmCXPp0W1NdXw7ZdbVT0RGTyGm35GBETg4QQk1B/OTD8hAiJwDwFmptP7TQHHqY60vewf7JutpKWpyb1+1QurQCmmWBaakItXuooJXJzX0dGJWTWurtFEiihBNgBmZWXYn6HUGanu6eO5hTrhsPeAVXXmio8jpnEMn7mebWioZEwjGyxpI0qkmMYfbwrrvUAzMnPkRzFd1+JGNzfsXuLThO6uLrBoRiZ/rvVf/Piz+rMIiIAIREpAQj1SUvo+ERCBiAmco1LNhIwBJGMwwm9lddUq1cxJ72hDhB+GG+U8g4A5RyQj/enMxOY5Io/GGgELCvLQQApvOoSl10U6F8ELQp3nwbSXGdiZRiHUudZZiLWsr6uz9BdOmk2P49MSnk88D3s6g03fPvzp8wtL2JDO4F6fwBAtPKXBk4Te3l5Ej7ZbvnohbDB+eFITT356LxEQgcgISKhHxknfJQIi8AACu/Clb2AC6cfPX1FNnzJx/PLlS9eF5tEmTHKkl5mTP+NVSeepw61gnvTT702kl6gI03LDKaRsfKQFxi/TNL0i1E/h1V5cWrGq+uevA4B840pKSvDEpMf19fSYcKdYT9QjZIG5QGTjgVlg+geG3Pr6utvZ23ctTY3ow4BfHQOgquFd5yZQFphEvRN0XSIQOwIS6rFjq1cWgaQjQAF5eXXpliDe5hcWzL+8CuFSkJfn6lBp7enudDXVlRZfF0/RQkHFD6a8sJGUVfUbiMqMDAw4QtpLfn6urywaXhHq9GmvI9FnAk2Vnz5/gZ3o1MR5H6rJr/p6sAEqsEz1RP5FYHMyYxuX8dRoHBYYRlby3i8uKnLl5WWWbBQM1NvfmdUfz81pInPXtYlAshCQUE+WldZ1ikAcCLBaTTvEGATL2Pi4xfcx+aUpGEB1sRm2l1bzMXPEfDwFCz3zbG5lEymF+gUsC3z/7OwcVNSR9oKqekqKH0wvoUX0ilDndFc2DLMP4eOnL24Xf76G77+nu9v19XVbMyV964l+cBPIqjotXrz3h0dGrUeDzaXtsHqxss6nSAXYuPBrOkRABEQgUgIS6pGS0veJgAjcSYBCJZStve1WkC/NlJep6Wmzm1Cc0KvbGAw4jlhnwkq886Up0i8vr90Bmv+YVsLzpRWBcYzZ2Zk2iTSeG4c7QUb4D14R6lfgeoyNGaeUfoBQp+3j8PDQ4gm7OjuQgFJvMY0RXpavv40b0kPcX4uLSxZDurC4aIO9ysvKXG1tjTWW0gLDOFLrhcBGUYcIiIAI3EdAQv0+Qvp3ERCBewlQCLNKzeQLpoCwqjiHx/811VUQ6EFLealDXF0WplU+RwoIJ5GykfQAKSXMwOZGIQsTSPOR9kI7Ar3qEur3LvM/voEbHrJdXFpGP8IXW//1jQ3H6E1GFLbDn82YwmQ4yIIfOzu7Zgf649NnNzI6Zvd7cXGR6+hoQxJOowtgCm9WVvw3q8mwBrpGEUhEAhLqibiquiYRiDMBDg5iA+kkRqsPDY+gkrgNC8yJ62xvtcFGTY0B+NKLLQUk3oKY4un8PJT2cgjry9n5mcUwsrKfh4o6BzDFu8L/1OXxSkWdbGkrWl1bQ+rLMCrJs+bPrq6qcsFgwL1CpjqndCbLQR6hZuVj9xUpOKMQ6sya59OmqqoK1wyhzicNJRDuOTnxG/KVLPx1nSKQiAQk1BNxVXVNIhAnAhQm/NhFysXi0pJV0kfgz0XACqqG2e4N8tKZqc3x6hQm8WwgJYLQ+YXSXo5PzmB7OTHvcA486Tmo7tOf7sc0Dq8I9fBttrm1BbvThJvA05TJySkkvxS76upq9x5TSlsxqZPrHu8NWvjc4v2ZovwaHxPgwA/693cg1jMy011DfT2abHutoboUKUjJxCXe66D3E4FEISChnigrqesQgWcgQFHCBJWl5RVMZxyxUfLLKyvwJYd8uUx5aURFNTOTgjj+9hIKdaZysIGUjaS05/BrrKRTrDP3m1Ycv4lIrwl1Pk2ZnZ23PHU+UckGV8Y0/vLLe3uqkmX2orRnuEPj/5a2OcTbbmHzwmFIZgObX4AlZgf+9AKLa2xGdGMTPthUnY5eCR0iIAIicBcBCfW7yOjrIiACPyVAQcJ4vp3dPWue+/K1H3/esUFCnErJ/Gh+rqwoNyH8HGKYIp0TJGnDOcQ00m+IZGQVk970HFhfaHvh3/12eE2oc7jV6uq6G4bV4yvuAz5R4UboNwp1ZOczp569AMl00A7GnoipmVk3jWFIM7Oz7gb3Y2lpqWtpbnTtsIUxwrEgP//Zfj+SaT10rSLgVwIS6n5dOZ23CDwjAWh0i+Fjisrc3BxytKfdKJJeeBQVFpkIacco+dKXxcgoz3+2M7UmUkwgPYLlhdNIU1PTbNBSfh7SXtDQ9xxV/mjA8JpQtx4FbNiGR8bch4+f8JTlzKWgYff927eYUtr+p/UpGtful9fg0yY+weHgrwUkwTCycWNz0zaybLDlQKRAMGDNtrRfPUeTtV9Y6jxFIJkJSKgn8+rr2kXgkQQoQg4Qw7cOEcIhLxzwsoLH/CWoEAYw3KW5qcksL2zY5OP95zis4o+kF8YxniDfneKR50IbBoccZSL1xa8eYa8J9UsI0mNshkZGxyHUP7s9WGGYsf769SuL5qxG+k9Bft5z3AbP+p78PWF85cbmlvnVZ2GBWUJCDp82lKGyzqcNLfDws6rO35XneOr0rID05iIgAvcSkFC/F5G+QQRE4O8EaCdZWllFNZ3TR0OVQn6NCR+9Pd1WJXxOywvPlyLp9PTcstMpGjkxlWKIH2wizcBo+xcv/Gd74bV5TaiHcuovTYwyppHe7P39Q9eL1JcuiFHmqXPw0QuefJIdvA/ZH7GM35cxNNv2DwzapgY+LAyF6nW9XV3WXMoIRwp1ifUku0F0uSJwDwEJ9XsA6Z9FQAT+SiBcPaXNgakWfKxPoVb6Et5bTGDsRQNpIZrm8nJz//qDcfwbq+mhJtITCMYjd4VpmTw44IhTSFlNT0dzq/OpdPSaUKcY5T0wh4oxm4pn5+bNs97W2ox7otmSX5j8k4yDfngv8neGT6BmsbEdGhrGBNM1t7m97epray0JhslItbXVuDdzjJHdrPofERABEQABCXXdBiIgAg8icIRH+Rwb/z///mA50RQghZi22Nne7jrQIMeP584lp3C8vLpGA+kxbBj7VqXkOdF+QaGelu5vT7DXhDrFKD9YNZ5C4yT7FdhEWV9Xa09ZWFWvqqz8PujHn08xHvRL8rdvDvNZW98wqxg3uONTUzZ0iz0dr1/12eTSUmxm2DuhqvrfAOqvIpDEBCTUk3jxdeki8BAC4aopxQbjGPkIn2PS02EhqUFmdjce4TfU10KQVTx7kgptOKdoImUDKW0H9KIz4SU/L8/8wampKS7FxyPcvSrUOdxnaXkZ98aQJcCUlZbABlWDe6PT1dXWmBebVfVkPCjWra8Dvz/MVp+YnHT7SIXhvcq4xmYkJAVgHWMGfWZGJu7ZZDQKJeOdoWsWgZ8TkFD/OR/9qwiIwHcCjGLk1MXp2Tmrms4i7eXg4ADxi5WIYQy4Tkxc5BAXZpQ/Z0WQgohpG8xOP8GQIzaRcjNBu0s+7Dihpj08TpRQj+q9bUIUwnMLeeEfP32xmEZajcqQqd/b0+WCDRShJbZhiuob++jF2CtxcnriFheX8Xs0a1aYtfV1+71hEgwtMJzqytjGdDz18fM96qNl0amKgKcJSKh7enl0ciLgDQIUYRxqw/QKetPHxyccI/koers7OzG8JWiVU7OVPGPFlPndrPyfo5pO2wuHMdEfzKQX5qYzbYN53j7W6HZDeK2iHr5LuZFjyskfSH75+PmzrUVBfoHr6+2xinFlZbnxD39/sn0OP5XaxwZ3Z2fXfcVTqVH8Lt3A35+LTWRjMOiaggEXxAf96hTrOkRABJKbgIR6cq+/rl4E7iUQ8ntfuRX4j2c4fRL+4xlU1dkwWoPYPfprG+rrbOric9sauKGgiD2FQKdQv7i4cN9uvtmGgpV+VtVpgfH74VWhztx6Mv/05av79Pmr29vfs+z6vp4e82DTsx56opHctg4+8eETKrMIYeO7vrFum0tGNgaDAWx+Oyx7Ph89Faqq+/23VecvAk8jIKH+NH76aRFIeAJ8XM+M7MnpaTc4NOIWl5bczvauTR5tRaoHJ5CWl5Ui7pC55M8rwMLVdMYyHsKffo20lxREMNKCQaHOCiWHHPn98KpQt5hGeK6Hhkfd4OAQ8vUX3RkEaReeunS0tVoqEKfC+nEabDTvGW4oea8yMYlJMGPj44g7XbHJpbS+vOrrQaRlnfV++DXrP5q89FoikMwEJNSTefV17SJwD4Gw79jSKpBUMTwyYgOE+GO0MzDhhVV1Th81QXHP68X6nxnJeHoaGnBEjzqP9LR0CPVsE+rWRIrGUr8fXhXqYWvHpE2qnXAjY2NuFxNL21pazX/NAT/MU5elI3QHkg2nlQ5jUBSfUq1vbFisKZtLWzEIqRVxp9nZ2Taoy+/3rM5fBETgcQQk1B/HTT8lAglPgCKdFVJOHx3D9NEpiK/JmRkTvGwapeWlFRnZnKpIS4kXDp4vLS+cRnoGn3pqSioiATPh9w3502kjSAQrgVeFerhSzEo6k00+wwLDzPAAGkn55KUPTaUvX5bYmiTCOjz1nqdNiJ5+RllOToViLWmJKSkuticQrKwX488FBflPfSv9vAiIgE8JSKj7dOF02iIQSwLQ6N+HtBy4WfjSv/QPuE00klIEh7OxOfq8prrSqn3PnZtOFma7gEea50iPOptIMzIybGORnZXxQxPp89pzorFuXhbqvD4+gVlcWkbW/h9uBulAFUh+aW5udm9f97qK8nKzIkmohxqfKdY3t7Zt0i+btJkCw1hRcgoG6tFgGsDvXJ1thp+7ByQa965eQwRE4GEEJNQfxkvfLQJJQeAGDZj0pbOBlPaF3z98clcQwcwh70FVtLurA0KizBUWFHiGBwUPq+hHR6fWqHfj0ESKanohqpGZaCANedP9L9IJ3KtCPXwz7O3vuw08ifl//t//H09jJnDf5CIjPOB+ff/OVWNzV4D7xs859uHrjMZnPoVgcyltMBwWNQmL2Rg+UmHR4r37Ck+uepBDz+btHNhgtMGJBnW9hgj4h4CEun/WSmcqAnEhcAPhcArrCIfX0Gs8jcfyzEzPg0jnYKN2NgU2B1GpzjMLQ1xO6p43odhhFCMr6fSms5qeAtsLLS+FSM7gJNJEamD0ulDnkKnt3R33f/77d0sJonedvQzv372x6nAZJnAm0nrcc3ve+8/h3gr61fn7xqbt/YN9JOhcmr2MFrMGVNXL0LRNf7/Y3YtU3yACCUNAQj1hllIXIgLRIcBJifYoHhMmmZm+urZm0z1rMGGSA1kC9fXITK9Chdo7goGbi+Pj0IAj5rvf3Fyb7YW57gX5uVadRCkyOoA88CpeF+pcA2aF//HhsxsdHXN7+DN912/fvLKccIr21FQO9PEATI+cAq1b7K3gtN+BwWGzDq3gd6+qotxmFLARt6GhHhvmXCQs+T9i1CPYdRoi4HkCEuqeXyKdoAjEjwArn4zTG5+Y+l5Nn7Hqei6q6Uyg6OvpthHnbCDlI3gvPIYPN70eHp2gmn6GKuS5nVd4wBHFeqJVIL0u1GlDOoLPur9/ENapcbeM6EEbjgULB3sbmjDYh/0DTOHRESIQvo+34FefnZ93E5PT+D2cxL37ApaXHNfd3WnVdW5y+HRLexzdOSKQHAQk1JNjnXWVIhARAU6WZCWUzaPjSHphXBwneQZQyWM1vaujw+wu6R6q6LESSeF6cHhstpdrVNPTUe1nbnp2dqZNJfXChiKiBYjwm7wu1Hl+Z6iq05/Oj4mpKYeHHo6xg7ROdXa0oX8gy57KRHjJSfNtTIEJ285GxiYwwXQbkaNnrqkRU0sbG9GU22jDkDhtN9E2oEmzyLpQEXgAAQn1B8DSt4pAIhNgRY/VPMbpff7a72bglaXXu7Ky0jLTmUBRW1ONKmiqJyrp4bW4hFWHXl4KdWaoU5QzLpKNr/ycjgFHEuphWvH5zHuJFipmg7PPoR/Dj9icXF1ZBZHe7t4g/SUnJ0cWjluWg9z4VIu/h3PzC8aPg5EKcD9XwAbT3g4LTH2tNXPLAnMLQH1JBBKMgIR6gi2oLkcEHkOAgpx2hfkFTkqct0fum1tbljoRQFoHLS+VlRWuCMkTXhK9FIQU6Ux7YSwjq7is9jPthV5epr14ITryMWvys5/xekWd584nHctIDaJY//yl3+3s7tpgLAr1X395a/n7rArr+CsB3tPXsKDt7x+47Z0d6xMZRwrMOTahtAvx95GRjc1NQduMZuAe1yECIpC4BCTUE3dtdWUiEDEBPm7fgzDgYCP6Ypk+cQOh1YjH7fQUt7W02NAVL4kCChp+MO3l5JRpLyfuEqKdA45ykPaSi4ptoiZk+EGos99hY3MLzZFLJtTZlOwQmdmBivD//l//csWYUMo10nE7AT4p4gZ6GM24o5hcyibTo8MjV1xSYkKdw5DKkU9fgFQjL22eb78afVUEROCxBCTUH0tOPycCCUCAaSkU5Jw+SkE1isa/6dlZVKIzXenLUtfV2Wb+dMbCec0Ty6x3ikEmZbBx8RxPBPh3etPZSMrmRa/ZdKJ1y/hFqO/u7ZuFo39gEE9rFmFPOnTN2Pz99ut7pJlUoDG5BCLTSWjecmPY7ybu51VYYBaXVrCJHndLSGLi5FL+bnZ2trsgekfqamuwIc34PifglhfSl0RABHxNQELd18unkxeBpxG4gkin5WV6Zg6P2Eet8W8RYqClqQkjzNvc61c9rgqWF0Yxeq1qR1FOwUrLC3O7aRdgc10+4hg5GIa2l0RttvODUOfTDq4Nn84MDY9aPjiFZi1iPt8hppENyszl5xox2UTH7QToVz84ODSf/wiq6/Stp6NPJAgLTEd7mw0fy83NtY3p7a+gr4qACPiZgIS6n1dP5y4CTyTAUeX0wTIKbmh4xP7MDOze7i6zKDQG6+FLLzQx5TWhTrHKKvoRYxlxHSmI+kuDPz3/e9qL5byzXJuAh1+EOteHEzdHkV4yAZ/11MwMqsElrruTMY2N8Fs3uDTkqSum8e6blGvN3gtGNnJDPT4x7g5hgcnKzDJ+nRDrVVUVSIIp/b7pUeTl3TT1LyLgPwIS6v5bM52xCDyZAKudrEgzBm4OlgQbW44YPQomThx9/brPtbW2uNKSYni+szxXTYfVGSL9EpNIzyySkZNUM5DwwijJvFxU0/FnjmD32ubiyQv3/QX8INR5qmwoPTw6QnLJjD2tGcJTG26kmvjEBgKzrbXZmn/TUCHWcTsB/q5yvXcw6ZXNuSPwqy/jycTO7j486qWorDdYHwlTmXj/eyk69fYr0ldFQAQeQkBC/SG09L0ikCAEbAoiUiToG/46MIT/8K+4TVgUqmFFqK+rtZzrBnzmf/hZmfbSAd1iTaSnaCKl5eUciS8Xlxdmd6EvnY2kjK1LVJHOtfCLUKfIZA/B/MKCG0Wj8lfk87NvoKaq0vX0drseDEDKRJKJ1+4xL93vPBduqnmf7+3vu3lYX6ZmZlFZn8K/fLPkl67ODmx8Wl1p6UtL0/Ha+et8REAEHk9AQv3x7PSTIuBLAvyPPivRW9vbZnlhdB6rnpxIw2E0rKQ31NeZRYFi12uCl+Lv+vrGKukHsAAwd/obGkutiRRTSJn6kobs9EQ+/CLUuQZM5VlB4guF5afPX5BkcoHYz0LH1JI+fDD5RTGN99+tvO/Jchu/t1OwwHCDzSr7GTbcTGZqaW5Gdb3estZZVecTJR0iIAL+JyCh7v811BWIQMQE+B/7C0S+7e7tWXPfJLzpY4hjpFBi1BszrmlHKCwoQGU6O+LXjec3cqNxeXkFX/qp28MUVdpgwk2kubBVcCpponue/STU2ay8iUFaU9OzJtQPsGYvICJ70AdBsU7PekF+fjxvId++Fzeo5LmyCgsMfP9zmHnA2EbONyjD7283nlAwY519JbR/eW2T7VvwOnEReEYCEurPCF9vLQLxJkDLCx+fc+ohM9MXYH1h1nVFeRl8w42hBj+kcdA64lU7AkUqbQDMTWdFnSKdFcQCDDjKgT89NSUVX0vMJtLw/eInoc48cA7vmZ2ddx8/f4Vo37TmSHrUaX2pra2GWH8ZvjR9vocAN9ts0F1YWvrT+391dYnNaZrZX5rxe8xknUKId25aJdbvAap/FgGPE5BQ9/gC6fREIJoEOECF00eZlc4kjh0kvvBoQrZ1b0+Pq0Z6BBvUvPofd4oUVtNP8Lj/5ISNpCcm0ulzDsUyhhpfvXr+0VpLPwl1bg5PrR9iCUL9i1tZWTGhyY0hI0Cbkf5SDc+6jsgJ0ALDyMbJ6Rk3NDLi1tbWbTPE/hI2l3Z0tNkk4dzsnIR/uhQ5NX2nCPiTgIS6P9dNZy0CDybAKvQhBs4MjYyhEjeF4SkrVnmuLK9wLS1NZnvJx5RDL0+L5BAYXgebSNlMShsAG16zszNx3vCn48+JLtK58H4S6qHN1SUE+hp81QNudm7BLcO6UYvGZW4Qe7o7LVP9wTd0Ev9AaP0v3Nr6ulXWGa/KJlPaXUqKS1xbWwuGITW4mpqqpPmdSOLbQZee4AQk1BN8gXV5IkACFEv7+4c2fOb3D5/Q2DeJavSxq0D1vLe724Q6RRNtJF49eA0U6qenZ1ZNZDwj/er00odFegaGHCXD4SehHl6P8OAjRoFOzsxa9Gdtba17/+6Na2tpDn+bPj+AQMj+dei+fB1wA4NDsLUduBQ0gLOq3t7a6rq7O8z/z6QdHSIgAv4kIKHuz3XTWYtAxAQo6uhhZQWdtpdhVNRZiWP1jekur3p7MCGyyqLdvFyNvkGyC607FOqceMmpqi9epECkZzk2kWakp3nWVx/xYkX4jX4U6js7u3iSE2peHkNmPzdY9Kb/9ut7x6E9HFalpJIIb4Dv30b/P58qTcECw485PK3Y3d11eXl5rg42mN6ebldZUe6KigotFpMiXocIiIC/CEio+2u9dLYi8GAC9Adzcuc4K5kQSsxM51jyqspKx8azHlTdiouKbLDRg188jj9wjer5GUT6CT6O4U9nnCQbXnPRQMoPDs3x8hOBaKLyo1DfR9rL4uIy8tQnrPpL0ZgLQflfv/2CtJIOs1xpWM/D7xI+aeLTChuGNDKOzfi8ZdcXFRe7LqQ4BdAcXldXYxYY8X04X/2ECDw3AQn1514Bvb8IxJAA/yO+jemjrKBzKiSFOkUe4/AYxRgMBpAQUeWyMX3U64/Hr66v4E1HEymEOkeqM92FTwUo0lmdpfDz8hOBaC6zH4U6bRqbSBjiZM1PX76gEnxpG63ffnnnujs7XUlJEXoNvBkJGs21i8VrcTPO5lJ61aemp60PgE28FaimczPe2dkG73qxYjBjAV+vKQIxJiChHmPAenkReC4C/A81rSKLS8uWmW5xjItLZnFhOkQPHovX1VS7goJ8q0Y/13lG8r6WnY7H/IeHaCI9RRMprot+9FwIOzaScshRsoh08vKjUA83M4+MjbsPHz87VthpX3r3+rVV1KsqK5DckxfJ7aDv+RuB0GwB2NuWVtwMYjCZBMOBZjxob+vsbHd16Acg42R68vQ3TPqrCPiSgIS6L5dNJy0C9xNg1ZnDZcZRZRsaHrEhKcwdZ3Z1OzzBzWgeLSkusnhDr4tcRjJa2gssPLTt0AbDpwD5eTk2gj5ZmkjDq+5Hoc6NI9eQjcwfPn126xublkLUhx6Jro4O19BQa4N6vH4vhtfAa5/J9xC/3+vrm7AXTbq5+XnYYZZt80ORztz6VjTtMtWJT6J0iIAI+IOAhLo/1klnKQIRE7B0FDRe7mH66DIyqynUR8bG3CWsBulouHyDCmZHe6urLC+3JkyvCyNeDwUe4xjptado52TLnOwsPMrPtWvyum0n4sWL8Bv9KNTZDEwxOT0z6770D8CvvmTeagrINiSUtCBPnVNK2Wfg9XsywmWK67fx94RP0PYPjjCtdMksMKP4vb/Ck6gcPHni5rwdufWVFWWhDRE5x/UM9WYiIAKPISCh/hhq+hkR8DABPgbnf5yXkVtNP/AMhhvNLSygYbQQ/5GuwNj2XsuvzkNSih+ayyhAjk844CjkT+f18bzpTS+EVSIZhZ0fhXp4A0kROcJ+CaSU8M8cec+hRxTsTCjh2iqd5HH/B0PG9P7vYpM+MzvnPn/pR1/Apjs6PkZkIzjDr86M9VpY3miB0YbocZz1UyIQTwIS6vGkrfcSgRgToIhl9ZnV9KmZOdc/wGzlXTRfnuM/1A0m0IPBAKrpZSFBhKqalw8Kj+vrGwiNExPqvDaWAWl7YXY6xXqyJL38uE6+FOq4AK7nOqZo0kc9PDqK5scpNDxWOPZMMPmFAjI3N9fzPRM/roXX/synFrSHra1tGN+FhUX0qSyh4TrHFaOhlE3kjY0BS3riUylGnCq10WurqPMRgf8QkFD/Dwv9SQR8TSAkaq/dAaaPLjIvHU17n7/2W5rLS/wHuq/3/7J3Hm5xZEm2v408RgiBDMJ7DzLdPT1u9+9+3/fWzNvdb3a6W0IO4T0I740wMu/8oqiWaaSRgILKzMjuElBQWZnn3qw8N+LEiXa1Fm8OfI/veBQ2SDoFh2hviajjG33+/IWQj9OLSEbSikjTYxZFos6xv9N/KyurYWZmzuQvz573qM4gL9ySDKujo01WglXmTpK0moP0uJ7k143NTZH1BSPrPSoupV5lT7IxiHpzY0Oorq40rJHDeWT9JJH3fTkCJ4uAE/WTxdP35gicGQJE062YbEGRtIEhWbSNS1owHYqvF5mXcnNTo0XSiEZHQfICkPuykkRbTxEsjY7YLl68aEWkkPSkkoyoEnXGDxnG6upa+PXR49Atm8Yc2WwWFhbaQpLuuLeU7bl06RJ/6tsxEEACA9amVx8alr/6ZJidnw83b9xQ5qJMhaV1lsFIF5Qf4638pY6AI5BBBJyoZxBc37UjcFoIEE0n2jw7N68b8kTo7e0zVw3ILQ1P2mTPVl1ZGUpLb1v0LCoRtF2RjZ2dPfmnb5p8hwZHV0TQ81VEekn2jEkrIk3PpygT9V110nyl7Mivj7rDr3J/wRf/soj53a4OcyUpu3NHlpuX06fqX4+IgGXYVMC7uLhoTc7oo0DTs3M536kI+6pp1VkYVcu+8YpkMV4XcESg/WWOQIYRcKKeYYB9947AaSCALhVpSJ+s72hqNDo2ZpHoAjU2wpKN7qM0POHnKJB0SAYbTi8sNnB7IUJIFD03F306hbDnE6lPB5coE3UKnVmAUT/xWO4vc2rGhcSpE2kWWZ+a6shIsxiLbN64jvhcQA7Xo8V7n+RwCyLuXEvUA1Bc2ql+CkWyab2kTFUUPhuyGW8/NkcgEwg4Uc8Eqr5PR+CUEEgTWojs8vJKePzseRiWmwZRNIryamqqQ2N9naW5L0dI8sJ5IeXZ3oakvzrwTn9jBaR0IUWfTjQ9qcQiykTd6g5E1nv7B8zff3h4NGxsbli7e5xfkGjROTfnXHYXOp/SJX7st2ERj4RsZGRUTjvD+nwYDfP6fMjVoreiosJcoO4o01Z07ZrqP84ldvF7bKB9B45AhhBwop4hYH23jsBpIACZ5fFyZtb06DQ2mlKTE7aKsvJw726nRc5u3iiJFLHlnCCjuL1sbW6H12/fKDWfI8lLrskiiP6dy3LHmkyOf5SJOmMLWaeGgpb3T589k0xrXo5EtSLpDcr+tB4UlHqE9yTmEIteHssrK2F+flE9FfoN+7W1NRVl51lUnSxGTU2VFsDeDOkkMPd9OAIniYAT9ZNE0/flCJwyAnvofdWBdHBoRA1ORkzygttDyfXiUFdXE+7JM734+vXISQkgojRv2RBJJ1tA5Py8pC50IkW/fEFa9aRG05liUSbqaeI4/XJG3TMnw//+/IvVVVRIitHY0GBa9ZsqKKVJT5LH+KQ/SrBo3VJx6bD81fFYH9WD566pv0JNTbXJjkpKiq3fArg79ic9Ar4/R+BoCDhRPxpu/ipHICsQwOWF5ibY3KFP53tILLr0Bj2a9EDPHSWvcdTpOL0YsdgWUZfGFpeay2p7ni+iTuFhEpscfTjhokzU0+exuLQcZuSp/h9/+6/QPzAQbinrU19XFx7cvxtKb9/SWKeaWaX/3r8eDwEWSFidLi4uyVd9OnQ/fqoi02mTleEC0ybbxmr1WqgoL3MJzPGg9lc7AieKgBP1E4XTd+YInA4CKWnIayM62K9RJEb3UZqa4ElNu/AqNZHB6g6SG5XoGCQdQgFJ35Y2nWLS3b1da3BEJD1PhaTWuTLBshdmWByI+vr6RoCs/+2//lsddPusULhSmukfvr8v2VaZFThGaYF5Olf+8d6Fa2tLi1/Iel//YBgeGZVkblJZqiuh9NZtc4LBtrGw8Kot8I/3bv5qR8AROAkEnKifBIq+D0fglBFAFvLq1SuTvGC7hsvLwtKSIuiNoUnNTFpF1G/cKI6ckwNEgkUIRaRr65smf3mjn/PVoIkmR7i+YNGY9C0ORJ35u7a2Hv777z+HHtVW7OzuhNvqUvrj9w8U2a2U33eqriLpY33S55+6vl6pluWlkfVH3U/M/pTi7LbWltAlF5iK8jsBGYxvjoAjcPYIOFE/+zHwI3AEvgkByCzRSArw8EXu7e0314y3ev5eV5e5ZpTfKZUVY0o6EJVoOiCkCg1TRaRra5vh7bu3qSJSSV7y5PZCx8qkeqd/OEniQNR3d3dFELfCLw+7LaK+pOg6c7ars1OFpdWhqrLcsycfDvoJfc/nBwv9NXUqHZ+YMtkcEiQ6xiI5qlQmrqWlyfzVaTzlC+MTAt534wgcEQEn6kcEzl/mCJwFAtxk8aGem1+w4lEKSPFNx3oRn/TvH9wzfXrh1QLr4HkWx3ic98RKLtVRcVtEYsO06GjuIXAQ9XOy7HM5RDykL/tqZ09U/Zmi6b2SbtE5k0VYU6OyQqqtQILhGZTjXE2ffy2L+tci6/OSwAypEH14ZCSMKCtn11p+gRX0NjXWq7C0yIq3/Zr7PJb+G0cg0wg4Uc80wr5/R+AEEaD7KM4NI6Pj1ixmVs1iaMeOtrdKHUixtyOafhH7QpGeKG2pRYgaN6nBEU1aaH/+vog0z7zT3Y0iNaJxiKiTPaFoeEDe3gPKDPW86AtE2avUKRMv9Y72NtNJk0Xx7WQR4FrjwTWGXh0XmP4BFaPLwpHrr6G+VlmNmlBTXR1KiiWhUyG3k/WTHQPfmyPwtQg4Uf9apPzvHIEzRICbKsQGq8K5hQUjNt2Pn4jY7BmZbZVjAxGwdOOSKBJazpHzwTvdikhF2ki9X5EuPU8adVxfoiTjyeR0iQNRD6ocJoMyMTUly8DR8Kj7qRadq+G67ESpsSA7ROMjouq+ZQYBsnPYu07JBSZl7zoepqZfytK1KJSqCRLZDVxg+JnFv19/mRkH36sj8CUEnKh/CR3/nSOQJQhA0pEJUDCKZzrdBXFswJ2BVuAQ9Xr5pmPFGMUbqi1ERNRxe1lXESnyF0gcTi90IoWse2T1/WSMBVHX6TCv5yXjGpdz0a/Sqs/Mzpommg6lf/7jT5JzXbPxf3/m/t1JIpAOAJCVo1spWY3+/v5UAECZDJpQ1Suy3qDuxgVaNNG51DdHwBE4XQScqJ8u3v5ujsCRECDyRYp6QpEv9Lw0i+HmWkHhV3NjoLMgDWOQu0QxRQ1hQNbzSml3iDp+z2q5EnLl9MLi49LF817U9sHMiRNRx/v/pebzQ7mPoFNnQQox/Muf/yhv9Ru2GPVI7geDn4Fvd5S92lYmi14M/f0DYVL+6hsq9L0p/JHA3O3sMBceMls+FhkYAN+lI/AFBJyofwEc/5UjkC0IIAlBRzooPW9f30BY39gwyQtWjF0HN1Gij1G9iRJZNe90EXWkL+/evrNFBw2OeLAAOZdw7/QP52JciDoLtJSD0Vx4/LRHc3zE2txXV1WFP/30o2WLbsimkcVnVOf2h+OWrd9z/fFA9jI6NqGxeGbdYi9J7kL9y/ff31Nfhgoj61EMBGQr7n5cjsDXIOBE/WtQ8r9xBM4IAYgMUebVtTWzsEPy8nJmNlxQWrpMGtL6+norIMVnnKYlUdxocvTm9RtrxEIhG4Q957sck7oQwaPJkRO1j0c2TkSdCPrS8rLJLgYGh8PY+Lj5qd+/12XFjN4p8+Oxz9RPfNaQpUNe1/OiV9K6MasZ4HOltqZGjyrL3OXn5ZkkLVPH4ft1BByBjxFwov4xHv6TI5A1CHDj5LGoGyfknJbfY2Pj5oxRWlqqSHp7qJHTS7mKvaJMZDlHZC/rG1u2KMHjGbeXXPTpelBM6NHUj6dlXIg6Z8V4r8vTm06ZvZJd9Olx9epVSbqaQrMyRvV1tTYfXB/98RzIxE/MK4pLyd5h2dg/MGQZjytXck2r3qlmSLdv35ATzPVMvL3v0xFwBA5BwIn6IaD4U45ANiAAgTHJi8i53Tjlmb6yuhIK8vNDrYq87t/ttO6BOGOwRZXMQg529+T2Ik3sjiQ+b9+8DZcuX9R55llnVS8i/f1sjBNRR3KRshwdU/3FYHjy7Lncfi7IprHSOmW2qVCaAukLF7wj7e9nwsk+w1hQH0KGY2ZmziwbkcNg21hSUmKLpprqqlBdVSEXpku2gDrZI/C9OQKOwKcIOFH/FBH/2RHIEgSwYlzf2AzP1RAGj+MF2TKyVR74THd1yGdaaeioEnTOhWj6rhxekLtwvixOdEIWSb+qJkfnRc7OR8wPnvPK9BYnog5WO4riTk5OWzHjw+7Hcvx5G26IGHZ2tqmQsd1kXeilfcs8Apbh0nW4urYeBoaGwqDkSBSZktG4efNmaGlqtExHkWpiCBr45gg4AplFwIl6ZvH1vTsCR0KAm+XCwqJJXp4+75Ed44gR8iJ1H6W9d8rlpcx03FEn6qkGR2pyJK0yET1altOFlG6k1olUxN23jxGIG1Gn0dHs7LyI4bDcXx6r4dW2LDkvm7zrnjJHSGFw//HtdBDgOkQCk+6A/EhjsiZ5Et73uMBQxF5XUy0ZzC37XIryZ9DpIOrv4ggcHQEn6kfHzl/pCGQEAawY9yQFmZC39KAI+oB0omjUb9+6ad1H8UynsVHh1QJzQ8nIQZzCTrUWMWKOy8uWOpFC1tjQpEPKKJDNyXGSfthQxI2ok0lZWlpW46MxNT56EpYlvcBHv62t1SLqtxTJvXat8DAo/LkMIYAEhizX+ORkePLkaZiUNeyCLGJvyoWnvKw8dLS1SIJXbQsqFtdO1jM0EL7bxCPgRD3xU8AByCYEVD5qfsbL0oRSyPW8p1f+6Yum4e7q6rS0c6W802l0dCHiN0eidkgckPdA1CFrFk2Xd3qunCZocuQ3/8NnZ9yIOuezsblpPurdit7S+Ih5QSFpqzJItLIvVfTWt9NDgKweZJ1F06jqZIbkAjM8PGwLKIq9O9rbJYGpN4cemiGxqPbr9fTGx98pOQg4UU/OWPuZZjkC3BjfiLxCzMfGJwJWdQPShn4nD2m0oLRUb2xosHbecXBCgZzt7+P2smmyF87/4gUVkRbkKap+Ud9f8Bv/Z+Zs3Ig6izaa7kxPz8jD+6kI+5RkF/Nq4lWm5keQ9WYVl1Z8Bg1/OpMIbGsRvbwCWZ+wWhnGZW19I9SqqJQFFFKYWzdvWAdZ+h345gg4AieLgBP1k8XT9+YIHBkByMqeosp0Z3xCw5HxSXUgfSmZS6kVkHa2txlZgaTH4YZIBB1Xm7QtI+fEuVFEitOL2/F9firFjaizSGP+z87NB6vJGBm1xSqdSSHo9+92qWdA7ecB8d9kDAHGBTke8ju81QcGhyRRGrXrlM6lra0tIuyV1sXUC34zNgy+4wQj4EQ9wYPvp54dCNDwxyKKKqZcXlkNgyqo637yTHaFG5ZmblBTI6KK2NWVFBcbgY1yihlSxobTCw806ntyfrl06aLpXelEihWfd0A0mA79J25EnZNkXtAzoE+Sr0GRQQghzXVuKlr70x9+sKg63WmjPPcPHcwIPMnYrMkFZkHZvl753eNCtbW9ZdcoUXWK2+vrasK1wkLPhEVgPP0Qo4WAE/VojZcfbQwR4CZIdJnuo2NKL9P05fGzZyKtVyyl3NXRbi4L16RLj2r30Q+HjfNlYZJ2e8GaD606uvRcdSG9oiZHRNOdkH2I2sffx5Goc4ZcA0gsaHrUI1tSZF/5kn3967/8WUWlHebbDVn37fQRoLiXzylqZ170DSi6PqyF1bKkeNdVVFpjfR2oI6Cvgy+yT398/B3ji4AT9fiOrZ9ZRBDgBghBmX45awQFt5fZ2TkrniPd31BfZ+l/0soUW0Z9Q4f/Rvp0CkhxlSCtDinH5YWFCM1uotxp9TTGJ65EnaZXM5r7tlh98iTsK9NyXrUKf/7jT7JqbFP9QoE12jkNjP09PkaAxTUPNOpTqiWgvwO1NG+18CbT19rcqEZI6pSsugKyY3H4rPoYAf/JETgbBJyonw3u/q6OgCFAdBnZx5S06HQfxeUFmzpuiI0NdSInHaHsTqlZosUFMkjmvsg5pGxzc1skPVhjIzqR4p2N7MWj6V8e7bgSdbIryytrWrD2h18fdpsTDNmWH394EDrbW+06iHqTry+PbPb/dkse92sKLDx5+lzjpEZsksOcUwChspzC3zo5wTTK977Aikuz/2z8CB2B7EfAiXr2j5EfYYwRIJoOYX3R12+a3LHxcZH0d6G46HpoaqqXj3RLuHa1UOn/vFigYDIfkfQ9FZFuiKRz08fq7bIicETUL6ktOU2OnKh/ebjjStRxAXqlWo2+gYHw8y8PtWhd0hzZCffvdYV2FS2Wl90xa1KfH1+eH5n8LRkwHHqQ6Y3ItpGamtXVVYug18gJpl2fWRTA47fOOPlYZXI0fN9JQMCJehJG2c8x6xAwnbai6Zvyjl5cXA5Pnj2X5nPUbngUZNXV1YZ66T5pKILkBTIbh43zxukFMgYBo/shmvRcHupGapaMFAzG4WQzeA5xJepkkiCCkL9fFFF/qUwTBdZtIuktzU3WDbO4+LoTwAzOra/ZNVkOej3MzMyFnt4+NWebtEVVSUmJZQIpLq2RDObSpcvm4PQ1+/S/cQQcgcMRcKJ+OC7+rCOQUQRoJPJahVnj0qOj87QU8sKCiOr5UC0XhQf37oZb6kRapG6McdFrpxcnr17tKJq+paj6vhqqvA55iqTniaRjzWgdDjOKfDx2HleizhyMnbYDAAAsd0lEQVThwTXB4nV0dNxkYfW1Wrhq8doiHTQdem2eoJny7UwQYIyQ7G1sbIQx2ckODo2E3r4+k+wVKtDQ2FAfmpsazLKRIniPqp/JMPmbxgQBJ+oxGUg/jWghQCR5a0uSl96U5GX65Yw5KuCawE3unrqQovO8qGh6XDYkPUh9KCKlyRHfs9HMKU/dSImmI3vx7Z8j8BtRVzHuurIy58+dN20/HvRkJyLdJVIkcHpmxhavOIzg2V120EuAtvXIXy6rliEOvQT++Uhn71+kyPqeOb9QX4NmHanSjjJmFdKrE1XHVpbxoiDY3Xqydyz9yLIbASfq2T0+fnQxRWB1dc08ox89fmaFcxTRUUzZrPR+owqy6PaHXjtOkSjS5WiQ8U1fVyRO6lUjW3QihaifV8Mjt3X7ugn/EVEXlkSYkUfFgqgLgvmFVHfenhe9itT2W2aptPR26JBVabX6CWABSNGxb2eLAFIleiHMzM6Gnhd9YUQZkMmpKcuSlUii9OD+PcuCUABM0MFzIGc7Xv7u0UTAiXo0x82POqIIEEWGrL5UBH1sQp7p8iOelPylsLAg3LlzxyzOysvLw40SGhvFi4hw3tzU07aM5+SVThQdoo5O3ZvZfP2kTs+j37DUIof5QkEuEqJIR9QFA8115uYXwmNFaZ88fWp2f9dVYN3Z2W469RJdH94F8+vnS6b+kqg6c5HxmpyaDkMjo9as6tXOK5Mwtbe1yQWmXp9tpfqMKwwXNEfjFHzIFK6+X0fgQwScqH+Ihn/vCGQYAQopkbwMDA0rAtVrRVhr6xuhpbEhNOqGhuyFBiJxi6b/pmmV0wuyn125RhBhu6ysQYE6kUIu/Qb+9ZOP7ETafQPN/7kciPo5wxEPa7CMMp6cE25Ivz7qDj//+lDn+kZ1DLnhbleHZZxK79w2K8+vR8z/MpMI7O7JxUlytpGxsfBCkXWi6mRF8FWvrakJbcoUQtZtQa5FpW+OgCPw9Qg4Uf96rPwvHYEjIwBRRaO9IhuzlzOz1t2vX17Re/t7RljRpOObfuvmTaWN82JTQJoGzFLkWqSwKNlVERpRuCsi5zQ4ytVXyKVvX49Aaj5B1lWULJcUSDmyIcg62u0ok3RQoFARORgR9UfdT8xhJIR31p20uakxVFVVGHH/esT8LzOJANfznorj55UFoWHb0PCIZDCjlvW4du2aPtsaAtaNZSywdM1HfX5mEkvftyPwKQJO1D9FxH92BDKAAEQV6QeNjfrVJGRoeNRuZEVF1+Q5fDt8Ly1nnawYcxU1jJvkJU0qtxUlXVnbMGKZI2LJDRtt+qWLFywlngHYE7FL8E1vcSFAKWnPvrJO/eGp3F/GJyfCtoqQO9rbQmtLkzXWoQg5LuebHr+ofyULsrK6or4QA1ZbsCILR7I/1VVVNma49uBkxWecj13UR9uP/7QQcKJ+Wkj7+yQaASKEFFBiY/ao+7EVkm5KApOynauxm9itmzesIDBuBZUsUjh/iPq6buQSr4YcRX3zZcmYKiI9724vib46fn/ykLs3su5M2f6J9PX3haXlFUnEGlVw3ahajuZQVFSoeQPh+/3r/ZmzQWBfUXWaIY2PT1oggvGbl+1soSwaK8orQqdce5DAEKCIQ+bnbFD2d00aAk7Ukzbifr6nigDRTqKDkPKZ2TkrHoWoEwPFO7yDYiul8uniVyBrPaJMcYs0Ic9AcwxR31ajo+8k0bioKLoRdWEQF5/4U51YMX8zFndvRdYnVKBII7CH3Y+sWLG2usaul86ONiu4jlstR9SHlc87HouLS2Fmbk7ZkB4bPwg8jdyaVIuDBKaystwyahST++YIOAJfRsCJ+pfx8d86AsdC4I0Ix/b2dpidmzdf6JGRMbm9jItklFjnvpaWZvMbRq8dx3QwN21u0hsUkb7aNU0+NoJ4fVNYxnnHbWFyrAnjL04hcED4FkT46DHwn//1P6rrGJDGuVTZp/pw/25noOdAup7DYcseBLjmKS7lc48+EYODQ6Zb5zkK5Wlc1a7IeklxsUXas+fI/UgcgexEwIl6do6LH1VMEEgXWGHF2NPTJ8I+Zzcwc0JobTZXhNLbtyNvp/e54aID6545QmxZIxSyCzi95MvphQJSt9j7HHL+PBIpio8h6//2H38Lz3p6wjXpm2urq8MP39+3RjqFV69aRsbRyi4EIOtc+xMTU2F0bFxBigEVms5bdrG8vCy0tbaEqopyk8EggYmb3C+7RsOPJuoIOFGP+gj68WctArpXmRXh4NCQubxws9qT8wkktVka2y6l769fLwqQjThuqWi6vNOlWd2QNh2dOhtFpFflnU7aG5cS3xyBzyFAAemqPLr//T//Zp0vyTrR9fIPPz4Q0asIRbp+vOPl59A72+ff6gNwQwstbBpf9PaZBGZaxfSF6rhcq4ZuSP6aZEdLl1mybL45Ao7A4Qg4UT8cF3/WETgWApDULXXgXF5ZNb90dLZE0/GCrlAkie6jDbJjzBVpRWcbxw0MXqnBEfp0GvMQTSd6hjafJkfeiTSOo36y54TfPou8//n7P8z95ZVqHJBP3L93V5KxKslfbluHUpdPnSzuJ7W3VDZtM4xPTFozJIIVb2Qnmq/OsvV1NfY5eFOWtNdVXOq1KieFuu8nbgg4UY/biPr5nDkCEFSK4eisODX1Ul7QT60QDr/r8rJyNW1pD5WkfWXLGOebExG1TWnTWbAQVaeC9rLkLnnqnklWwdPdZz5Vs/4AqG+gCPmhCrBpEDargmyaY1GE3aDFbo1kMEiozp3LyfpzSeoBYku7qv4Ro2MTofvxEwtYUFxfXlYWarTYosC0qrLCouqeHUnqLPHz/hICTtS/hI7/zhE4AgIUTRH5GxwaNr/0cenTIatFavxRp0Kqu2qDjuQlX42N2OIYDWSxQgR9fWNLmvwdKyK1aLoyCLm5qULSOJ73EaaLv+QLCDCHuJ565ctNNJZGOjxXW1NtnXxbm5pCrhZ+7h7yBRDP+FcELXaUWcMJZlhNkNCsj+lxTjImvPDxxm9SV2YsG8k48rngnw1nPGj+9lmFgBP1rBoOP5ioI4Dt4ob80pG8PHn6TM2NBsKaNLYXFfWrq60NLdJltsnxgILKOG/4YO8rg7CxvmkR0Tdv3xiZ4sZ8+fJF68bq/tefnwEsdL5mizuhAQcyUWPy5Yakc03RjwC5REtTQ7gr95dCySjQOfuW3QhQb7AgvXq/XGAYx2U1QyKg0dXRriZWLcoyllkAA726Z9uyeyz96E4XASfqp4u3v1uMETDJi4gF6fnJ6enw/PkLRY/GLKV7o+SGOR3UVFdK8lJqutoYQ2FdWHdVPLqxsWkFtTnf5ZhkAW06Ti9eRHr46BN9ZB6lHvyNvk//qb5Jff8uKOZoUcecnO9iLZ/i1ImgY286Nj4Rfn3YLUnZvHXwbWluCn/88ftwTZFYaj18y24ETMYky0YWXXQunZicDC9nZkKZPg8rVBjcrKh6RfkdWTYW2mdmdp+NH50jcHoIOFE/Paz9nWKOADcitNgjSusODg6by8HC4qLdiKpF0Ika3b51U+nevFhHjCCZkHQKSWkpTkHZxQsXzTe9oCA3XFDK2yNmv78YIOlY2r1RgygyElB0o+kQdMg7LzGyrs6uSkdQjIsLCs2j2OIaXefcl9WVdGr6Zfj514dWmEh/gmZpm//65z9a46MCRdV9y24EGEcWXdTuUFw6oMg68sDz6i6br2ZvZBvraqtDWdkdk8AglfPNEXAE9NmuiycVpHE0HAFH4MgIcBmRkl9YWJIV42DokR3Z2vq6Eau7XR2mwaR4CukH0eQ4kyqKSK0TqbTpFALSCp6IJ9r0XDm+QDDjev5HnUBpEgNeaLL39l5/QM5F0g/IOvvnb8+reBKCTuMoMAXPuGJq15auJaLqD7uf2AIY4l4ni7+//uVPVpRdrJqPOGNw1HmVba9jLLcUVV9f2wgDw8NhQJ+VjCsSmLI7d4yo47F+o6TY5ExxndPZNi5+PNmNgBP17B4fP7oIIGCRUOloueGMjI6likhHRtV187I0l9fDg3td1o2PZi1xb/ADFkSDuRlvbb1SEWnKO53CWYg6ri8eKfv9pIbAoMXGxnJnZ8/IOlFjnucBU+cLKz++kpW4cuWSkfR8FVPGmaRy/nS5pPHRU8nJiMQim2Dh+9MffgjVcgxJOyh5pub3cyvbnnmtjBHZxynJA5Ez9Q8MhZfyV7+sxTzj2NHeamNbXHzdnWCybfD8eM4EASfqZwK7v2mcEIBgQSSGR8ZkxfgsTM+8lMPBsnVQJJXbLC0tOkwioHEnEqS2sWPblMsND0gWqW206RDLC+fB4Ls4Df+JnAs4gR2ZiB01xUI6xLxCCmMk/a3Y+QFsEHWLpiuSns5U8Ks4Rx/xU19ZXbPGOX39g2FATcSIond1dppNY211lWWqfBF4ItMxozthrjOHyUCSGel+8lSR9QFzxsLBh6J7Pjdra6pNAhPXPhMZBdl3HisEnKjHajj9ZE4TAd1rzC99S57AuBkQ6eOmgxUZGuLW1mbrvFemyF+RoumQ9DiTKbAngk73VUg60eGUhvqiJD+55nftspfPz1BzyhF+uOVA0pG/gOdrLXz4+UOijne4LX6UtSFLoYmV/vXn3yDCv2HBsrm5adcYVo3P5amO7KehoSG0aiHcLAeYVKfb8xE+y2QdOrUrSL2QCqJVn5qaVl3Lq3BVnZqrKitNs37r5g1zgolzxihZo+5nexQEnKgfBTV/jSMgBIgMkcJdkhUjkpfevn6l5nvCVenQ6ZjYJb90nAwodEtCVAg8Uh7yuxYde7WzYzrTXJHJvLwricgoHPfCSLu+8JWoOos+i7Lra5qJv1V0HZJ6rfCq8L2YGIcMcBgbHzPHEBogQd6Qv3R2tIVOeXFjeeqt6I87A0/39cxzOjaPT06Fp097wqQkTVvSq+OM1dnWqr4TNaG6qtKCHHHPRp4u8v5uUULAiXqURsuPNasQIMqJXzpaS+zGpuVKsbS0ZOSBrom0yC6Xg8FF2RHGPSUPSU8XkdKNFMLOIibvQJt+Rd0k0VXHPaNw3AmakgWkdOl7B845aP13tOhJE3VkAxD1oqJUzUNSrC6Rv0y/nDEf7oePum0Rg5Vfp3y4H9zrtLlGXYhv0UGA+Y4z1NLysrIlKaessfFxC2xQXNosJ5jWliZrDndFc943RyCJCDhRT+Ko+zkfGwFuMESMJxUJohHLMxW5bSg1DxnF37lLUb5bsmIsKio69ntFYQeQdDTWkMp1NTnie9FNZRPypTO9YkW03ub960eS+bUrCRFRZCRESAQUQLYNkQtOLxB15B5JwZWFy/zignX7ffTosTTrq4GW852dHeH7B3et8y+uSr5FCwGi6szzSUlfBiSB6X78VJ8jW9Z3oaW52bIlt25JAiO/fJfARGts/WhPBgEn6ieDo+8lYQjgl76q4jbkLhB1fIFJu5feumV62ZbfokDJaMTCzRZtNdH0tfUNmw1kEdJE/YIsKT11/XUXSTqqjg893RwhMZB2IuoQlXM558xBp1DSl4sXkuNJz/zimqMF/SPZNM4vzIddYdSkqCtR9fI7paFEtn6+RQsB5nt6bGkU19PTG2bUNG5tbU02jSXyVS+zLrRIYC4rqk4wxDdHIEkIOFFP0mj7uR4bAW4qkFIkL9gxPn32PEyIpNOB88aNEiuAqqmpDlVVFXZDibvkJQ0olmu7e2pwpIg6WHDeOJMQ4cSWkciny17SaH35a3qObcuHflORRUg6TjoQdRY7EBUi6leVrTgPUU+H2r+828j/liwNRcoUHVK0jeRsRa4h1dXVIusNoVFyM6RmvkUPAT5TKS5d0ngOq95nTIsxujrT4OuSZHNdHfSiaAjFxUUmg0lCYX70RtGPOFMIOFHPFLK+31gikHLj2Lfuo9gxDsomblUpeDTY9XV14f69uxbVK7xakKg0LbIE0tXbr1T8KEkQunyK+/Ll9nJZ2FjKOpYz4uRPKk3UyU6sa9EDScf1BD7OAuiydNgsfvJF1vk5KQsgcMEFJ71AHtH1B1m/rSxWtewZ76p4myZIvkUPARy03h1IYFYVSR8ZHVe2ss/GGolTgz5b6+trQ73GF0khny1JCYJEbzT9iE8aASfqJ42o7y/WCGwporeuLok9vf1mKTY3P2dRHwqfiPh0SJtOc58LinQmZYNA4U5CJB0PcNLYRiaVpoZQQtrFMX37SgRwdXn79o1qHlIyojfKVtD8CKKO3WWevKYpJqVwMin6dKBLkzkaHyE5ww4V2Vmh7Pxu375lzY+wakzKwuUrp1Ok/oysCYv+aTVAorh0UONLZL1EjeMYY+p/kMDQDAmy7psjkAQEnKgnYZT9HE8EAQgpJGFmZjY8keRleGTUiiaLrl0LtL2mSUeVuiSiVU8KWUhHf9FRo03f308VkSLNwJKRTqyuKf226YcMAClRiqivm9QK8g5RZ26ZnEhEHS/1JDaPWpHsDAKH//aL3j4rqKXr77/+9S/hbleHXXtJuf6+bWZF46+Z60TRX+pzlvHl8UaL/4ua702NjdbgCkctrgMf52iMqR/l8RBwon48/PzVCUEgJXnZU+vyKetAijsB/r/FcnWpqCiXhVizuo/elhPHtUSlZE1bKmkGRB2ZxjvdZHPO5SiroK6ZivxekDTDU9TfdpFA0okqbqrb7Yas68DYcFVH14sXUo2OiKhTA/AxUUl1fPzw3T7+/Ye/ie73dLTEIYQOpdSIEIUluvovf/1zuCeiTjbH/dSjO74c+ba81Ne18B8aHg2Dg4NWXIqrVqmi6lVVVQqMNIebN25Ydon6F98cgTgj4EQ9zqPr53ZiCKC73hBB6BsYCi9e9Flq9pVuJqRikbzgm05kHclLHMnRYUASTaeb5qvdHbmTyEZQsqCc73KMQKJNx5bRi74OQ+7Lz+E//0pafxq/YM2IdldQm8wFGdHVgjyTvXw41xgLxCH25YPdp+di+usHv4rstzjhzC8sht7+AVn5PbZ5x/n/+Y8/iai3h2u6Dq9cuZKY6zCyA/mFA09nlYiqT6gJEva3SGDI0N2mmZwWZDUi7Ng2krGL0/z+Aiz+q4Qi4EQ9oQPvp/11CKTI6BuTvExOpTzT0cWy5eXlW1dECpxwfLlymeK+5ER3wIZCR5w4IJY7cn25cP5CyFW3TKQv6QYlfhP9urmW/itcXn7DVIugFAlP6dPpcFugTAXRdDIXb7VQotCUqDLf42ef/nsWSTRDgtDjt844xGEsLNug6GqfpC+/PHxkzXLI6Pzw4L48t1st6kob+jica3pOJO0rcxgJzKbGmeLSHgVHBpXFXF1bDefPnQ/l5WWhpqZaBfy1qlEoUFAgN2kQ+fkmCAEn6gkabD/Vb0fAbAflmY5P+vMXvfb1pQqdShXVqZQeHaeJSklfIFBJk3gQ9aID6fr6lhWTvlYBpDm9iKTj9IKG2rdvRwD/9PW1DSvM3dvfsyg5+nSi6WBKpgICnl4o7e29TjnDSMf79h3Rd6LrKYcYCDqORCyamJ9xWEgy7yhYppj0H7/8ajUj6NbxUkeCViMHmOLrRe7b/+1TL+tewVzmM5ixtuLhkVH5q6+avImi0va2tlBaeivcKC6OzUI06wbBD+jMEXCifuZD4AeQrQhwk6B1O57pFK7RMW9tfc30w2nJS82BAwEkKEkRvNQN9LWRyY2NLcOETqS5khwUSPZCxBeHEt++HQG6kK6urtsiiNoIePeHRB2dOjIXJDKQGCLqkFcebGmiTkSd5kgXL12wBRSEHaIf9XnK+ZE5GJHf9sNHj62PwYzqRZob5KUuGVpTY324dfOGy65sNkT/H+b1wuLiQXFpv7pBT4ZV6ddZjDXU15tlY21NlS1k/TMn+uPtZ/B7BJyo/x4Tf8YRMLIDCaI7HoVr6GGfPH1m5BM7uK6uTmtuVCKbMGQeSdtSixjJXRT9pcnR6zevjRQS7S2QhpqIL0TRt29HAF36yooWhCLiSFqIjyugLgmLHHQuKCou8o0sYP/1vpFzxiJNzj/8nneGlJ+XHOmSFk7UDeRLNpN+3r6J8D8Udj/veWEFh2MTE6GqosKi6e1traHszm1hJXmQz8EIj/D7QydgggQGudOgbBtpikQRKZnNxob60NrcGAoLCzXH8yK/EH1/1v6dI5BCwIm6zwRH4BAEIEhbct2YmZkzezDalqNRLy0tDbU11aFZNmHW0lp67CRGcSCKFI9ai3uRdba0LANCCEGMeuTWTuoU/0mTbDBdXlsP+3J+Mf/0g2OAdBquou185WceyFmIMBN5JAJv5F4/pzeIPXP06tV8W0TRyTQOY4PrEvUivX0D5rlN18o7uj6xaMQmFd1yEq/N9LjH6StzG7JO5oRGV4+fPlfWacXM9Wl21aRsSo2i6nfkvJW+TuJ0/n4uyUbAiXqyx9/P/hAEuCnsSpc+t7AQxsYmrJBpaXlJ8o496z6KDraivMzswfCxjgPpOQSGzz4FoQQjtOnbWszsKvKL9AfZCw2OsA5MGiafBesbfsHi540yE1ty0DFPejTnwploOhuY8oCI4HRBxNiKRfU92nQceHY0b3dF8N8ih4Gs638ij4xPmqjzM/uI+rasdvM0xsER5FlPr+nwyXDdvdtpi+nrcn9B1+9bPBBgAUpTtemXM6oXeiE3mOmwKElMkTz0b6k7bYcyKXQvxfEnXTwdjzP3s0g6Ak7Ukz4D/Px/hwCSA7yacRkYGhoJw7i8iCAVqztec1OjCtaarBtinjqQ6unEbZBHZEHr65sWUUcjDWnMN9vAAx104lA53gnDqW2BqMUgEXX80z+NjEOuz4tw0/gFmzoyGBB2SPg7EXXGwbIc0rjjjAJxh+UbUddrCyQLQBpAlDkORaWbwmhlZSU8evIsPOp+bAOQryY4RNQbRNhu31SreXmq+xYPBAgQkDFCAgNJp+EcHuvI795pnj+4dze0q/HcDfmr0wwpiUGUeIy0n8WnCDhR/xQR/znRCHAzWJXsYG5+QZH0XkXUx8Pi0lK4XnRdWsi6UFdTHUi1GkkSOU3ilmr+xGJmyxodgcElFSri722dSGUH6Nu3IYBQBVyxGaSYFLJuRFshcYuki2hfFMEmQoyjTqpYF716KjrOvOXvkWul5UgspthSEXUR9YL8A6Keep39MsL/kPXa3NoKj0XUf1VR6Za+J8NwV/UjFJRWlJUpw+O2fREe4t8dui1mNe6Q9bHxSTW9GlAzpFmzz22o0+ezOpbi+sMijdohlz79DkJ/IoIIOFGP4KD5IWcOAW4EU0qtjkryQvHojFLrkKBaeaX/+P19FamVWsQmc0eQ/XvGknFnR17f8jjekec3vsbIXZBW4NkdB1nFaY8Cjjl40qcj4kQJmYsQeIuki4DmyqcfnFkkQkgh8B9u/H2a5FOQyv7YUkQ9JX0h60FUHp161DcyCMjRnj7rMfeXufl5c8Ihoo4rE7Uk+cp6+RYvBPg8Zq7PzM4FOkT39fVbkem1wquSI94MHfLSJ6BSUlJii9p4nb2fTRIRcKKexFH3cz4UAcjR1vZW6MdVQHIXOuLtiYgWy6OXaHqXfJqvSQ+JBjKJGzdIHuBkhFCRX6LAeKdDIPPkKHIYgUwiVt96zhD1PZpHKUsBtkSL0ayzWcMiXFuE7xVJOcD4sMUQ5AWCTkSdr79F1FVsymKqsJBiUkkCRNI/JfnferzZ8PdIg5h/dAvG/WV4ZMSyYW2qIYGoN8uqESeQOMh8sgHvbDoGPofW1tfDvDKf/fJYh6xvq5MvW7U6lrJIs27RRapTUOYzDvPdTs7/SSQCTtQTOex+0p8iwAf/6uqapVCfPHsuffqQCM+2ReQa5ChAKr2pod602J++Nik/p51FtuX2srUlMqloJlteXirSiyQDAuk3xW+fEWCLrnxdxXLIX4gU6ynbiKBfkbsQulsw/hy+EHWsMo2si7RA1ImbE0FHAlBYWGDypM+9/tuP+mxfwflC1sfGJ6ye5LEyYNMzM6Gxrj40y66vU81wilVcykInLud8tohn17vTRwAnGLTq9LkYHR8P8wtLoVjkvEpk/d7dLrPp5LqhjsM3RyCqCDhRj+rI+XGfGAJY4BGZeynJC7rHXkVnpqanrQMkdm9tchNIubyUJPoDPx3BTJNBWtZzAywoSEV6XfZytCkJH8elxbq8KqJOxgISAlFHoULXWyLpNJKCqB+2sdCEmG+yiFI0nYg8mnVeD0mn2LfQNOop68zD9hG15zjnlARiNoxPToW//+/PYUhRdfzUG7W4vicJzK0DrbIT9aiN7j8/Xsaez+2FBTVDkgzm+fMe+auP2qKMmiLcuaqrK0P5nTt23ThZ/+eY+l9kJwJO1LNzXPyoThEBLO3QBqciM0MmeVlXWrVSN/x6FSe1tDSFEslfIEtJvuGjeaal/cZmqmDRul5KkkGDo8uK+nIjTDI+R52yEM59EQ70/khfdvWVBlLp7Yq06VckLcpX5oLo+mEbpBzSwthA1Pc1TkhnIOoUoPI6pDM0pIrLGIEb25JsGtGn//t//j8rAKcraV1tbfj+/l2rKSkoKDhUKnQYjv5cdBBIjz8F1HRHpqaI4tIV+at/911OKC+7IwlMjZy6kEBdNV/96JydH6kj8B4BJ+rvsfDvEogAH/Yrq6thVhEZtK580L+SbABXja7OTtOm31H3O/TXSY7IwImQY7xStHcToi6MaEmfIpC5htdhuukETqlvPmXmICTdsNWCEZzJVkCyIdU07qEGAKyZl4dtkPSUdAaNO44xKccXXn/5Et72GiuRdMYsbhtuL6ur6+H//N9/C48ePzUbSnTKP/5wX4vtctWVXLOC2ridt59PCgGKil8riDAm6cvI6LjVKiwsLtm1Qya0XRIovt4pvWUviMtC1cc/OQg4UU/OWPuZfoLAm7dvrPsjDTQGh0b0IT+mFPqkdLwFSpnfsMYpNVWV9jPSgaRukHTIJESS6BUaaqK+FqFVlBcCiZ+33wCPNkOIfL+S1hZcNy0aLtmLnsMHmsUPziVEwi9dosHR4daXSGUYkzVFFllopqON3+n1NKJCNoN15ueI/tGOPDtexXlj0/hv//G33/zUb6sBzg9yacKq7+aNks/ilh1n4EdxXASY78vLy2F2bj709g9a3QKFpkTSG+rrLTNaX1stG1ktdr249Lhw++tPGQEn6qcMuL9d9iBgmuD1VGOjx0+eWiEpN/zG+rrfPtzTN/kkR4u5CSKtwE1kXU1mIIX8fFWaZzINRiC9WOvIExut7ba6kaatFfdfp/TpEPXz5yUtUpMiiPbn3F54Y6LpSLhS3vYQ9ZS+PUfjwoLKrDNF8iksjdvGuZNF+Ps/fg5P1Vp+bX3NFtf37941X20kEMh/fCEZt5H/+HxswSbL2NGD4uIXvb1Wt3FdjeowAqBRHcXFhVev2lzw+fAxfv5T9iLgRD17x8aPLIMIQI429KFONJ3iUfSNENLL0gN3treZrpGoOp0Ok0zSGYJU0VaqUBEi+E7YEamlwRGRXi8iPd5EBd+tA7cWouro1dmwFbwgog7JhqgzDw8jF8zblHRGEXnJkiDsGLBD9JFr5eu1hVcL7Hs81eO2Ifvh/J+IpEPOJqemDbvmxiaTrtXX0VYeW8vDsxFxwyOp58N1hGwM2cvYxGR4Jn/9hcUFW8RiClCjwlIsGyskh0p39E0qVn7e0ULAiXq0xsuP9gQQgNjwoT4vt4BeadJ7e/vC8xcvrGCUAtJ76myIbzp+6UmWvKShRu+8pyg6hYrr65tGgkgfQ9Tp/vc5Apl+vX/9MgLMxXSBLkQdzS0bEXRwxlaRqPphG3OZR9rXnq+QlTRRh+iniHrKou4won/YfqP0HPixuBlQ/4MBeWqz8CbCTmfSJnmp0wCH7A/uOb7FGwHmAos2iot7enrDkPphEGGnxoPI+k9/+N4CMXy2c2355ghEAQEn6lEYJT/GE0MAUkOqHGeAycnp0COSPqsW1Ktr66GqsiI0KEVKVzs6kBKBS3o0HeAh6e+lGdsmI8DlBUlF2jv9xAYoYTtiPmKruCFJEdIi5FjIitggEmjKiaiD9WEb+nbIScqWcVuv3zf3F4g6RB9dOvIkiD4R9jgSdTDEYnV6+qV1FH7U/diiqnSqbGpsDD88uBeK5K3NotK3eCNgc0ELXfoRTKurdNrJiy7KSPY6O9rNtvFO6e1QpOZ1fMbH8ZqI9ygn7+ycqCdvzBN9xpAiXCLGJ9QkRdGW3t5++wDPE5Hhpt6OFWNJiRUhJRqoD04+pX3elL/3nmF1WQVZSAnyctXOXkTQt6MjACmHQBhRR/ai7z+1VYRkIzE6bIOksw+ICfsg+8Fz4q5G9K9ojPIUPYSkQkhwkonjBkFbXllR/4OX8lP/xa5vFtlE1P/yp5/CDV3TdGX1LRkIcB1RbzQuCcxzRdYn9Hk/9XLWgjC1tbJs1LwoKyu1QmuXRCVjTkT5LJ2oR3n0/Ni/CQFu5pB0NIwvFEnH5WVmZlYRy4JQXU3L6Vr5L9eY5MUJaApaMENOsbq2YSQSNxJIX64I4GVJCdCn+3Z0BD60VcT5hZ9tE6MGX+wU6fyKh/9hGyQdqcyaxoeaC8Yr9aBREt1M8+y1l9XZNM6RQ855XYXhM3Oz4R8/P7RIKlkGNMn/+tc/hdLbtxRBvXYYhP5cDBFgsYocamFhwZrYDQ4Nh0HJovjsunatSNLGenMEKpVlI/ancb42Yji8iTslJ+qJG/JknjA3cqKN6NInp6bCUxUa0X0Up4CULr3DPJdLlRJNRR5jGnr8huFPY7YlRxKI+lvZWZ5TI5E8FSemi0iT7C3/DVB+9k+J/DEHza1FRB2CwUaxLuScJkfIiz63cCRDBCFJEfUtvVKhdP7VF0g+9nTIlOJoy2gnevAPcxXrULpUPpT0hZbyWPXhp/7Xv/wpVJaXhZsqDueqdlL2IXLx/n5TWabF5SWrXehT9nRVjexYDFdVVlpQBocvtOtcHy5zjPdciPLZOVGP8uj5sX81ApB02qoTWRkYGglD+koEsiA/PzQ1HehYFXFDz+s38hSsKcz2rNMl0UlwQTeNXprIFK4kjtVXT8FD/xBN+Y786ems+Grnva0iCyAWQ8g1LiprcVh6HjL+PiK/KccXEfWD9SW/o4AOHS6RdfTqcd92tNBZXlkNz573qKB0IIyMjclD/Yb5qdepQ2VlZXlsnW/iPrZHPT+7PrQYxgmIDGq/PNYnFaDhc586pK4OAjRlZtvoevWjouyvyzQCTtQzjbDv/8wRsGibJC8UjKJXhKwvLi6GcyokItIGUW9vazHJSxx9po8yAGBGpHZbtoHWjEdkkhsZUVqTvogEsjlRPwq6718DSaeRFK4vu7s7Fgn/zVZRC6LfbBW1KPp0Y4z29l5bAeqmiD4R5Q+JOmNFQeVFGiWZf3qKxTNm+j92Y8d8Rf5Cd2GcXygUZ6HT1tIiu9VGc3LClu+wRc+n2PrP8UJgeXklzEkG86j7iebHoMn4cAKiLqlOjZCq1dguV9ebO8HEa9zjcjZO1OMykn4ehyIAmaE4b3ZuLkwpqvL8Ra8VGJ2TA8YNRdu4ifMhfcdcXs7FjrwcCspXPAlmuOOQdYBIEpnC3o4oLwSQKK1vx0OAuQm21ADgo767997/HEKZL315oRxfSMl/mpbntSmivm/74PV0JP2QqDNGWDOS1md/bFD1nJxzB/uMlwsMeGwJg+HhUSPqjx4/MVJeW11tC3EW40iI3HLVpkKi/sGylGsNr30MBGZVy4CbVUlxsUlg2ttaZSJw3RplJQoYP9lIIOBEPRLD5Ad5VAT4MCZqOaq0J5F00p+4Q5Tevm0EvaW5KdDYiMjbp2ToqO8Z9deJ74iYIxWSdlpEnZscJAjvYYoTL148/xvxi/q5ntXxgyeLoS1ZMvJAtrG//0GjI0mMaHJE1I95+fvMBUQ9mB0j85tGR0bUdULvUoFzi6JD1lNR5HP29+yHqOEFI+8pwn5WGGTifXEoGp+YkkZ9IPz6sNsWmDi+dHV2hPv3OrXIvOKLzEwAn+X7TLsjjY2PSxKlx8iY6pXmrSbkzu3S0NrabDVK2DYiO/N7QZYPaMIOz4l6wgY8aae7JW316tpa6HmhpkY9L8wF4I0IUlen/HRF0mtrqi1y6UWR72cGJHJ3NxWpxfLvtVran1MUFvcRHHLQpsexw+V7BDL/XZo4IHlB/7+/n/JPh3yfP59j2Qui4Ve1MEpJVQ7Y90eHpqyHyD1jRSMq5rqFzA/+lC+8lrFjzBhXPZHKiki6RJFp3OY9i8qZ2TnVoQyHX359FDZlW3lZ53r/7t3w048PNIflgnMg2/oISv8h9ggw/Tc21sPC0pLuBX3WDAmvdfTquAMhj2puavCsS+xnQvRO0Il69MbMj/grEEjbc83PY881YR/KY4qkoEvHpq2rq8M8dYtV8U/U8fcRy694k5j+CZFeOjummxy9e/dWUXQ1zpHsBfIISXe8jjf4NOh5c9DoCNkKhbtv5KojLmERbxxfsMCkIPTzRF2ZD73utcg6CyoIP2P3VuPFlibqOXLqSeverc4Aki67RiLtcYsc4qKztLyszNm49MiPVYuyZNi2traEB/e6JHcrcZtGmx3J/IeFHBa9EwfFpX0qOt5RbUh+Xn6orq6yOobbN29acSnXRtyuj2SOevTP2ol69MfQz+AQBLhhQzaRuuACMf1yRjft5VBRXh5qaqpCh/Sq6NKRAfiH8ccAQiJxISFCSztuoq6pBkcp//QcRWV9Ox4CYGzNt0Sw0ai/VbiPiDdRPzTlEHQi3v9sEcmClAdkHxtNiPubN68PTBqlR9dYpR45Jne5pH1fUo2B2dHpd3FbcLHgWd/YCBOTU6H78dPwUhHTNRWY1tfVSqfeanI3PNV9Sy4CzJE1ZVkh690qLp3SHGGhe0s1S3SnJrJeI9LOteeFx8mdJ9l05k7Us2k0/FhOBAEID1GTOXkq98sBovvJU9MAi7KENhF0uhVWlN+RI0ahkfS4kZXjgEhEFrJHp0ta2rPgofgu1TgnVUTqeB0H4dRrmaNgTcHuvqRFMGui6fxLseeFC+ekMceh5Mu2iiZn0avYDzIYyD9EBM97xinnQKZEVJ0F1znJathvXK01WbTgUkQjsyfPnoexsQkrJC8vK7NoKTUpFI/7llwEWBTvqZZhURKYQVn1EswZlZXnd7pGWCDf7eoK7dKsFxUVuV1vcqdJVp35/wcAAP//en9FVwAAQABJREFU7L0HYxTLlq0ZBycvnBCyyHvhj7l2+s3Pnpn3evp193Tfe8/By3sHEggB8gbEmfXtrCwV9sqUk7QTSmkrMmtHZsTKHWuv/cPvmoJPboETYgFu593d3bD05k0Yn5gKg0PDoW9gMJQUF4drFRXh7p1bobO9LZRfLA+FBQUn5Fen72d8+LAbdt5/CKura2Fzayt8/PjR7FReXhIKLlwI58+fT9/JTnlJ3KvRJzbEXlP8ww8/hPgT7/3enHKoq93d6PPx424IP4Rw9uzZcObMmXBWn9TyWD6JE3b48OFDeLX4OvTruR8dmwhTU9Ph6tUr4caN+nD/7p3Q0d56En+6/6YDWIBnZWNjIyy8fBVGxydCX99AePPmbVhbXw93bt8MN3u6Q319XajQfXPu3Dl7dg5QvB/qFkirBX5Qw7bXO6S1aC/MLZB9CwDSaYDnnr8IT571h+np6TC/8DLcqK8Pba0t1knX19WFCxfOG4jJ/hXm9xm3d96Hre3tsLa2EbY1B+gVFRWG8rKScEEgHdDnU/os8L3m96BgmrKiT7C5YXEAvy43Liuep+8X5F9JH2UHQNfI6FgYHhkNQ8Ojobi4yF7U//ynP4Rbvd1Je+Tf1fsVZcMCPCe80NFXzM69CIPDI/ZCNz0zG2prqu2lrre7KzQ01IeSkpJwXmDdJ7dArizgQD1Xlvfzpt0CgHS8wK9eLYYJedH6+gfC8vKyeRo75EXv7uoMtdXV5l0DsJwG0HIQI9N5bW5th83NrbC+sWkdWUHBhVAsoF6qzurcubNus4MY1I/NmQVWVlbC5MxMGBoaNW8pbyslJcXhX/76l3BPo2p4SXkJ9en0WoD2jj7j9dKbAEDnxW5kdNTui5KS0tCj/qKluSlUXa+0e4f7xfuM03u/5PKXO1DPpfX93GmzAI3ulkDmm7fvwrAa24mJSTW+M6GwsDBUV1WF9raW0C6PellZmTzERWk770kpCPvxWV/fNJCOV531EnkiAep41aFPqKc6KT/Zf8cJtsC6KAzzL1+GYXnTHz95ai+ggKz/4y9/FlC/HUpKi43K5cDrBN8E+/hptHEbckrg0BmfnDKgjqNnbX0j1NXWhsaGhtDZ0Roqr1VYv+Ejivswqh+Sdgs4UE+7Sb3AXFgAziGekecv5sOzvn4NZ84Zz7pGHvTu7s7QIH5qnYY04VjjTfPpUwtgvw/yLkF5AazjaTpz9kwoE6Ap0ssOVCHvpD61ma/lrwWgbb0T+IL28tuDR7a8s7MTfvn553DnVq9oMFdDaWmJe0jztwqzdmVQYLhf4KvPPn9uozDTs7OhRA6dysprAurtok7WmWf9guJ0vB3MWtX4iRIWcKDut8KJsADAcmJ6JoyNjcuD9iwsvn5tHrOuzo7whz/8HCrVMV8sL/eO+Ru1TWe18/59WDWgvmGdEZz08vJSCyY9K9Du3sdvGM83550FaA8AX8MjY+G///6r6HCvwrICpO/evmWBgjdu1IYrly/7PZ13NZebC7LRRPHVoUz9999/C0+e9okCuGEjia0tGo3ViGxHe7tRAM+fd0dPbmrp9J7VgfrprfsT88vhVK+urYWBoWED6nPyiuAhrrpeJW9IW7glD1qZOIfwrX360gIa/Q14G7e3dwyob25uylYF8qQXGDfzQkHkTXfSy5e28y35aQGAF2B9bHwy/PrgYZjTCNvLxaXQ3dluHlJocNfkLT3jsSr5WYE5uKr3clTQDvYNDGkkZiQ8lyABwablcvA0NNwIvT1d4brumfgFzx0XOaikU3pKB+qntOJPys+mQ16SwsNLecyePH2mjnnCGtvLly5bh9za0hyamxs9av8bFQ5Ix4bw++MgUvjppQq8g58ONx0PkndK3zCgb85rCxAk+EgjbBMTk2FGYL25sTG0tjSFHsnv1VZXWeCg39t5XYVZvzgUw6Zn5sLA4KBe8J6HDQkUVFVWhptSC2pqbDAaJfRJp8BkvWpO7QkdqJ/aqj/+Pzyma8yoM56UysvI6LgNcZeXl4U6STD2dneHmpqqcPXKZW9Uv1HdgPSPHxVQJS+6STLKo7QrLfUyyTEC1uFkRmoH3yjAN7sF8tgCxKwMDo2Yosf4xESoUmD5jfracPvWzXBDbQQjR9C6fHILxBZYXlm1PBzQKCcnp+0FD2cFwaWRxK/ycJSVSvKzOP6Kz90CGbWAA/WMmtcLz6QFGJZcWV01HuqI9JJfSC8dXmpzU6M1qJ3iFF66dNECId1r9vWagCJEkpx1qRysiD7EMraiIyopKbKRCPccfd12vjX/LUDiI17iBwYjOsNFvcRfv37duOpN8q4TUOqc4/yvx2xe4XvF60D/w7M+KSWYflFhVtdWFatTGJqaGi1hXrVGY0ig57E72ayZ03suB+qnt+6P9S/HE/x6ackaU5Qd0L8FZJaWllr2USgv1yWphTyjA81vVzU2I4gUOTKykWIrhnVJcIQso2sHf9t2vif/LbC8vGK0uKfKPAk1jnuboPI7CiqFAoP6C151n9wCsQXoWxitJe5pfv5l6NdLHhSYJfU3Fy9eDIB0RAra1Mcg9Ysilk9ugUxawIF6Jq3rZWfEApbmfmdbQ5LPzZs+peyjBP5cvXIl1NbWmLcMOS2yEXpSk+9Xwfv38h6Jn06CI7Snz5+/IM/RBb3wIMtYYN51H434vg19b/5aAEoXSh6oeDx4+NgCpqFzkSa+va3VslDSTvjkFki1QAzWkficmJgKY4pxgAqDhC0Sv7du9lpCJF70yjT6iIPD28lUC/pyOi3gQD2d1vSyMm4BGlCyj759txxGlUnusTrgt+/eWjBkl/Ru6XxbFDwKaHdv8PerA1ui9II3HbAObYgRCAJICSQFsPvkFjjOFkDJg+BogPpvDx6Ht2/fWEwGSlC0F42NN0xy7zj/Rr/2zFiA9pF7563ECibEVX+q/BwLSqL15u1bu3eQa2xtaZS62HWL5fGR28zUg5eqPIO6GaX74JNbIP8twK0Kp/rtu3dhenbOsg4+6++PqBqlZfJy9IQOAfWKigqTFXQPx7frlKf+998/iou5bfrS73feh92PuzYKgYexSHQA5+5+23653hO12tHzsKtgYKQzud/PnPnBR0FSKgcPKGB9YHA4PHr8VCNvzzV6tBF6urtCd1eHshW3Sn6vzL2hKTbzxT0LIPGJIpYFJUuyEc765NRUuCZaJRmvu7s6Q5OkGy9fvuQUqj2z+VKaLeBAPc0G9eIyZwFAOlSNF/ML0rodFO1Fag4ajkRmraW5Odzq7dG8yRrMc+fOZu5CTkDJvPRYEKkoL++WV7X8IZw9c9YCSAkiJdmR04byt6Ljl9b37wVExacVRpcm+Bl7uSLAzb17Ud0BtOAbj0pPvV9txohG4Yht6e7oMJ5xT09nuHzpktsrf2/1nF/Z73oRfiPn0KyoloNDw5b5eld9UYEoVDfV53QpV0fDjRtGgcn5xfoFnEgLOFA/kdV68n4UIJ1hyKWlN2FKGUiJxH+99Nq8Y60C6R3tbaFRno2q65XqdM+aZ/HkWSF9v8iCSOVFXxeHlyBSvLHnz50XN70o4vaLc+lgL332TndJPA/EauDt21DCL+rq3NmzRlsqUIIq6tNHlIKNwAHWUfCYkDf04aMnGo2blRe0IbS3t9rLfeW1a6J8RfEY6a4nL+9kWIAcE/DVJxPZr+elMLYs+qXJfd6os5HcqqrKUCYxA6dcnow6z6df4UA9n2rDr+WrFsB7yPA1UoxIrY2OTcibPmrH4g3r0hB2t6LwWUZuzafvWwB7AvIAeHw25VVHDQOwgjcdjroBve8X43tzaAHA5w4vWusKltSLFuCAIDfUeqi/mAKTw0vMi1PHIw940ec1Evcf/9/fLINxtUBVs17w70r9pVa5FsrLyvzFNC9qLD8vghdjnBvIfb6Ynw994quTXA+n0GXl6YBK1dzUYMHJhaINupMjP+vxuF6VA/XjWnOn6LppJJFZI5CnX1zT6ZmZsKgG8+rVq6aXDt0FnmCBgh8BKz593wKAF0De6tq6BZHCT78g21kmUoH1AryL3y/C9+bYAjFQJ0kV+vdnz54TXemcDb8jq+lAfa+CuN95yX+joMD/+a//ZplKr4hTzAjcvbt3LAESL/lO9dqzmS99agHuIT6oCK2r3XzyrN9oMASW0ljWKxlSs/qhTo3skrujWLKNPrkF0mUBB+rpsqSXkxEL0DjCwX2hDIN40/v6B8LCq1c2pN3S1BTu3bsjjnp1qFRwjw/1768KAHmovSyvrIVtgfSPCiJFD7hMmUijl51z+yvIj8qZBSKJ0kj/HqAO7SXyqCtjogP1L+oFpag1Aaz/6//5X+G3h4+kaFQg72dN+PH+XQPsBAdiQ5/cAt+zQAzY0VYn4+2U+qS3y+/k5Cg2njqc9eqq66Hi6hXzqnuf9D1r+r79WsCB+n4t5cflxAIEj+LFiNKAjxpYf68091ckv9ipIJ67d25ZAhNP57y/6qGjwZuOHCMedQLtGKZF6aWMLI2iwHhK9f3ZMpdHfQnUz1kgqaU2d6D+RdXsqM3YEMXrf//nf0n95Ym4/VvWhvyoF31G5Gprqo3+9cUXfYNb4DML0Ia+fLWYUIIZDjMzsxbnc0nJkNqkOtaq+4ns2D7C+5nhfPXQFnCgfmjT+RczaYHYcwH/liFrNGzhpq+sLNuwYlOjgsHUKHZKC5kG0Yet91cbH6VgQHpsuOnrG1sm0YgntkTedDzqZ1AMQULEp7y2QBKoS2qQZ+ScqC/IaTpQ/3q18UJKMPqvvz0y1Y6Xi6/Mq44HtL21JdCekKHUucVft59v/dQCSHxCx0R1bGJiUkGm09K7DRrZvSZt9RYpCrWZZCOxD3BjvEn91H6+djALOFA/mL386CxZgMAdJAORYpyZfS4dZKVxlnIDihY1oroQvHOjrjZUSuXlrGeF23etwPfHk453cWtrJ/wg2xF8CF0CjroFkTpO37c9c3WgA/WDWR66F6NzA0MRZWFc4OqDAtSbmhpNsaOzs12B6KUmS3qwkv3o02gB9PmhD74SDXNqelYvfwOmQoaDiazYjPYi2UhfxQilU2BO412Svt/sQD19tvSS0mgBhqbJmDku/ePR8XEbXlxTivs6Be20KPMocowVCibFE+yN4P4MTycCYMEDi1oIwOWcvLClJVIKUQBpJFG3v7L8qNxawIH6wewf3/vEuQDSGaF7J3m9ymuVaktaw53bvQHqArEaPrkF/pkFovvpo9rRdYuZIqEWFJiXAu5l8qLDU++SElmbRmvgrzPq65Nb4LAWcKB+WMv59zJqgWVp1iKFRWKjQXnTl1dWw3klmLh357ZF1t+Qdi2R9T5Uvf9qYJQCCgC23BDtBe86HQjDswWFF0w1ZP+l+ZG5tIAD9YNbH3D18uUrA1R/+/WBOMYvFJtRYu3JLz/dV0bjK+ZVP3jJ/o3TaAHdTkYdRFFoRvrqQyPj6q8GjGIFFfO+FIVu3+wN1yuvWfbb02gj/83psYAD9fTY0UtJkwVsiFpgkpTNE/J84f2aUYISOlT4f3du3zSVhsuSwHIpxoMZnSDS7W1kGVF72bFMlkVFBSbph7Sf8/wPZs9cHu1A/eDWB6i/VYZJFKT+LqBOAiReXFtbmsNf//xHJUu7btJ6By/Zv3FaLcA9RaDy27fvwpQ86lA0kRF+rcR8jUqqRewD9xda/YzWEKzvk1vgoBZwoH5Qi/nxGbUAAJLhxBEFjj571hfmFxYsaKdFyUkI0unp6giV8lCcO3fWKS8HrImNzW0FkhJEuimA8t5SYBcXF1qSKKTpnEJ0QIPm8HAH6gc3vhyg0sBeCy8XFy2odHhkxABVc2Nj+B//8hfTwq6ouHrwgv0bp9oCgHU469BextRvDY+Mybs+anE/ly9fNucSFBgkGxkF9nb2VN8uh/rxDtQPZTb/UrotQGOHIgnDiHgkhoZHTZ2BjKSA8ls3b9oQdU11lXmAnfKy/xrAtnwA6FBeUL/4XbYmgLRIQJ25e9P3b898ONKB+uFqgSDqpTdvLOnR0PBImJ2bUx6GqvDHP/6ipGlRZknaFgdTh7PvafwWL4C/i0ZI7A/BpaiTDQwNhzWtf5AgAiAdrzqfK8piilfd76/TeKcc/jc7UD+87fybabQAfGmGEF+9eh3GJibCyOh4GB4dlUZ6mTh+ldJLvy05xhYFPkqZ4YJnHz2I6bHtrj4E5wJUCCI988MZedKLDaRfEPefTJY+HR8LOFA/XF1Zoi/Fv1jsi4D6iNqYK/J63rtzxwAVaeB5afUX18PZ9zR/i/4LZ8iU+OrD8qhPa/5KeuuVlRXhhhRgbt3sCTXS6y9T8D73l4P103y3HOy3O1A/mL386AxZgEbunXRpp8Xz65MiA7KMr6Wf3iqFl3apMrSK+kIjhzfCvekHqwRAHeB8VZQigDodBPx+EhwVKpjUaUQHs2c+HO1A/XC1QAwM1LphOQIGJdVIKvhCBVJ3tLWLVtdpSh04As45l/hwBj7F38IhAgVm6fWSKJsv7WVwbHzCLIISDDk/WpoaBdrrpLLlo5in+FY58E93oH5gk/kX0mkBhg13FdCF9CIBpMgxEpCzubVpnWV3V1fo7e40Xjryae6FOLj1oyDSHdNPJ5X6+fMXTIqxTB71AoESf/E5uE1z/Q0H6oerAShgSL9OTs2EweHh8ODhI9HCgmRfawLJj+7cumnPBqNMPrkFDmMBnCEE7PcPDImrPhIWpV62K2dJtTTVm+V46pJm/5XLl0y20fuzw1j49H3Hgfrpq/O8+sURd3pDQV1LYXh4LKDEgB5tWXmpEkfUm8YxKZmLTYu2IK+uPd8vBgBCurwtJeYgiBTqy7b46diyWMmN4KZHIxROe8n3uvz8+hyof26R/a9Df3khacbh0bHw64OHYVPA6uLFcgX93Qo/3r9nib8K5fH0yS1wGAsY1VCedUaHJ/RCOKLgUuKuGKVB/aW3pyfU19WEKmmte7K+w1j49H3Hgfrpq/O8+cUASbKPvhSPb3Yuyj76Yn5eQ9Mblt2tt6c71NfXhpqqKueNHqLWeAkiQBcvOgmOmCNHV6YMjMUlRZZCPVJ7OUTh/pWcWsCB+uHNT4D6Kym/jGn07sHDx5LWe2v0r97e3vDTj/cC0q88Iz65BY5igTeibqIwRDIkEm29URBzifjpLXI88YkcUEXKZeEOqKPY+TR814H6aajlPP2NAEm8W6Pi8SFpBWcU1ZdSZRvtFl+UTpNALzpNHyI8eCUC0vHu8OKzurYe3gukY3MCdEvkUT8v2gseHZ+OnwUcqB++znhZfYPutYL9Hj1+at7Orc3N0KU258f7d0OVgtdR5/DJLXAUC/BCuL6xYcIIBC2jBAMN8ZpkGtvb2kS16rbs2pf0YuiTW+B7FnCg/j3r+L6MWoCgrnfvVsKz/gF5tybM+wAVo76u1gJICe5Cd9b5ooerBjKRWmchb/qKOJO87KA2UF5WYnY9K9nLM9rm0/GzgAP1w9eZBZQKQBET8+RpX5idnQuLr19bgpoexcPg7YSz7pNb4CgWwElC+8uI8YzuMZSGkG9EOKHqelVAYahZ91qDKJ44TRjd9Mkt8DULOFD/mlV8W0YtgFeXzysF2UB1was1JS7f78KMSDESPNqsjG719XUe6HiEmsCDvr21Y9x0gpt44UHlpVRqL0WFBQbcfaTiCAbO4VcdqB/e+LQ9OwJQBPn1Czyhe42U3jUlUiOT5J1bvSbVePgz+DfdApEFuNcYNX4tJZj+wcS9NjMjussF86YTF9HT3ZVokz0uwu+br1vAgfrX7eJbM2gBPApbW9thUp0jwaPj8qaT2rvi6tXQ0HDDso8C2AnwciB5uIpQ/xAsy6s8h5vKSIrSBZJgRUUFFkhaINDutj2cbfPhWw7UD18LgCe8nUviEKN3PaKgUgJLy0WxI8Dvl59/lLOgy5+Pw5vYv5liAUZw1kQ9NFWzyUlRPEe0vqr4rI9G8UQFpq6mJlwVJcaTbaUYzheTFnCgnjSFL2TDAnSSeHffiiNK9lE6SYJs2N7a2mKerLbWZtEzylzL+JAVAkjHngSPki0P7yHADl56iZReULQ4f/7cIUv3r+WDBRyoH60WeD6WV1bMUQBwwrNOPgEkYP/6lz+Fu/J0AppcuvRodvZvRxawPBbq91A0g+r5/PlzxUYsmmhCkygwne1tolvVWtvseS38rvncAg7UP7eIr2fMAnSOeLKQqpqanjWQjkcdbt6VK1ckj3bThp4r5FmIsmV6oONhKgM7463ZUIDcu+VVs7ncg6EUoJ4IInU+5GEsmz/fcaB+9LrAYTD3/IU5DJ4+fWZJwc5fOBf+5a9/Cffu3rYRqOiF1uM4jm7t010Cgf0fPryXDPEbo1lFAgqjicRzpeZZJzbi+vVKE1Nwz/rpvl8+//UO1D+3iK9nzAKoLUTJRqYtAn5mZs4CSKuvX1cgFymWe6UzW20JR9yTdfhqiIKYPlg66+WV1QDMOKdMpKjplBRHGfHcvoe3bz5804H60WuB3AKLS68tf8PDR4/DqkafPkgu9s9/+mO4L6B+SdQ78g0Ee4KOfj4vwS2ACsySwDriCcg2Lr19YzkuiMlqbmoMLS3NobKiQhTFQh/N8dslaQEH6klT+EImLYCXl4xtb9UwDSmx0ZNnffL2Lptk4E3ppXcpvXJDQ70NPbs34fA1gZ1JY72lIFLsjbLOWSnpFEqrt0Ta6SQ5gpvu/PTD2zgfvulA/ei1gCIHGZFJSPOP3x4q4O91WNX6T0p6dPtmjzJJVll75M/K0W3tJUQWwFlFjNacFIfQVifJ3/TMtIJJS0O18oXc0n2H0+paxVXztrvd3AJYwIG63wcZtwAeXhqoJXHRydY2MjquBmrE6C3l4oSistDe2ir6yyV5EvBg+XRYC3wUUIcPiXa6BZFubwUCR/EM4qVB9cWBx2Gtmz/fc6B+9LqgXULXemx8PPz91wcW7Ecbdau3R0ocUp5qarQAd3+xPbqtvYTIAjH98+27ZVM9e9bXL8fVsCnDIEXcLq46MVrceyXKIE02U5/cAg7U/R7IuAUA6Qz5kX2UoC2kGOGG3rhRL83i5tDd2REabtQJuCsBj2vJHqk+4KYDPggi3ZIsGJlfCR6F9gJIx8Y+HX8LOFBPTx0CnIiT+VUe9anp6fB8fsEC+zoEmLrULlVLBcaBenps7aXsWQBFLqhXz/r7Q3//kMkUo4TG/Yaowl3Fa11V0i13XO3Z7DQvOVA/zbWfhd+ONNWmghoXXr4K4+oQ+/sHpfqyGn6XN6u9vT10ivICL/2qgknPnj3j3t4j1AmgA286Df7q2obRishnhKemrFTeGSm9eBDpEQycR191oJ6+ypidfR6ePuu3DMmA9RvK39DUpJiZ3t5QV1cbSMLmMR3ps7eXFORA2bXPjJxX0xJWgLOOyALtNdLEnXpJrFfSLeRCLyi+yD3rp/uucaB+uus/o78+Ao7vTSOdKHe4oIOivBSJL00DdFNDzHjTS5SABw61T0ezAMoCgHRkGdeVjZShfcA5ai9lykbq3P+j2Tefvu1APX21gRNhVDKxtE3DaqMqKq6Y8+DunduhSXxhvJo+0pc+e3tJexZAX/2NpIr7BwaUeGs8zC+8NEpog0ab2+RZZ2SnjAR1TgndM9opXHKgfgorPVs/GRrG27dvNay3YCovUF8I2KqSyktne6ulT4b+gsfAO8Kj1wrAfE3cdIJIob0wZA/dBX56iagvqL84P/3ods6HEhyop68W3ijxUUzL69OIX5GUkRjhu3vnlqh5TRZQilysT26BdFuAgOYNUWBm5+YsuHRImv4rq6uWObqhoSF0dLSFWgU1V1675o6WdBv/GJXnQP0YVdZxulS86US3EzxKdDtJRd4ItAMUWyVBdU+dIJqxdIgOHo9eszJ32P24G1ZW1gyoQ4FhuLS4hGyk+oinDlD36WRYwIF6+uoRPXVSvD/tGwhPnjwJGpjSy22x5XVol1eTdornxye3QCYsYA6t5XdKgvQiPHr8NMzMzkkqdDVUVl5TUGmTvOpyajU2WnyRU2AyUQP5X6YD9fyvo2N5hdvy6K6pAyQLG8PJ8/Pz+h0/qNOTN72jVfzPbnl5RXnxDjAt9bsrbzrgfBWgLg8NoL1AdKJyUV4KCCLVqIVPJ8cCDtTTV5db29uW4v2pJGMfPHxkko3QxG7dvKm2qi3cEE+dtsont0AmLIBTi/4SRxb00FGpEBHgTMzWxYuXkipEly9dspHRTFyDl5nfFnCgnt/1c+yujkaHzzvJTy0uvg4PnzwN4xMTxp2moWlraw1t8qi3tjSZx9e96empYkA6SgKrq+uivWxrlOKMDZ+Wl5cmqEWe5TU9ls6PUhyop68eUKUCKPWJJ/zw0ZPw8tUrW78pZwL5HVrUXpWXlaXvhF6SW+AzC9BnbkgZ7cX8yzCm/hIK1sqK8oxIwatD9yAKRAQ5o68OTdSDmz8z4AlfdaB+wis42z+PaHZABJy7qemZ0D84FF4qmp2Orr6+3gJIaxRIekXSU97YpK92CCCNgki3wgeB9vPyoBeLa0sQKUov/kKUPlvnQ0kO1NNXC1Gb9SEMK6AU+sukvJlv372zQPfurk6ld+8wnnr6zugluQW+tEAkY7wpPf8X0lYfMTWY2efPDZzX1tSEXiUGbFIGU6R2ad99Oj0WcKB+euo6K78UvXRScRPBjuTUC1FetuXhvSGQjhe9Q5KMly5dNMqLc6aPXiWi0wYNYZhO/frGlo1cEFQKpzYKIpVihYbxfTpZFnCgnr765HkBrE/KsTCqZGx9yvXwQpkjiaUhmI8ESFevXvEX3vSZ3Ev6igXwqpNVGgGGGUmG0n+OjI7aCDU0xu7OTrsnq6oq5YAp8/vxKzY8qZscqJ/Ums3B7xLpJbxeemOd3MDgsIH1HUW1kx75toaR6fhqa2sF0gvCGQRjfTqyBchEGqu9IMmIisAP+lcq3fRiBZHSwJ8547Y+sqHzrAAH6umrEAASAX3zCwthSoF8D5T8aHxiMtSLmw7t5bYyJ6NUxfPko4Dps7uX9KUFcLxsaXR0ZWXV7sHBoWG7L6GSNkoqlIylOLsIcPb78Uv7ndQtDtRPas1m+XfhkQKUo/IyoiFkgmFevFhQCu4rljSElNwkcCgvL/fkDWmsG+z+XlSjVenxIssozGEJWtDeLSy8oCHSc057SaO986UoB+rpqwmAOs8NdJdXi4vh3//jv4yvXiFFqgaBo7u3b6sNqxH9pdxlZNNndi/pGxbAq76jmAn0/ZENHR4ZCRNSTgOYV1y9akAd0F5bU2WOGKc1fsOQJ2izA/UTVJm5/Cmm8rK+rqQhw1FAlhoZZM9uilfXJZ5nh4JISYnsHqn01hIe9G0FHBFEuqEMsOfPnbfkUXDTL1xAn95pL+m1eH6U5kA9/fVABuUVPUf/9//8X+EfDx6EkuKSUCdu8D0SHzXeCNeuVbiTIf1m9xK/YQFyYiwvr4TfHj4OT54+NX114o0YmSajd293lygwpf7y+A37naTNDtRPUm3m4LdEw8a74Z0aFLKqDY+MWpY1hpILBBTvyBsFz7NKaZEt6Y5TXtJWS9gepZfNTcnLqVFnyLRYGezsI/10QLvTXtJm7rwqyIF6+qsjepY2w7/+278LHD0KH9WGXZUH8/69O6FViY+qq6pshCr9Z/YS3QJfWoAR6m1lmh6SZCNedQQaoMQwskMypNu3boqSVRkulpe5A+xL852oLQ7UT1R1Zv/HABgAiPNSdiH4ZXJyWmov0+HK5UuhSuout272WtKGEmXH9Ej19NVPPFyP0guUlw0Fku683zEPC7YmDsDVXtJn73wryYF6+mvEZBr14vuf//U3JZ55Yt7MUlHI7t6+FVqV+KhB8nhkKHWqQfpt7yV+aYGojf89zCmwmeDSYY1WA9aR4iVTKSowDQ31GvWptr7Vs3t/acOTssWB+kmpyRz8DhoSQDoBpHDS0X5derNkwLGjvS2069N4o16NSoVrv6a5fj4qfSJBpOsC6Wvip9N4f/z9Y7goNYCSkuilyGkvaTZ6HhXnQD39lWHxHnqOyP3Q19cvmbx5gfJgnOD2tpbQJrBOxlJegH1yC2TDAvSxxB8RPzEax37NL5gHvUYAvbmpQXlJWkxJrUyiDT6dTAs4UD+Z9ZrxX0UDggeKoTgLIB0bF+Vl0KQCCRjtlaQZAaR41ks9q1/a6wNqkenuSullRQ25DG+N90VxFpFljJJiuNpL2g2fJwU6UE9/RcQyjeipk00ZusG6KGX1dXUBoI4HE5oBSko+uQWyZQGCS6HAzElTfWp6Vhrro0oo+DacPXfWlIlIIlgvNTVGsJHi9TiwbNVM9s7jQD17tj5RZ6JTg3LxUioJA0pqNDExGaYlbVapzGltra3yprealFSBhorPnTt3on57PvyYCKjtGDd9Rbr10IqwNbKMRchfqsH2Ifp8qKnMXIMD9czYlXZt7vkL01R/qCA+spReFCe4XWDox3t3TU/dHQ+Zsb2X+nUL4BSz/lbBzq9eLSopV7+NYC8oJox7kxfJSLChxfJnQM/y6WRZwIH6yarPrPwaGg6oFgvipQPOh6T1+lIqL6iOkDnttnjpdZJiROvVAWP6qwT778j+m5sJfrrsDiedJEfw0wsKnEebfqvnV4kO1DNTHzxbr5eWDKz//R8PNFo4Y6NT0F7++MtP1qZd1IihT26BbFtgVy+RKysrlp8ECWQ86wB4KC/dGr3u6uxQFtMKG/XBSeOOmmzXUObO50A9c7Y9sSXTOAASBwTQh5U5jZTb6L6W6+2+U8kY7ty+6Zy5DNY+YGJTQ6Grqxum+vJeQaQAdNReCosKwgVPL51B6+dH0Q7UM1cPywJDCwuvwt/+8WsYE6VvQ21di1Rf/vrXP4Xa6irR+S5n7uReslvgOxbYUpbvxddLYVzCDQ8fPbGXSgQFeJGk7yX7dzUUGMVROAXmO4Y8ZrscqB+zCsuHy10V1WLpzZvw8PFTazBWV1ct+2ijvOk0FOi8Fsq764Ax/bUFSOdFaV0qL8uKD4CrDj+9tESZSAXW0U73YLf02z3fSnSgnrkaWVM+iNcCQ+hXIzdLEiToBX/+4y+hQcHxACEm91hmrg685K9bgIBnKKcvFFDKvTkzOxtmRdUqV+zENUmJ9khbvaW5UV71izbK6vfo1+143LY6UD9uNZbD6yW9MUBxQam2Z0R5+fW3R2FKQ8Nwohtu3JAn/ZYFt1yvvOadWIbqCbWXKIh0Q0oAK2bnc8o+SiZS1F48mChDhs+zYh2oZ65CULJ6+/aduMADGjUcCeOTExZ784effzInBGDdKX2Zs7+X/H0L0AevyDk2L7A+JLDe1z9gsUpsvyNt9W5RYOrrao2/7vfp9215XPY6UD8uNZUH17mtYTd46BMTU2FsYlKUl0nLPkoiEIaGu/U2T/bREkmY+Zt8BipMb0qmACCt53WpvSDLyBBngV6USgXSSTGN3d32GbB9nhXpQD1zFUK2XyTxhgTSB4aGQr+C5QkgvSUlK5OdVWDpeb0cu2515urAS/6+BeiLyfxNjNjY2IQ5zhj5qa2uDjduSKVIgg7VommhUuRiDt+35XHY60D9ONRSHlwjb+tkHyXQalAd2Nj4eFgV9YIOq13cuLbW5mRiI+fGZabCqAOCeOHM8iHlORH+UF5KBNIJKPXpdFjAgXrm6plRK56tcTkjiMN5qORHjFQ1NzWaRONNyTQSsO0J3DJXB17y9y3wUX0BNBj46qgUDQwMWrwYdNPLly6Hzo5201ivlahDUWGRRoBcqvf7Fs3vvQ7U87t+8uLq4ETTKMw9n9cw8KQSL4xbhjQA4vXKSss+2qC3+CuXrxhwd49uZqqNetjZibx9WwomfS8de2IBkGQsFGCHn+7T6bCAA/XM1TMvxNsKjicLJMoa/3jwwJ67KlH6ULT68f7dKAbHZfAyVwle8nctENNQ0fmHBkOywUGN/LxTYqTdj7uhprrGRrl7e7os+NmVwL5rzrzf6UA976so9xcIOMTDNKpIc/hwc3PPw5s3b0McPIo0FIAdHW/3pmemvgAPvCxtCUCsrKxJnvG9nai4uND46efPKYhUCTB8Oh0WcKCe2XqG/jIvnWpGDv/+6wNL7Iay0m1xgP/w84+hRJJ4qCz55BbIpQVoB7hX6Zstc+nUdFjSqDc0SAKg79y5HWqVwZTEg1C13ImWy9o6/LkdqB/edqfimwBE3tqhvAwMjoTHSq+9urYaftfw8I8/3rPsozXiwqHl6iA9c7dE7OXbkCd9bW1Dyi+7svdZ46aXlZV4EGnmTJ+XJTtQz2y1ELC9tPQmTAr4PHikxEfi/+4KFPX29IRffrpvsTgkm/HJLZBLC9Av8Hmte3VBuUz65UibnJqSdO+6KcF0iAKDEltLU5PRtZyvnsvaOvy5Hagf3nYn/ptQLbYVuIhU2dT0jLxLvLWPW/Di5UuXwv17dyxjHwErng0ts7cDdbEhScZ146Zv2ckKRHVB6QVpRg8izaz98610B+qZrRFGr1YUgzOr0cPHT5+F50rfTowOGUpRtyKhW+W1CvdQZrYavPR9WoC8JmSoHhkZldDDhN233MPco80C6Z0dbUaBQcbRver7NGoeHeZAPY8qI98uBXrFijonJBjhwCHLyJt7Y0ODabXSaRGsQgCLe9MzW3vopRPlj376jl6eGMYs0dB7kRIcFYn+wiS9l8xehJeeNxZwoJ7ZquDFGPBD9mXaPjzrz1/Mm+xdR0dr6FDbd6O+3l+QM1sNXvo+LcD9CgUGfXWy6fYPDJv+PyPf9NFdne2hUbKiLNNXO1jfp2Hz5DAH6nlSEfl2GbyNI/9HRPno2Fh4piE1hoMLCwpDp3RaO9tbjZfO8K8/+JmtPRphgBkeE9ReqBtGMMoIIi0oCOcvnHOQntkqyLvSHahntkqgE9De4ZgYGh6xtO2MKML1ra+vC3fv3DKpxjM/OOjJbE146fuxAPcr/cSanDkowYxo5JtR8OfqvxF9gJ7a3t5mI0JIjRaJw+7T8bGAA/XjU1dZu1Ieery2cDQHh4clxzhsWsKXlTq7panZAqq6OtsseNQ5b5mvlgiU7YRlAXXUXpgIFrp4scwk4pCO8+l0WcCBenbqe1kjiuSMoA181tdvPN+rV66EP//pD6LA3FRsiAfoZacm/Cz7sQB9N8IPM7PP7QWT+Apyn+DQIb7i1s2eUHW90l443au+H4vmxzEO1POjHvLqKkiq8/r1a/Omo5kOP3NJKi9EkZOiuLmpIdTV1XoAY5ZqDam4zU0FkW5s2PAm6i4oTpSXl4ZzHsmfpVrIr9M4UM9OfUA3Iwsz7eBTcdU//v5R3sii8Ne//Dn8ePe2jWy5syI7deFn2Z8FoKy+e7ccpuVRf6qXS9SLlpeXLa6ioeGGJUOqr6+VvnqhJ0Pan0lzfpQD9ZxXQX5dAMNnZD0bV/ZREn4w3ItO63mBw7a2NvMiEaBCMKlPmbeAHCQKIt20z6bqhfpBE5cER6WlJR4bkPkqyMszOFDPTrVs6OUYNQ3oL4+U+AjvJM/kv/z1L+FHBdPzDBbIW+mTWyBfLEAfQWK8l68WRYEZtX58fHJKwLzA+u1bygXQ1toSriiLOA4f96znS819+zocqH/bNqduD8NmW1tbpm7w6PFT47ktvVkyikuNtFgJHu3p6jTOm3dOmb89It7h72FN8pjr65uRdrriRdFzhvpCw+tBvJmvh3w8gwP17NQKTou3SiIzMjoWHjx8HN68fRs2RT/7w88/hXvSqK6ouGLStA52slMffpZ/bgH6DT6rokouvHplQH1II0LLK8uWuIuspW3qy5vkXb8qsE6GXb9//7ldc3mEA/VcWj+Pzs1bOB8oLgsaKvv1wSMFo0zbAw+njQDS5saG0KDIcU+ckJ2KQ+mFwNFVBfWuy6tOanNoL2QiLZIXj0yk3sBmpy7y7SwO1LNTIwSU4kVnZPHX3x6aCsybt+8MpN/s7ZHyS63J3vEc+rOYnTrxs+zPAlBg1tfXjbo1OjYu5aIZ0WAWQnVVlakXAdjraqvDxfJyA+v7K9WPyoUFHKjnwup5eE6knQgg5WGe0DAZQ714j65evWqpiEmdfa3iaigrK/UOKUv1x/AljS3JKwALcGGhvaD2EmeBdXCQpcrIs9M4UM9OheCZ3JUDY2JiMvzjwcMwMzNrnN+ujg5J3nVI+aXVgvMcqGenPvws+7fAR+5dOXreqh+HvjUwOByG1a+zvbi4WPSXZuvb0VmPc3Hsv3Q/MpsWcKCeTWvn6bnojJB1IgBlaGTMvEevlIkPMmZTU6Me6FZLmFAmPqYHTmWnEkWDVazAjqm8QH3Z1nB7gaguUF5IcnReoN1pL9mpi3w8iwP17NbKtAD6Q9EBAezklWhubAwtLc3hVm+3Ben5KGN268PPtn8LbIrOSv8+NDwahqReRJZd1MOuV1ZKGKLRBCIqrl4xSqu/cO7frtk80oF6Nq2dh+cCpPN5KS7brCSdBvXGjUed5DnIMfb2RCovNdXVpnCgEV6fMmwBQDp1QmOKJx1++vud9wLoxQbSo2h9l4XLcDXkdfEO1LNbPSQ76h8csszMo+PjRh8g4dE96ak3NtQbdcBfnLNbJ362/VkASiujQowGTUwxWj5qybtQDKuprgl3JTMKheuaRCJwxPl9vD+7ZvMoB+rZtHYengt6xdb2VpicnDa6y6QknfCm19XUhAZlIO1S6uHqqutGecFr5FPmLQBIp2HdUBbSdbzpAukfP+6GctGOSF5RIG6610Xm6yGfz+BAPbu1syi52nHaSHkkB/S5qFTsldeuhXt371iW5hIlkWGUyye3QD5agD6FoGjuYygwE1J1Y71Qo7RNjA418xEFprTUZBvz8Tec5mtyoH6aa1+/Hem/d9JY7R8YCg8fPQqvlNUM5Zeff7yvYd0eRYY3KLFOefjhjLvSs3Wr4AEBiEF5WRM/HU7hD0pqdFG66SXFheEsXg8f2shWdeTleRyoZ7da3inxEXrU/QOD4Yn01PE8lpWVWVBpe1uLqWe4ElZ268TPdjALwFffkooRHnW46iMKMCXYlJfOtrZWSS/fCpUVkl5W9l2f8ssCDtTzqz6ydjWAwfdSNCD76JzSDPPQjoyM2Pnx2v54/37oVMphsvDx1u1Bi1mrGgPpBPai9LK2tmHe8/PnBQwUI1BYVGCJprw+slcf+XgmB+rZrRUcGngg+/oH5NB4bKNcyNrdvnlT7WRrqKmpsgC97F6Vn80tsH8L4FVHxYjA0tm5KHMpKjCburevX7+uREgtiklrEA2mLsp47SPo+zduho90oJ5hA+dr8ai8rCuZByB9aHgszOnBnV+Yt+Hc6uoqvV33hsYbNyyZh9MssluLO6K6EABk1BfVUaEyyCHHWCxvOqovHvCT3frIx7M5UM9uraC+RLxIX9+A9NQfGWinDhh1hB7YKPoAilg+uQXy2QKAdZJ4IcM8rNwAUGCQYS5U/4JsY1dnuwlHlCQoMO4Qyo/adKCeH/WQ1auASsHDSuaysbEJSzNMVPhH6XZ36kFFcqy+rk7SjFfce5vVmgmmZY/ay5oCSJlv72yL7lJs3PTCwgvGg/XGM8uVkoenc6Ce3Ur5INoAo1zw0x9L/eXF/LxGu9ZNMQNw06GszVAEfXIL5LsF4twAeNbHlR/g8ZNnRoFhhKhVXvUOjaTXKsEhSjA46Ty4NPc16kA993WQ1SvgjRrv0Fsl7Zicmg7DI6MKLhkyRZeKqxXh9q1ee6uGt1ak9MI+Zc8C1A2UpI3NrbCysm7DlGwjwRGSjBfUkProRvbqI5/P5EA9u7UTxY18CKMTk2FAPHUSyCwqngeA3imPek93pyU+8uczu/XiZzucBXjxxDk3PTMXHj1+Yi+eyDMj2VhXV2vOugapGhVLaYx+x51Dh7Nzur7lQD1dljwm5RBQ8m5FgVHzCxb9PSWw/vzFCz2cddbZtDY3hxs3xFFTsJR3OtmtVEA5AAyll7fvVqxxjDORlihuwL0b2a2PfD6bA/Xs1g5Anc+sqIKTkq998qwvTEsh64boga3SU78tPfXKymtGU3NQk9268bMd3AJxX0NSwyndx2TeHREVBhW488p+fVuBpd1K6FVVVSm1sTKnWx7cxGn9hgP1tJozvwujo4FOMff8eUCGcWRkLLx5s2QedpIa3ZEmMFKM15SN1Dub7NclL1E7aigB6svLq1J3OWuBvGSNI9ERdeL1kv16ycczOlDPbq3Eo12vl5bCC6m//P3vvynnxHC4LonGxsYGBZX2Gl0Anro7OLJbN362w1uAIOk34quPMVIk2caFlwumAtfZ3h7apQTT0tKkuLUKewE9K+Uxn3JjAQfqubF7Ts5KACm8yr6BAb09jxtgD8quc0XKLh0aviUwio4GTrRP2bUAQOD9rjTtN5XkKKGffkF66dCPoL0USXnHJ7dAbAEH6rElsjfnGV1dXbNA0v/33/9TlIGnJm1XV1sjyuDN0HCj3ni9nr05e3XiZzqaBWhHiINCVGJsbFK4YFROvOlwreKqZdzt6em2+/rypUtGgTna2fzbh7WAA/XDWu4YfY8Ohg8cNAJIH4qTNqUMZVvyriO/yFtzk7xCaKZfuKCARUkB+pRdCzDaQezA2tqm6dij/IIsJtlImZPkyCe3QGwBB+qxJbI7J8cEI17/69/+I/z28KG852ekPX1NKlk3Q0tTU6iuvm7Sdtm9Kj+bW+BwFkBY4qNGcpEeffly0TKTI9MMhx2FsabGptDc1Ch6V5PlDSCbqU/Zt4AD9ezbPOtnBAR+kKLL3OxcmBC/kg7mhTjqF/WW3CZ+5f17d4zycuXy5axfm58w2EtUTEtaXlkzdQkaUPTsyxRISjCPe+n8Tkm1gAP1VGtkb3lXHkhGJv/1f/9H+Puvv5lkI4H39+7clg51q8X34OzwyS1wnCyAY4iX0CElQkLZaHZuTvTLFQuQbhFG+OWXn0TzEgVGMo5Ov8x+zTpQz77Ns35GeGirivBGqQA5punZWeOq31AAaZuy6vV0d5m0GA+hT9m3AKMdUUO5rXqS2oteqvDUoZteJo86mUidH5j9esnnMzpQz03tIGH7QRS1v/3jN5O1e7X4yl6iu7s6TQGGwNIixZO4pF1u6sfPejgLmDNPyZDIvjs3RwLEMQPrxE2hBoeqEYmQqq5XWm4VpBx9yp4FHKhnz9Y5ORMgkOQGaKYO6k15YmLCkukUF5coUUd7aGttNtqLp7/OSfXYSWkkNyXJiCwj/PTwQxAF6bxiBcRP14dO370YuauffDyzA/Xc1ArPKp9nylDaL1nbiYlJcXx3QqtoL+3Sn0Ypo1TJYpw+mJv68bMezQLQuqDI9g9GEqQLAu5n5DQCpLc06x7XqBH5AkpKSo52Iv/2gSzgQP1A5jpeB+/i/dFbMh50EhuNCaQjy1iuodqa6upwU4Ei9dJMvXz5klMrcli11BOedEA6gT1nz54zlZfiogLzzjlIz2Hl5OmpHajnpmJwfPCZmJwOo+Pj4VnfgFQz3pinEZUMgkppT4s9B0VuKsjPeiQLgBe2t7eVY0WSjXoJHZKyEcAdGmajYti65Vmvq6mx+/1IJ/IvH8gCDtQPZK7jczCdyZYeOFReUHjpkwdofmHBKDDw0tsSGcjIPoY33cFgbuqWegJ0LUtNAooSy3Bc4aZ7EGlu6uQ4nNWBeu5qSUJZRhGYmZkNv/720PJQAGRaW1rCzz/dNzk7tKd9cgscRwswYrS4+NpyBjzr6w8zcvSBIyolRQpVFuzQ0tQo5x6xUx5cmo06dqCeDStn+RyAP7hlb/UmTNDosPTSBzVMu6lgER6sP/3h5wCnskISTHh+nE+Z5QpKOZ0BLgWnrQiob21tm7euqLBQw4tlCiL1pFMppvLFFAs4UE8xRg4WSRTD6CRc9fHJyUCQabPoL3/+0y82WnlFXnWf3ALH0QLm5BNWeLe8HMYnpiwZEhnMceZVKMcKfHXi2i5dvGgUGG32KcMWcKCeYQPnonhAOpznF/KgQ3kh8xjen2LxytBH/eXn+8ZNLyoscspLLioo5ZwkoEImc2193QJKSZbCy9PF8lJ7qfKRjhRj+WLSAg7Uk6bIyQLB+YuLi1J+eWja0++kkAGP9y9/+qPNyVLq+CUnVeMnTYMF8KqjAvPy1Wu9iE6Fp8rEu7z8Lvz+8ffQ1NRoyZCgzeJlJ7AU8QOfMmcBB+qZs23OSgb8oYuKFOOzZ/3h9dLrsCLZv2YFg6CH2tHeanKMZ86cdcpLzmoJWcZg8m4EkfJiReMI7aVEqhGlpSXe+OWwbvL91A7Uc1tD0NSWxE0n6dHg8JDoL/NKt14lj/ofQ4tyUtTWVHvbmtsq8rMf0QJJh59GjvoGBs3ZtyDnHzEY3OtdCpxGY71MwdNorvuUOQs4UM+cbbNecsR3/iBQvhpm5p7L0zOmtMCD1mGUlZbpwZLKiwKeSAkMh9K9tVmvouQJqauP8k6sKcp+Y3NTQaTvzQMH17VYQB36y5kz7pNLGswXPrGAA/VPzJH1FZwhKysrpo4xMDRibS1qGD/eu5vk8DI65rTCrFeNnzBNFjA8odF59NSfK3Pp+ESUuZTYN7BDd1eXPOstRvWCBgOt1jFFmoz/WTEO1D8zyHFexSOLZ/blq1cC6ENhSLwywHp1dVXolHRYr1Re0PklgQ6diE+5swAgnfpaWV0VWN+0ZbK+lZWVWBApdeSNXu7qJ9/P7EA9tzWEt3F9Y0O5KSZM9vbx02cmydjZ0SEA0xF6FAMEJeC8ciD45BY4zhZACYb4KfKwkNV8UlnNn8vL3q17vVMSz51yANbIw14o55JTYDJT0w7UM2PXrJfK2y8Z8xYWXilKe04gfUTLLw0Ion9682ZPIMERCQsA6Q4Cs15Fn5yQxm/n/YeELOOmed4A56VlUnsR/YVMpF5Hn5jMV1Is4EA9xRg5WKS9hcM7pdifoeHR8NuDh+G9nml4uzd7uy1TKQnkPEtpDirHT5lWC+BQor8iGRLBpQSWIk16sbzcOOrIkjY23pBnvcpGgtN6ci/MLOBA/YTcCHh44E3iQcfLw1svQ1QEJnaKS3b3zq1w+dJF45OdkJ98bH8GnTyZSDflpSDBBPUEMIfnB/WlQMmOyEQKUP8UrLOe+rM/X0/d58sn2QIO1HNfuztyjLwQNx3527/941eTvqWNvSMt9T/8/JM9y3gZfXILHHcL0Gcx+rv4ein0DwyFAXHWoWxCz2xqbAytkmzslmf9YvlF96pnoLIdqGfAqLkocl2qIa+X3oSHj56YnBLSSgR5NDTcSGimt5peOl5bn3JnARo8EhwhlUlDt7W5I8/6jo1yoEt74cI54/oB1M/8kADragzPANptWwTeo2ylOkb7AO/6axlNc/fL/MzZtIAD9Wxa++vnwoP+SnrTcHfRU3+9tBSgr5H06M9/+oPigEqVWbj461/2rW6BY2YBMvBCrZ2QV31kbCzMauSegGri3W4IZ9y/e9u86uAOj81Ib+U6UE+vPbNeGsNSeNPpMGafPw8PHz7RfE4dxjkbhoWXznBsjVQIDOx96pLN+vWexhMKm5s++u+/M4S4a0PkcP4A6+9Ff6H+aNg++QDM9YmAeATIDZwbaE85lmM4VtsjrB7PsXQE4r89/7Q2PvXef7rP1/LLAg7Uc18fH/Tcoq41PTMXHj16bDkrNsRbR2P6D7/8ZFK4BNn5c5X7uvIrOLoFcDKBN16+XAxzL15YHNz0zIwyme6EK1euhFui1zYKsEd89QIbJT76Wb0ELOBA/ZjfB9AmSD0/Js7Y+MSEedPXRYGpqbpuCi+3bvYa5QUVEe8wclPZEcdPAF1D5Wimb23thA+7EUAnyyGT4PUXU1xfsbfc1gHlBsAjEM42+d0NqNsyHvYkmBfUDxMAAEAASURBVOeYPZCf9MonPfM6r77/tSm5PbH/60d97Zu+LRsWcKCeDSt//xw816g2EQv0TJmfp5WvYuHlS41iNoRb4qkDWmKZxuTz9P0ifa9bIK8tAFgHc0DZHBwatgDTOTkI4bBXXrsuucYGBZi2hasC7qgg+ZQeCzhQT48dc1bKO2UfXRTlhYdmfHxCHp63FsDU3tpqSQlI+VtE9tFvALKcXfgpODEdOeoueM3hs+5o6BBu+raWAb7o2J89d8b46CHhdf+ohpDGEJF1QDzLrGopWo4WbV0o28phE0Ag9ROPnsReePZBpTEPvXnvE574RBmp39UmlRXRbuwcrPMvBa1z/OfT17Z9foyvp8cCDtTTY8ejlMKzyTMN5XBoeMSSy41NTobKiorQ0txsGRxbmhs9eP8oRvbv5p0FuO8ZTcKbPjk5bZnPF18v0kVp5L5GMXFtoaG+PtTW1ljfRh/k09Es4ED9aPbL6bd5YF5IJsmUBwTUyUCKHNg1ZQu71dsjz059uK4MeciE+ZRdC1hjBs1FIB2KC570D1r+KPoLEJxYgQsXCixwFP1Z0DggPZZtjEC+gL5tiwA/237nYzieUgzBG4Dn13FOIHU0/W7APbEC8rY9BqZ1CEA+Au4C5AkPOw3qWbzxyjIXeeI/88ZThr4bA/J/Nk+e2xfSbgEH6mk36aEK5Jlclp762PikOUv65FkvKSlWQrmq8OOP90KvaDDw1h2sHMq8/qU8tQD90rKchAuSgu5XYCmAneWL5WWhSQm/ELDoknxjgRTMzp93idKjVqMD9aNaMEffx5NDMGIsl4QkI3xJJBibJJWEZBLpfclw6Z1EdiopBtBwzndFbdnaxouujzzoACsmdGZpuFB2QbqNThy5zAhkR0Cd5fgTe9htHe31eF/qsrbZCwD7PgY7RgVEZQDnIzyvs0fb7EL0x6B7DL6B8QkQHnvjAeJ8Ip58tBzRalhOeOfjY+K5wL4BeFuPz5GYc06dgykJ8qMV2+Z/9m8BB+r7t1Wmj1xdXQvTs7MG1B89eWovwATYEVB6787tcF7POs+5T26Bk2IB+qNtUWBQgsFBiNLc0PCwxVtdungpdEhfvae7M1SIAlMu8B73JSfl92f7dzhQz7bF03A+HpLVtbXwWgGkfYPD4emzvvBO2cOYfvnpvgUz1dVWh9ISB+lpMPe+i4i94bxE4UHfUIQ8fD7qC+81IxtFhZJgFBXpgjrvw3gaAN0EpXIu1GNs2db3tu2a5x3QzzaOSQH4Wv7dQH60nX17n+insh5PEa4GmAtc423H+24eeM0TtJ3YM2/eeNF52G/Hnk2Ae70BfAr+I6BO2ckGPEbw8Yl9/l0LOFD/rnmyupMAUkY2B0V/efDwsemr8wz8n//jX6w9Jj7oMM96Vn+En8wtcEAL0E8wYvzm7TuLjfvvv/8jLC4uGlgnsWJ3V2fAu46+etxvHPAUfnjCAg7Uj9mtAPACCJJ9dELDTROTU/bBO3v50uXw049RCusySYN5dsvsVC51AmfPuOg7HzSPPOm7H3cNBKPAQ0cNOI8oL2SGjQDvYa4wAtYR1UUwm4UE2I686Qa042140VO87+aRT1lnH8ebRz65nFImF2hlJa4UdB3jeJY1GdjGP29e9JS5qImA+D0vvPbxzwD/3nEG4gH3ibJ4K7AXA+b8i3Ykl+Pz2MlP6R8H6vlT8byML4mnPqwcFg8ePJLTZNm8jX/585/CT/fvhkvSVneZxvypL7+S9FmA0WMUzBZevjKPOgpICwsLyiFQHC5fvhy6RIEhToNnwGPlDm93B+qHt11OvgmNYk3e9EkNN/X1DegBWVAn8VZvrTWh8UZ9uKPERsgxxnSFnFzkKTlpBJgVWCNaC/WCmgtJjGLqC8PdJDIqLISLfsGAOjSXbKdZNiBunvU9II8nPtqeAPkG0uWBN9Cu4zjevhN546P1GNTjrWeZYzS3l4W9SqdcwDTIOwbVsUcd1B0B89jLnqDQCKiznY8dw7qp1wDU+aQA/pTte2dNAPq9DVYOGP8kTg7U86dWeTFfW1tXtsYJ01PHiQJv/ecf74v6ckt89etSwHCZxvypMb+SdFqA9p4RfstcqmdgcGjE7n9on709XVKBaTdMcuXyJesPrW9I5wWcgrIcqB+jSuaBILHRvN5eyUD65GmfPDdb5rUkeKOjrS3U19cGHgh/GDJbsTHNhSQQpuSiOR02XnW8yADygoLzSS46HnWjhBjozD585N4xRzjO8iSw1tI31mNPO9/7xAsvYC54ngD5CaBO2RyXAvbtfLZdx9gcx3x0nNUMdtCCgXBD9Hved7Z9DtJj2yW3C6zbcTGIT3wHb72Vaet46eP1zN4P2S7dgXq2Lf7t8/ESy3M/NjEZ/vHrb2F2bs7yWtyWNC55LJo1/H/tWkXyvvx2Sb7HLXA8LcAo/7ooYMTKDY+MKTP6dEC28YbUX5ApBaxDxyUZEs4rnw5mAQfqB7NXzo4GLO0wxPrmbRgX3WVUQH1weFQ89GIpu1SGm71dFkBKEJOnrc5cNcVgFKBE5wwXHbAeK7oADGOaS2GBvOj6oMQD0DxOUwyqddsZwAbeR789AvqC3JE3HeBuADziyANaoNHYsSwnP4njbL+9Mpg5OE+0oL+J95cYaNsqQJxdUGPwqmtFWDwJeiIAz3bAfcILH4N4W4/2WRl82f6zRhn297N5VLYdkPyTenxyY04XHKjn1PxfnJz7mKC6X0V9mZicFFh/Hkwit70t9HR1mJ56/LL5xZd9g1vgmFuA+5+2nsSLU5JtHBgYCgNDwxaPhaZ6R0ebNNYbja8ODey49Ye5rh4H6rmugX2en4QC6PXSAaCZznzx9ZJ5a3p7u0MTGcEUtEEa+mxTK/b5E471YTGgBJxHAH3bMrKRRvyjgjoBigD0AsB5got+VrKLZw1gRl7d42aACEOngmp+QbRufxN/ohneckA9QJ2FBKDX3NZTAD3eev23ht2OZ12NPDa2Bl9zW9f26F+K5bQPW8eTwXits2XPmx6BcLZG4J45H4H8BHiP6Texeo1tt2MiwG8vBpS5d6rolIkN8ebUa4mvKRtzB+rZsPLBzjH3/IUC+/stCczYxIQ8iLXmTUT5Ba8iMqy5ul8O9kv8aLfAwS1A241XndwuBFYPDA6Fdwo03Xm/E6quXxdXvUnZS3stYy8xdf4s7N/GDtT3b6ucHQlo2ZSCyMS0gkcnJkV7GQ9rkgQDTHR1thsPsqLiavB01emvIuFJA4/GOxco31aw6DaSiwmqC2AQkHdenTAgvbCo0Dpk+OkROIwhXfqvLd9KpKFmiue2nPgTbYvBPEBdy3jXDbTvLcdAP+mRB6rr2Oj4aFkb7HWB7YD+6BTxXODa9u7ZPe4QmH8S3Bp73uWpj2M67JgkmAeoqxx9mH/6ifYlt+ki7Fi7ms//RNdCUemaHKiny5LpK+flq0UFlI6HYcnUAVSuXLls6dR/vH8vtAqk0D5AifPJLXBSLYDjakejzHjVxycmTV/9pbL14ryqVTKke3fvhLq6GhO+4MXVPev7uxMcqO/PTjk9Cg40wUlPJMMIN31+fl7c5wJlAasOHRpa7RY/vai4KBQWFOT0Ok/iyQGDyCBCb9mSbv2W6gKgznZAOioucNEJGGUZr3oM3k6iPQ7zmwxCy16fTwa0o51mz/gQtkdTAqBrnTrghTX64HHnk7KOJ59jNI+///k89fyfgGpAODsT1BrWoNdE3netJYA7oyPRtj2KTXLdvqtjU8D43jmijfG+ve2pV3SwZQfqB7NXNo5+8/at9NQ14ilP4rP+fkmxFipe6HIAqLe3tgSUuDz5XDZqws+RKwvQ5tIuv5Un/ZWkGp/1DypjrxyLCjYt1f3fI8lGPOuMMKEC43z1/dWUA/X92SknR8VA5I146URUP376TMEas0a9gJdOgEaDlF7q9YbKDe/emvRUE40NH/TIY0CEB30bRRfzAH9UApNz4RxUF3kK+NABQznyOjhYHcRgmm/J5IkpuWC+cXbEHvUYiAuPR9usrgDsUZ2ZEo0dr/KsrlK2J47RzE6mPYlzRsfEZ4/nqS9cLBtdRvN4e6rsJID9i2MSHnuj19j3El54O1bLnIjtdsI9kE858ZS6HG9jzgjPjkZ31tY3wrKSjsQSoOXqDIs1qhOPEKR+x5czawGUL+Do9ouf+/jJE2tDigqL5EW8rUD/1lChgFLAu09ugZNsAdp0JBsRvkCyFM/6nAKscTgSVA1Ib9PzcO2qWACSbfxWG3eSbXTQ3+ZA/aAWy+Lx8NKR/Zua0jCSZI+e9PVZMGmFhlTbpPByXx3AtYoKy/yVxcs68afiBQmQbmouCuDd3NzWy1GUXRQgzpAdAbuFSl6E7KIP4eXuljBIr44hngyDq+4A9p964SMwT73ieY9oN9Fx8UtABNwj0B6/rMXl8cYQv1TsnS0G2xEAjxM/RTrxemkTIOd+2fO6C+wnXubA4jHwN7CeAPJGzdG+CKvvvRTEvy+eO1CPLZE/c/TUoSQ+6x8Ivz14aHxdru7WzZtyqrQpa3StMkWX5s8F+5W4BTJoAfrR5y/mLci6r3/ImADvd98rlq7aPOskQ8LRCFB3sP79inCg/n375HQvHhqSZwxL3WV0bNI007kgbvA2DaXS+CN3RGCGT0e3gAF0gThejt5DcWGu4NFdKbzg9gR0maKLvOdw7lBziYCYNzRHt356SkiCaQF1A+CA+ATIZt/etsibntwWe9sRn4yXdXy8zHHJYxPLuOP1P+n1/+QX6H7hpmFmnZAWmEdBrJF6DXtjz7ftE7DXQXZM6nb2ff7hXkVpaF2xK2vyXBETwb1ZrvagSB51Rnf4jk/Zs4AFmW9tmdrFw0ePLUsjeRV6ursslohsjRfLy7N3QX4mt0AOLUB7uaIX19dLS1KpGzfJxpm5WVFFCyzQul1e9U59SktL1GYV0/T59A0LOFD/hmFyuZnOn+4fjtfzFwsaSh20IFI8hJelkY7KS0tToyURcM7j0WsqAmFBNBdGMCS5qM51WwExeNGhWuDlPC9gHiUuAqQTFBZ5TI9+di8hlxYwoK0/EQhPKM/EQN3mkSd+D6RH6wDl5DYdl/TKw5W39T3Ar9K/+hNj8B151gWsY6qM5mcNnO9tA7hHgbARP55z8wKJPOimYid4YbwgoG6dnuIlWI+AOm8I9v+La3Ag/4VJjrSB9pk2hDgioykqoI706lAUCfrv7uy09tvtfiQz+5ePkQV4JmifZqRSx3PBC+yG1ktLSiy+rqe70xRhkHCMnRPH6Odl7VIdqGfN1Ps/kQ1rCySiy8ubKLrpr5Tt7opuZrKOcnMzfHTpYrl1yPsv2Y/83AIAng/i+5oHHR76Nl70iOZCw4HEIkGi6KEbzUUAKPZWeof7uTWP5zpgnRfj/cwNdOt4gHrsnU+C9BTwvrcNEL93LPdb8iNAb+fl3OLcUzb7uK/MF5/wMNl6ArgbYMfzzjd1LMCQ+xVgzn1ZJG8Voz1ntB7z5ve+n/DoW1kC7yonSb+xEv3PUSwQj8hNSp1rWKovQyOj4cX8gjlV2hX0f6u3J6DOFUu2HuVc/l23wHGwAG0UI03LyyumBPNAQH1hYSFsbGwahmkQX72jvVUUmBtJGulx+F3ZvkYH6tm2+HfOZ922OnukGFF5GVG09ODgsHnWt8V/ZKgIyktLc6PkjS6ZZ9fB4ncM+o1dajsSYGmPi44XHU46jQodLnY1PXQpugDQjeoiwG6g5xvl+ubTYwE6oBios/wFRcbAdwTA4wBY88InvO2xak1UTuSFj4JfI0+9vm7AHYtyDFMq4LYN+mMvDIn7FWAOHcukQQHh+hhf3oB5TLOJPPKUteel33sxiF8QoncErdnC53O7GruEaH98Nad7Tj0RAzEvIDIzMxsePX6mQLoJqXPVmNLFnVu9oarquqlzUTc+uQVOgwV4LuhbkS/tHxgQBWbGspYiV3rx4kV7gQXbIC9dLPW6uJ07DbbZ7290oL5fS2XhODpdPGQkMppWQz+mANLRsTGd+QcLQvr5x/v29nlZkdLwvLyxP3ilAHmwM7QBuOixJjoNCQ0KQAWuL5SiQoF05nGwKB7IhJPz4Cf2b5w4C8QAmh8WYekIUH+5HL8YRh5zvscHhzoqNXw5Av3RcQa+OUb3aeSZj+fx99iX8NRzjD5McQeXnHO3GkiP9tmytmmgaO9YrRhot+MSHncD+SzH1JsI3NPexB746Bx22uhP4sHg+bEpgeATaykHntzFuF7fyXu4JF7uf/7X38Kzvn5TtqhX8qNbt24qpXqdOVloU3xyC5wWC9BGrUuhCrDOiNOIRpuW3rwJq6vrFmvXLnGMpoZ6G3GCWurY5tM7w4H6p/bI6RogncxeM7Nzyuo1LEmj52FeyQJQdqmVZvqP9+6YtJHfyIerJjpSaC6x5CLa6AB0QDtezzggD/viRQewR97JCMwc7qz+LbdAZIEYyLFmkB6gbq5zAHi8LQbtmqtzM0CfOjeAHinafNj9oIBSvXB+eG/wGPB89oy46SBxzpE4CWXYemKjgekknubeFnDnXwKsR174hEc+uY2YjASQjzXjbV2FxsdQTnI5pTw7JHFCruGzie+clAlbbyqgFFDyr//271J/eaS25HyolJwuWRmbmxpCtbzqHlt0Umrcf8d+LQC+gZ+OEgxOyPGJqTA1NW3PQ21tTegUPQxqL5KN9MEnqV3Yr42+dZwD9W9ZJgfbt9TAo5lO5tFHT56a4guUly4lNOImbm5qtDdOv4EPXjkx4CH4jkBR1Bjgpe9+3DXPITr0yC0WFRVEXnTppHtwy8Ht7N/YvwUiHB2B6M+/lQqyv1yOddTfq+MTKFTnh6cbkA5Fi3uZUvHWE+8S02wirfkI/Mfg/fPzxuupbQzL0XoMvg2b6/mIpSc5dwTszesOgE+s720HjEeA/HNcHp8rnsfXcFznABKC0v/nv/5b+Ns/fjVHAKOgAHUSH9XfqDNHwHH9fX7dboHDWIA2h8/bd+/EU39pyZAYceK5LykuDh0dbQFlpEbx1QmKd6/6npUdqO/ZImdL3LwEhL17t6zMdnMWHU12O7wuFy9esuDR9raWUHH1SihRtLRP+7SA0AqecnijcM/5xGoueNaxO0ACOxsfXSAH7xeBeGz3yS2Qawtwj6ZO8Xqko/5eI3CbYWVt3e5Xkh6ViOPJvazez+5v48fLC8/3Pl2OtrF97wO41zrH8y9C+7aceg3xMh0syZwMgtsyAD0B5m2eoMxo3x5lRsdzrO2PPPDJffF32W8noazE2eJtiQ17m+Ol+KpyP2ckhPr59//8b9NThwpD1ujeni6jLpKZkTwMJ+XFJPcW9ys4ThZgxGl1ZVXJkBSDNzQUXr9+bUyCymuV4YZ01W/qObl+vdLAu4P1qGYdqOfBHU6jzlAp2Uf7lNVufHzcIqThNXZ2dFjjTjYvhoOc27jPChPIAHSYoosNuW0lEhftWMIbVDKgthRIyq5QQS1FmsdewH2ewQ9zC+TMAjFQjzKTromiRVyFdNTLpEksEBgDZgPb5l+PqTB7AagA9whU7lFsWMfznkwWFQN35gbeAfB7HwwQrdvCnj0S+NlAeQqtJulhN1WaCNjzLEbP3p4nPgneAeb8B6jHH8rTmWxd4D7fJuyBHaG9PH7aZ4FzrJtMo7yGtOkEzTkIybea8+vJhgWiNmdXz8ULU7Yjk++UeOvE41Rfvx7+8MtPJphxreKa4R2e89M+OVDP8R3ATQu9Jc7gNaTkRm/evpX3d0cKL616u+w2DheyXtFQs9+036uyqJMEaEhykSFo0VsIGCU5DEPSPPTI2MUe9Avn9fJzXtlGBRZiIPC98n2fWyAfLPA9oF6shEcRCIzbii+98ntgOwG0PwHhMfhOAPKkRz5ajz3zUaDrHmiPAbvNE+VhK9ZtSr0MQHdio3nlWU/xsvMspoJ1fk+0f297rCuvQyPgzjGJctnG1uiZZjEF3Ec77eyZ+BP/3qGhkTAomcZhBc6trK5akhek6G7d7FHiIwQBPFFdJuzvZea3BaJ24ndTtlsS1XdA7IGxsQkFly7Z6Da4h1En1O1I6Mjo02mfHKjn+A6A8rKq7F2Dw8PGTZ9UcAX9SMXVq6G7q1PSRd2m+FJUVJTjK83/09MAAB4A5abosrUTttBG14d+m66azpGRCfjogHXk7OjMfXILHCcLxAHRawo+J/vfnke9NERAPQKpR/1Ncadqz1YSsKd64AXUk9vxJEfeZG21ZxHlmvi7MUce50RcLstfm+Jn0jztgGyB8AiYh8QcwL4X8Ipj3Y6x46LfThk2spCg1AD8DfAnn3eO+9rZwfXf2PH1w7+6dVZiAJOT0+Hh4yc2WgpPvVUc9fsSBbgmxwtJX3xyC5xWC+A4o28eHhmTup3yxUxMhDVlY78kum9TU6NRxa5fu+ZJwnSDOFDP4VNCZ4Wn5ZUkix4+fqpGfdI6XbJ0oSvarDfK5sYGe8skQMyn71lAPH+pt8Q8dLjoO2oE4KcLMxgtgMyNyFrGFCJLXIQX7nvF+j63QB5aIFtAnZ9OO/X53LZoe7QrmrPNjtVG87YzTwHqe5KSHL8nOZn0zH/i1eeY6Lw8wLaoVS2BopMv3izYmrYBymNgH1F/Io58BPJ1FPsN3DPX+mcfK1fl2QsB5Wo/E2UeZlpcfK3h/fnw919/s6F9YmHwFP7y808aJa003ejDlOvfcQucBAvw3H/UyPfCy1emcGcJwl68MKEHlO7aFJfX3NgYmhpvJBK6nV5JUwfqObrjURvhjXJ+/qVppj95+kw37EuByAJJMDaEO9Lcram+nlR5iTuNHF1uXp6WjtzAgcAA9tzZiYJFeUsHsEMPgBPLSw6edLjoZBk9p0/USeflz/KLcgv8UwtkE6j/04v57AB7Lnk2P/tEHvVoewzkI/AeAfpPt8nrjndegJ5yPu6yzHf3vPGcVpv4a/9jaow924bgE4A84VFne+RVTwXqEaUm9rTbMQbo94C8AXWAO2VqivA7+23VNiT2fLKPbIzoRv/33/9h+TBwHpCJ8U9//EOolxwdXnWf3AKn3QJrCoaH7jsyOhYmlIWdHDK81FZXVVl8HrEdZVKBgVUQ9dvxg3d6LOdAPUd1vSlJtdX19QAnfVQ36OzcnMDle+ml19nNCTe9vLxMFI2CHF1h/p8Wbx3BosZDNw+6Movq5ceG09WLnldSEfTQUVwgCBfAHnvakp1s/v9Mv0K3wBcWyGegHl8sAJspCaa/scx+XrljCg3fMkCeoNSwP+bFR8sci0c+Cnw1IG/rAPm9cuw7dgExuGYlmgDdcacPwAdh2yx1u7bZMSnAPZU+E1Ft9l4GYipO3MasqX1fWnoTfnv4KAyLq74odYsa5cP4s4B6k0ZKASLeDsU14vPTagHasq3tLTELXoVxUcUeP3kmBbx3FjfWqOcEz/qNujpTgoGqetgRruNsXwfqOag9OhPeIPG29PUPmvj/hrimaIeiCNDW0izaiyS85AGmo/DpUwvEPNj3SvSSCtJNqUKdd1LRRfYDqPPh4aaTTTjFPi3Q19wCx8wCxwGoH8ykgGwAOjD90/ne9r1jknx37TR6TcL7HrUNEWBne+SFT5SnY5MeeTuJtuON53z2lwVlJ060uQbSaTD4r20xXSbpfY8BfKJtMepNgjfPMVsSCcCrTtp0vIXTszPhqmKPfr5/P7SojW+or7PAdo79Yoqv4YsdvsEtcPIswOg3yR5RgoEGPCfHJTllrly+bC+35JIhuBR5avrz0zY5UM9yjZvHR53BjAKNJsRJH5QyAEFHpRL8J/vobVFe6upqw5Url+2NMsuXl/enw36R4sUHywBIpjNAC50yCV/wmjMKAdUFTXR46HHHmvc/zi/QLbBPC5w8oP7lD49B++d71ARo0h/7H4Fythno1gK7bZ1lAHwCsNucZX2IXYlf+G37LqA+2vfl+SgRvL4H2uNjDMwLVMegHnwdg/oPKhPN6Em187T1BMshy9jT1W2KXq0tTdZOIavJd5LTZyD9k33Jg3zBLXByLMCzznNIMqTR8SmxDEZNLYnnlJiy+3fvWHBp5bUKU4I5Ob98f7/Egfr+7JSWo7gZt5QRc11DomPjkxL8H5Us44uwKo4W2biamxqN9kJio0LxscwDnJYzH+9Cok6XJCKiuojaQtY/POn2kYxl1DFGkou8bV8okJoLXHSBdPZ5R3e869+v/ksLnAag/uWv/mxLDM5TNqeC+6jdiIF8NDdQrh0G4AXMI4CQ8Mpre+Sp//Q7HJMsy94OPltPOT+LBrnV7nAOpGFfvHiuYNKpQLAcbXqD2nrUXzra2hLB7XsxM3F7hWSlUXES7Zfx73lVsHVOYq8Ne/PorGz+ZPK27xNz+EqeW2BDCdxeiSIGVx1508XXi8rQvqLM7O0S2FBwaVNjAKxfEJ31NCUldKCepRs3aux/t+yj8/MLkmMcDQNDgwLuW+G8vTHeFe2lzTTTSaf71eHQLF1rPp2GDpIpAujvw9bmtoaUI0UXhrXpnwgQBaAjS4cnPUqg8lmPFRXjf90CJ8ICDtQPV40G5D8D+LZNxUVgHD58NEIXe+N3Y6+8eeFTPfGxtz4C/FyRtfOJOS0Q9fRS3NuZmRmjwBDozmhpS3Nz6OrssvgZyySrYwHVtPu0X8nEUGyzUcFoH/sB+zZKKCRv/7QeA3It2hQB+r3t0Vb/6xbIbwswWs4z8uLFvEk2It04MjYerguc1yoA+9bN3oAKDHkI4ucmv39Req7OgXp67PhPSyHocVugHA7W8Mi4IptnwvPnz8PFi+UKkrge7ty+ZTcgHCzX9k50eOo56ej48PCimoCaC14xJmgu5y+cE1AnK2OkiU7QaNxJ/dNK8QPcAsfUAg7UD1lxn4H01FJip0AEtlO96nvtke3TgdFc29UWsRwr1kQeeYH5iJejnA674fXSawH12fCsr8+SvDCUb8nsentFhSk2sE4ZNgloA773lrWUAOIxRz5u3yK5ScA49L7EnO/bssB8cjsb2R+VHYH5aJ2N0chtdE47Jjogugb/6xbIogV4DgDrxHa8Wlw0kD4spyZSy9BYGxsbQ1NTg8k2XhJ2ot+PX1KzeJlZP5UD9SyZPAosWtZb4kR4pGAJGu81JSphCJRGu6e707zpWbqcvD6NdXzyYkVcdGUWFUDfFGVoRzQXvFx4mMgoStKioqICe7EBtJ+GBzavK84vLmsWcKCeNVN/90S0VdZeAdbxuEtG0jTiAeryJ1BPb968UUzSXHj67Jl513E20ObfvXM7lJWVGVinXbPvxeUlXgAo2yZmEZaOgDzLAtSxd9087AlgntzG/rMRYEehhvZRGN7mqdlgYy8954nK4aDk6dj8xeRt7Rcm8Q1ptAAKeMR3QIGxQOzpGdFglmw0CurYndvIV1dZ0jBGoE765EA9wzVMO0sDvqrERs81nANP8Vlfv7btGj+xp7vbKC81kupCjvG0T9gKLrplFtVb9M62JBfF89wVn5SJh9KoLqK4MPSFN906mq8pJ5x2Y/rvP7EWcKCeP1VrYJ3LMZCtWYLHzibaMpLa0fbT7iPD+/bdcmhpajKwUWmZFy8nv5MMcKUsKDfGo//Uo2/F8w2O4SRMdDQpE0Da/n0BzKOETpbUSajdlGqg05gXPqLV2HdtHa87nxjcU2LKcvIc/wTVp1yXL7oF9mOBCAfsyqv+2mgwfQODCsaeNCx1RQkhb/b2iK/eEGoF1klieNLBugP1/dw1RziGhhqN0MXFpUSa3EkFko6HS0onXVtdHXqkl97a0izZoeJTKTuEaa3DUT+DRwkAwts0PHQ+u1onmREPIl7zWM3FEhdpneEwn9wCp80CDtSPR40DOPAMvhTgGBwYkk70ZJiZnVPCo1q1/Z1KbndDnsFqA8T8ogicA8IjLry1jQbYI2BuFJsEgI8DX+NtfCdqS2lM+f8peKd8gLeB9GglytYKUAd0J8F5tI7vI/a8R0A+Au5fgHq+q8+eF551O0HKtujcbGWn7bYV/+MW+LYF1tc3wsrKSnj8tE8xfcPCUYvW5xPj0SLc1C5GAvThYolvnOTJgXoGa5dGE9oGQzZk2xoYHAzzCy/NwwI4J6nRDWnpVomjDrcaz/BpnHiZSdJc8KLr814AnQBSADofNOUJGIWTdla2OpvsVLzJP433zGn/zQ7Uj8cdQB9A24YXHQcNCe4GBocC/NoGJXO51dNjahZn5XSw9l/HG7zWnIkZW2IAHs0JeNW2JD2G4/aO4eUg3s8y+4Tto3m0oOXoGDuH/qS2osBow93RHwPhEcBne+JD+6t/qQD/EwCvvizm0Nt2juU72m7foezPJgP7n23z1dNtAZ4dHHej4xNhbEwfzZFwLJJwBBSY7q7OUKcg06rrlSfaUA7UM1i93GCkx52YmjI5RjKQEhSJli432G1FMF+5fMl4iqexkbIORR0HdtrZ+WC2YZnsokx4fi4QLCqAXiDJRbzoZ89G2UUzWG1etFsg7y3gQD3vqyh5gQDltbW1MGXOmiFL6IJgwLWKivDzT/fDnVu91sZ9b/g+BuIUquKS4B1UHwH5aEcEygHxEW0mCdRtPbHdwHvksTdAnwLy4/I4CecRvv500jbrqwyws1sH8F/rAPEIhEcgPQ5yjYG57TegnthP8ZRPWfyzMqN5VCzLUdmfXkT8Re37YodvOGkW4J4mOeQLSVmjlkcypGXRyS5fumxshFYlh0S2EZxAToKTODlQz1CtcnORjOe1vOlPnvWHcb0JLrx8acM0rS0tNmSDVx0qB17i0zZhH5RwAOYbG1uRoosAOh0MjbPx0ElcxMMnkH6OBl6f0/hCc9ruDf+9/9wCDtT/uY3y6QiyLiI5NzA4HH578NBicAoLC8O//PXP4ecf7xvPdr8gwwA0iPorU7yPOQA+AtwJ0B1tsTaW9pdPTJuBRhMlgQLAJz4J+o0lgtKop31Hx1m5Xzl3atscg26gdLQcgWqj0sSAPjGnXf/y88OeRCWeeDqF1AlQH68n9iXX4+0+PzEW2NzcMgrMuIJL4aqPjo3rfvwYKpTpt135CBDjuHwJp2fpifnNqT/EgXqqNdK0TEPHkA1vgXOSYHzWN2DBRGyrr6u1QIi6uppQLcpL3ECl6dR5XUzcOUB1iXXRCRq1gFGBdJpeFF3Oi9oCQCdI5Nx5cdNFfdlr+PP6J/rFuQWyYgEH6lkxc9pOQr4MAuOgvvz62wMluVszQGxA/acfLdsiGZXTOdHexlPqMtuitjh1HlFhoNMkaTMpQJ7jY058kj+fLCcC8dF7QQTjo/L3zh9fB/MIdAO+o+XY455KizHaDAAeQB4D+yToj7bFfcLenFFYygWyR+VH540gvG2ONiT+ph7zyQ5fyTMLgJ22t7ct1m9K0tZgqiWpKemtU/rqtZaXoOFGfaiuvp4YeT9ZSjAO1DNwQwJCuangVfHmNzQ8YtlHo7c/ZLluhauXL4fS0pIMnD0/i6TJtsbeHjjkFqWLviPJRVGB6E9oXBlZYIShSAAdykssuRg1vPn5u/yq3AK5sIAD9VxY/fDnpJ17uyx53tFxAfWHNtK6vrEe/vTHPxj9pUJKFrnsD2ibmeJ56nLqtqQqjXndAe+R9z3pjTdAr21yxtixAlJ83z6p5cfn40RMiXUWBZ/5EwFu9QuAbzYwx7GFgECSRnOG2C62ywMvh445vuy4VMC+B8j3+pIIvPM9n46HBbiHeI6I83vw6GmYFKUYlkK5vOiV1yrDzZs9yvbbqpfeEnPyHY9ftb+rdKC+Pzsd6KhlNchLb96GfgUNWfDD27fmIW5WpHJrS5M0dFsC2UdPA+WFhysaVoXm8sGkFkmrzQPHdrXQ8porWZG4ZVGwqJIXWWBt1ADvNawHqgI/2C1woi3gQP14VS8eQaiQ4xNT5lGHBvN6aSncu3sn3L51U6ICteGqwHqu2zva629N8T7mex8wNmA8EeD61X173niTm5TSLt9P8uOh06R+z1zz9AxMiethlsDUSSCfAuixW/wxQM+6QHjMk2efedu1zYA/mvOJY2yu5URxvCFokXW+z+aUfaxp1afsW8DuGb0YLksFZmp6NkzoWRobH7PnilH6XolzdHW0W3DpZcX+8dKW6+cpXVZyoJ4uS6qc+Eaan18wCa6nGp6Zmp62oZgq6aTfutltclyRysvJDHpINWdsD7joOwLpKOAwBPxBywANlG7OnTtvEdwM+xZIFx2viDeEqVb0ZbfAlxZwoP6lTfJ5C20hYB2A8as46ngD0Vbv7OgIXZ0dobO91RK4xGAzn3/LQa6N3x33A7H3PfLKA+wjb3y0HnneOSY6PhW8J7alvBDoy3vgPr6gBIBmBrjeo8/EHPjII48XPaLZpG4HgPMBnwPwIq99XB82p1wd8H0vfFRGfEk+T78FduToW1lZtWeor3/AFPV4ltrb20KHnqNuPU8owZwXffaswPpJmByop7EW8RLvZdMaD9PKpvVGUkJw0dHL7e7qCNcrr2mIs9Te9tJ46vwqKuEt4S2XhwqlG7zoqLns6oOaC8OXBIxa0qJEQK0NaTpKz6+69KvJSws4UM/LavnuRQFAZ2efh0dPntpIK2pgjZKYa2lplvLLTcnN1RsIBAyepMnAun4Qc/3hf7Sc2Ja635YNhEfUGdYNyAPq+a72MQeoG9Bnm31Sy9e22BOPIfHGxxNAXP9A5Jg5BuLC7onlSJGGPso8sgkPfAzQYy98/D3KSi6rDL0BROXa9rhMdviULgvwwgvWevlyUYp605a5dHhk1CRPK4Wverq7TAWGESocgNTPcZ8cqKehBqOG4ncLEFpaehOGJcPIjQMFhn14Tdqk9NLUeMOkGPEkn4Sb52umM4+IvCLooPPBi84HkE7DapKLormgiw5Ih/4DF50g0uP/OH3NIr7NLZB+CzhQT79Ns1Hi/MJC6Ffio+GRqI/AcVMngQGUX1okM2dtIajxFE7gb1B13J/G3nW2R2CdffKuJ7zpqcD98+9wfETJSVBs4vXoFBGQV7kxoI/7YwPdMfjG8y6QF1NjYioFTto9jzvAPAL98X7bl9gW0W8SYN7qNDrWFhNgnuX4/J8vR8f531QLxHVNxl8SSRKg3T8woASJ22ZHqMXNTU2Gt0gsiUMw1b6pZR2XZQfqaagpGhT41zTCYxOT4k5NSjN3xjjXV69cDffv3bFG+GJ5mWl9Hveb5lsm4wFCbtE46NvRnMBa3oBpxOiELkhq0RRdjOaS8FpYo3Y6O6dv2dK3uwW+ZwEH6t+zTv7ug5cOt5YsiyQ+KikpkZ761fDLzz9JZq41FEmyEUfOaZ7oR+IpXo42JWB1EtBHR3GM4Lt52W05AeRtWftiwE4ZSfCvYwD6rBvg1z6Oj1RvIqoN6zYxU/ckiG1ztuFwsn480XdF4B1Qr+0G8AHfHKM+jq/pOKPcsJ58AYiOtf0qIPLiR8fyPZ++bQHqBswFlXZ27rky/k6JCjNtwaWleqZqqqssTw0qe/DVwR7HeXKgnobaYxjGEhvpZukbIPvoQsCzXifZoAZRXkhsVFtbrSDJ8/aQpuGUeVOENW56aIj635UHHVtsyYNOAiNAOhMg3WgugHSjuUjRRYmLaLz03ye3gFvggBZwoH5Ag+XJ4QTCvVAME3rqT58+M1AHFfInedQ7xbG9dPGitZF5crnH4jIMvgO0Aev8B3DHc7ba+t6+2Nsee+kjsK7vAdrjD9/RMuUY1SZRDhu0yc4TzWwNdA2Mtz6N7fRrEdiO+rhPgLp2fgHahdYjoK7jDchHLwLJMimPf9EGOxcryf2cNGWyl4iU9ZO4GNcrMo2vXr0Oz8RXHx0juHQrlAmsd4sC09rcGOrr65RkUuIdxxisO1A/4h3MzbK2vq4bZdHoLo+fPLMoZN7ib/b2Gi+9XoCdIZiT9vDED4oFi4qDvqOhpy150tFGp8FjivTQL4jqUmDKLvHQ7kmzxRFvI/+6W+BAFnCgfiBz5c3BKL+8fbcc+vsHw8NHj0zGl2zL9+7eViBcW6iqum6KYHlzwcfwQuiXvjZFm6N9EVhnOQb1McD/zMOuL0UUm09BfBLQ45lP0Goiz7zK/Mb54z6PeeRtj8A3gNu86mxPAelQbnByAeptbuscw7bE9sQxcdnx7/5n6/FxJ2GOFDae9Wd6pgY1UjWr3DU7chbWVFdLYa/JAPsVyWGX6YX4uE4O1I9QczyseJCRYmTYBc10uOnFxUWS2roqoN6tG6VZIP2SDWke4VR59VXaIRpDKC1wz7EBQaPQXnZ3tV37zolzTqIiPOix7GLEzcdTkFc/xy/GLXDsLOBA/dhVmV0wbSVZSpHuffjwsUD7OxvCv6VR186ONhMdKC8rO54/7hhddYSlI297fNlxv8a6+c0TmJvl1ERQ9H2Acvp/W05QbWybtsccevO+WxBs1F/iireyNGfJ9rOYmMw/rs4x6h+ZR5+YI892AHrMe48DWw3QJ4617xjYT3zfvPB7ZcVl2jnsDy8LX58+B/tfPyr3W6kHsAgYDArMiGIEF1+/Ng86rIZOqcDUK8FkjZT3ohec40crcqB+hPuMznJVAQ1zL15YgNC0pBifz79UJH+9Gt12A+kECkH7QHbwpEw2ZKiHA4rL1lb0NmvBotrGg0CAKMGifJLBoonG46TYwH+HWyCXFnCgnkvrH/7c5tyQQwOO+sNHT0SDmVcfsqaR104DFMg0kgrdp/yyAIA8wtf21wA62+KJJTvGADxOrNgDv5sE9SSBYjs00SgolmMi0J8sJ1FmVHYqhP4dyJ1A1QBvLcZAW/Ok9/1s7IWXspolg0p43zkm4YWPJJBVhvpkptSzpJZp+xLnsAPz/M8bUWAWXr4KT/v6w4QAOyNXxAW2KH8No1W8CIPFjiNf3YH6IW8+6B4b8owQyDA5OW2e9LX1NXs40PPsUcNbWVlhjW78YBzyVHnztaiRiRIXxbKLBHTQAPG08zt5EAoKpOYiPhhJjM4kMsfFDUDe/Bi/ELfAMbaAA/XjWXl4/4jdwfOH+sv4xGR4+eqVqYIBJEjaUnE194mPjqd1M3vVqUA99Ux7eF1gXiusx6D983lMjzEgrgMjz/zed2y/7pHIW59aTsSX53UhOl/iJSFa0eWA3PU/Bu9coJZZt3+JfaybV97m0f5oPfpuHAwbeesF8vl+7KHnBFGx/I3/J7bF+6K5bczyH6SxcZxOzygZkjDZ2Pj/z957OESRbV3fZ8wEyYgkCQLm7OiEe+/3l3/f+zzvneCYZoygIqiABAVFRcQ03/rtUwdaBgNK6G52zbTVXd1U2FV1ap111l77rjnO7dQIFY5K3F+76usDMhgd1nys1ng3v2pzDtS/ImzcZFgBTaniKJn7lIUelGc6GftkGePjeejgfvu8Tab7hT6lxibKXJRpbZowWS6+obroe0sM3boNgL7dWPSSHdvmG4NCP3bff49APkbAgXo+npXP7xNtKW3m0MhDcwe7dr1XDmH3Q1trq43Anjh2VARPfVb4bf1Az+ePxH+xEhFI10PSzMO2Q3xxjcQXYJ7378TEA9L1SnOsKvlsHQOSXtPn7HfZd4v3k6vKALwAOCAdgi0y8ol1j1XBKRb0nSSsxsSbew3APgHcBODB6wvLbb386GMTwP9j333jcmLBiBVMOmD94qU/LXH71avZ0NLUrHoFqgovZyXqFSDLpW5LoUwO1L/iTHEDPZarC2WgGWYZGho2D/VGaaAA6B3tbQbYN4tVLuTKWNaIcPFL4gMwsMJFeKKLRX/7ToWL7CaXo4s6I+jQ47AS1UajzIeb1iePgEdg5SPgQH3lY7oWa4zA6m9paCflDjYuMHFZCXC3xfTVhj0C6xQ+alZVxbKyUgNQa7FPvo31iwDXA5NdF9nc5OsJjNsyAfCMSU/XDxhkQTcfnWn4zpYz1yu61uSAdltX/Me2u8Tj2WC0ntuoYuz5DbDOXgnMWyIsIJ/lNk/MO/OsE5DzdwkHpPV8+Fn7kwF93n3rxPGTB8L9dVP31aBGrkaUXAqJWClHpUMasdonsF5VWWG5hGlfvnW7q/33DtSXGWF6bLiaPMiGV2DUp55M6ULYEbr2doaTx49Z9VG8Owt5Sjp0K1yk40XqkpJG7bh0I1KwaHvGpG+TzAWADnj3ySPgEVjdCDhQX934rtbaDSBp5c9fvAhPp5+FX379PeAUVlZWEnY34P18SIzfnlAnb3Wkgz5t0AhkyhY7eoFfgDr/MxkgT6DcAH3Gput9lNbAwCeADqCP701mw2oA+QnMG6BPv2Ur8X3cEhvj/wV9vEljMoCumYH4KJdJYD2B/GgvCR4wgK5VGahPnzMgb2Df3vODHLY9930ukP9g+fxe/uMNTnzIkvvvDoY+AfbnL54b0Xj44EGTwKB8qK2pVmcYea4OJM8nB+rLPEHo0p89ex6uZ5KX0bFRLiPz6tzXLW26GPXy8jJjmZe56rz5OTfxa7HmpkMXgw5AfyOgbu2ErmkAemTRqSwaPdHnb8j8v+bzJs6+Ix6Br42AA/WvjVx+/J2NTqpd/f/+z3/D+QsXbKeqpZ09KqcwCB9MCBil9MkjsDgCqbO3MI+/AFDHhzRge2EZv7NXLqjPlkXmPX6fy8InoG9ymvkOgH6XOgDaUFpvYsTBQQmUG+gGyBswB6xTJCpKa+w3AO7Eytty/haZTVxHYuujjSV/RwdA6+F7HdrnmHAc6ADrwwLrvapcOjg4aPLkPfJU72hvN9ts3lMcCcOLfJ8cqH/hGeKiJJmSynJjGrKksBGZxW/fvlHCaHU4IAugvTLXR//Eif/chfSFm12zn6WbjqGjtzpOvEnnMk90kp+4QdF0maOLNOgMJW0Vg54SZQvteNcssL4hj8AqRMCB+ioEdQ1XSTuLHvl//u+v4dwf582ysbRkh+U3UfiI5LcdynnyySPwrRHg2c4Un/HZfB5o2xcZE5/Ad2TkDazrGo1MPCBd72W/bJp5gH72na2ez/QSsg5CemMfAeW2BwbpIzZimRaCG+ZZdYH6BNAX5pGRR0JsZGAG5O1vrWOgFbMum8WtsE6OlXsMifL9+0OSwfQpebvX5C6VlVVm9oFmvbFBdQsKQGbmQD27gD43A6zCLN/TSb+r4ZTbqoCFV2dtTU3YI3COZ3qjilVUVlTYBfW59eXb9+boIlkPTA9MOgmjJI8C0OnVAspxc9m+Y7tp0XF14YZwgJ5vZ9L3ZyNEwIF6YZ/lRIz8fv5iuCQ/9fGJcQMbB/btE+nTY1aNpSUlhX2Qvvd5FwED1Qto2vbPwHT2T8LZ88w5AHzRy5h3/dAsJg0QR1Ack14B8PwNYD8CfgPN9jmu62NBSXgC2G3vjT2P7yNw119mSa3zzLt+k5h2gDy/s++Myf8uzKpK6VMll1LjplcqCOoWgG3aJS/r7GjXfdYT6uvrbPQqn7GMA/WPXTWLls9oGIVsYhxeMNQff/TICvwwTNmlnhlzyj8jCcnnE557WPEGijcZCaK5OvS3yjLnfiY7GnkLx4UOHXcXlnFT+OQR8AisTwQcqK9P3Fdyq7S/mBFcu35To7ODBiowIqAGB8QPtnK0tT55BNYyAhGzR8geQTpbz/mcfRTsngfxUSqTgPmHIN5whkB7nGd/w98aoIehZ1lcqc35nG2PpUyA9/h/Ns9IwsS8g7nsPcsB78InfLZ2UvJd6hXgBDM0PBwmHj2W5KVUlUt3h8PKCdkjmRmWjfir5yt2c6Aer4NP/6uLCMnLA+md+m7dNs90fNTRN506eVxZxHstgTQOVcbhl0+vcP2/jTfg35K5RF90epmzs2LRpe0iYZYLfeuWraGkBMvF7WLTt5n0xQH6+p873wOPgAP14rgG+u8OiPi5a1LKSRVsaWzYFXrkSnFcNo01MiRw+UtxnOdiPYoI3wHmegfAtlc62vht/Cp+ZzKajGnHctKKQAmwG/sO655ZU5pNZQbubd1aZdpWhurTRiK4Fihnsn8NtMdPAHyWvbDk7WkpIe5IFfFANXBmLZfwqIB6j/Bbe1ub4Zx8xTcO1Dmfn5iQvDB8Qm+ManLD8r+lQEVdbW1okY3WkcP0yJpCqXpoW5RBXAgTNwUPekB5tFx8Y4AdgG49U4F0s1u0pFGKF7kWvRDOq+/jxomAA/XiONejY2N6tgyb5zNsX5nIH0Znz5w+aX7qFWLVffII5HsEDESDyBdNcdEiwA5fboBe84xVXwzm57/PfgdjH5n36GJj7+1v9Vn/8Rkkn0D9B7uh5a9UDGlGRiB0jO/dV9VS1cChE3z82BGza2xv22OfnVH/IHKF8YGTTrWrqaknyhy+HS5LSzj97JnZMx5S8uj+/futSAWV5AphShd/fMi/1rHN6QKOLwPoShbdvi2y56WlO8I2WHSGkrLeaiEco++jR2AjRMCBenGc5WlZNFL2/Jfffpessj+oxnPoaG8PP/3wvRFBsYqi8YTFccB+FB6BZUQAzGIgXeQieXRRB/8h827se8bGLwB/OgPRtvKdmPu5V8I7s7PGpg8NDUm6PCGsszWcOnHCgPqePS1mkJGvWMcZ9Y9cNFwgJFOSiEBBo1tqRCn5vGXLJg2ZlMtG63DYp+z8evndkjWcz5Nd7DoeChdFLfprMelvoswlG14iOXSrdOhcvNgvRtvFzQ7S8/nE+r5t2Ag4UC+OU4+f+mMVZ/n9jwuSVOL3PCOA3hx+/umsEt5areR5voKH4jgDfhT5HAHANlR5JBlhzKPWfeFz9h2sujHskVVHNYBiYEYSl2fPn4cpSZfRpo+Pj5sJCEoCih6dOnkidGsEC716PucXOlD/yFXKg3Dm5YysGCcseRRdE/KXXcoQbm1tko3WQWM+SuSCQhJCPk52MWvHkLTQG8W1Zs580SV1USeE4SLsFSlUhNSFF/aLgHRIdH9A5ONZ9X3yCISYJKXO9gvqOjx/YbI77tuKneUBm7/kiuCxyu8IvBTLxzD8RY3W9klaOSp2fdeu+vDT2TOhU3a/LU1NaoejD3V+H4nvnUdgLSJgyN3Y8sVbA9SDeYxBF855rnZxUvfWo4lHlkz6cHRM2vQZk/uW7KDA2K5w5MhhWWq3SMpcY9gnKtoXr3n9PztQX+IccLLRNDEkOXjvgWnTJ9UjYxks+uGDB6zMM9XjNm/CASUfhyZjD5PKogbQ9VB/nYF0NF00/ri4WOEi2S5GBj1W6fIHwxIXhS/yCORRBJxRz6OT8Q27ArP3XIzf9Ru9obfvdrhz9651tmD6erq6RAa1GZGSr0lu33Do/qcegRWNAEAdJn129qU59A0/fBgePhwLowLok1OTtqyiYqfq3lSF5sZGw3BUKCVpu6S0xLDciu7QCq7MgfqiYALSAbbTqj56d2DQXjSeJCpU6QQfOrA/HD50UH7pO808P99YZ2PRdQw29CPW3KqLAtL1MhZdFzIjAADzqEePUpdUUGBROPyjR8AjkIcRcKCehyflK3YJ1y0cKMznWXlQV69eM2B+8MABK6J3QFaNSBHzddT2Kw7Z/8QjsKIRAPOAd6Jz3axyCp+a4YdZMU48FkB/YqoCCMrmxqbQrFEqjEBg1CslfyGpNBVuXNEdW8GVOVBfFExO+tPpaWPT8be9d+++aZsaNBx5UCCd4UgyhLEuRDKSbxMXLA/xuTdR5vJKSRRo01kOK7NZ+4xcB7vFyKJHT/R863DkW1x9fzwC+RQBB+r5dDa+fl+MGJKW9oHyoPpU6vx3VSl9TUEWPWMghHClKFHhI2SJPnkEPAL/jEAsRvnGtOfo0EcejgbclNCjM2K1VW58tXLpA8O1iEFvlB6dmjd4qdMBBhflO/5xoJ5z3mk0OelYMKJJJ3l0QlaM9MQ6OzrCiePHrPooCaSc2Hw6uQBxdOiWLKqGn1GB1ypi9FYv9pOL0ZJExc7sMKnLVg0y3aNmAABAAElEQVT1xAs0n44j53T4W4+AR+AjEXCg/pHAFOBinjmjY+PGqv/y2zlzFqvVcPzRI0fC2TOnzLygRKyfTx4Bj0CMAFiN3DsMP6Zl+IEWHQ36mO6jyckp5e08s2TSstLSUFdXJ9y2W0x6Y6ipqTbpy3bVhoGoLBTs40A958rnxDN80tt7O/QpA7+//67ZM5Lcc1B2jCdPHJN+cKcxHDl/tu5vUwfjtQA6RYteSYtOxjNWRUzo0HfsULJoTuEiQLpPHgGPQGFGwIF6YZ63pfYa+QvOL3cH74Xffv/Dhu2pSHri+NHwn3/9FCoqKgKAwyePgEcgRgBick5Y7YUqxjMaNaB7Z2Rk1O4dlm8WU472HAelrs6OsHt3gzkoJRlZoQD0dL4dqCsSAF1eWDFSgfSaEnsGBu6FmZkXVoACuQsne+/eTqtelQ96wbTPPLDpVSY3F95zETNRgIleIxcntovIXtBipVK79iP/xyPgESi4CDhQL7hT9tEdhiCiPgeVry/J/WVIcyopkg/1049nzQKYBLhCAxcfPWD/wiPwFREA8xiZqtovyJMfPX5srnxjkrhEmQvk5PtQLjK1Vsx5s3ToyF0oTrmzvEw5hWVm/IG6oNAmB+o6YwBbhh9pIAeRvAiojyhjGKuzlpYWeaYftOQDhlDW/SRjQaT/otRFWvS5N8agU7gIPRa2iiZzkc3iDmnRS5XNjEd6PurpC+1m8f31CORLBByo58uZ+Pb9oC2naiIuY7i/GDsone1eyS1Pnz4RWrPEN4C6g/Vvj7evofAiEIseRcXDk6dPjUW/f3/Icgjp5GJzWqWRp5qaGtlnt4Q9qkHQoTwPtOhgn0K/bxyo65qdnX2lQhMvrLzsnf5+06i/nHkZ2nSi94pJ39fdZdomknrW84TTo+SCpVeJ/txYdElc0KUbi67vt26DRZeTCy+x6Mw3qeIoLLpPHgGPQHFEwIF6cZxHjoJ2HZKFCti3bvdb3Y7beg7t3rXLDAy6u/ZacimAY92JouIJux9JAUQgYh51ZIXHrDiYFA/o0JG7YJlNgTDwTqmkYejQGxsbQkO9WHTlEQLSMc0ohntmQwN1FNxcCE+ePBWbMa5G8o6VcaZ3hq77yKFDgUaytbVZRURK1u2Es4/634z8TeoCSFfDbo4uAu2AdDSNNOTbzdFFAF2uNMhcNguk++QR8AgUVwQcqBfX+YR8eSZL4EG5jN3suxWuXL2uJNKysEfs4DEllR7Y32OAxEdGi+u8+9EsHYEI0KNVNnmDjyVzwdHl4ah06Bp5mnj0yNztsJiuUxFKrBaRujRJi14pZh3gXgxMeorOhgbqAFyTvMjl5bZA+sDgfclfhsNOSV4axGaclMsLNll8pte2XhNuLqbN0gULi/7mzTvb77fv3ppJP9IWY89h0PXaIl160qGv5wjAesXLt+sRKPYIOFAvrjMMMIE1xHHsRm9fuHDxEqWhzaHiR1UpPanE0uRUUVxH7kfjEfhnBMBlYJ3JqanwSACdqvAUMJqSu8ucZL7gnOrqanPha6R4kRxddpaXW+cWPLRZ+Xn5WYjyn8f6JUs2LFCnYeRCeKGE0f67g+Ha9RuyYnxkhY4A50heDh7YZz01kkfXGvBajxImXZ0Jqou+UcGiWVVGpXDRO3Nzobrod2G7OhAM73Dh0pnw4dEvuez9Nx6Bwo6AA/XCPn9L7T2Vr8f1DLrZeyucO39BksxZkS5bw79//in88P0pYwlp633yCBRjBMA8EJLJzWV6+rnJXEbEoiN3eTz5WN+/DztKdpgsrKkJy8Umc3PBMpt7BWVBMU4bEqinC4LSzfjX9kkXePX6dRtKoTd27OhRDTV2h8aGBmPT1wukoz03X3TJXJC6ANIZBdi0abO056osit2isej0IL1wUTHeoH5MHoGlIuBAfamoFPayeZ36nf5w/sIlSTKfWD2Mn3/6MZwVUK+uqjSwXthH6XvvEfhnBIyYFLahSi/OeyRW44uOzGVctWwA8DDkNdU1Ik8bpHRoDdhm44YEcKcgGDhtrbHaP49kdZZsSKD+ThfEKyWQonPqHxgMd8Wo9w8MWENIQsKhgwdlx9huIB2t+lpNXKy8eAhjswgwn9OLYSCWkQ9qji6Ac5h07Rv2i+jQi/kiXav4+3Y8AoUSAQfqhXKmvnw/afOxZWSE98LFy5Y3haPF96dOhlMnjxtxRMnzYgUjXx4p/2UxRcCwjtQNJIuSIIr8C6COJv3lyxnl4s0JoFfLZrEmNAiko0fHdpH6AjtUCAz8UwwJo586pxsSqMNSTz+blu5pWJ7pN8yWER1UT1eXyjYfUBXSdssgXusLIDq6RG3WS3UkAOkUMaJwEY0zdos7NPTJHIAO+++N9qcub//OI1CcEYhAXdI9MVDPnr+Yr5mApWypGCbYJ28bCuvcM1oKqz5470G4eOmynC2GDLAcPXwoHDlyKHS2t8lTPQ8sggsrrL63eR4BrElJpMYS+8HQcBhUriCsOsshSsvKSsP+nh7JkdstdxAWvURt3HpIktcrlBsKqOPy8lbAl57bA4F0KsHdvnPHhhd3bN8R9qv6KEUm6LlVVOy0B91qP+xsyMdY9CRzieAcNt0Ydu0zuiv054B0SxaVuwuVRYu9F7leN4Vv1yOQjxEAyPFCp0nlYSoQ20vaZtoC5G+A9B2SxJFQTrvho235eCaX3ifae87tAxka/PnXlXBXRfceDD0QcdRpFsGQSK0tzWvyXFp6D32pR+DbI5A80cnBeKEEagA6MhfIUjzSZ1Rt9LvvNlkFeLTnSFyaGncbSC8XaIdF30ggnYhvLKCuhpBeGhfEtRs3JXkZCEMaZsFvs0tVRw/s2xd6uvdacuZaVB81kG4PXhn5v+KhG11dKCmNJmuLLBbRohuTLhYdkM7D2B3Rv72x8DV4BAopArQVtAvI4F6ryJnZswqo85m2AkKBFx162gmSzGGjYpvhnfpCOteAlqsyN8BTnboeDPXvaW2VTv20nlMd1ilbbQKpkOLl+1o4EQCkWxumkaPJySnJWyZC7607YtEHbWTwvdo5qojuqpfdopxc9uxpCW0qXlRWVhZKBNA36rRhgHpkK96FMWXVD2l45bqAOp6cFDviQjh65LDYihb13BqsIVxNttr2BXZMD1hLFoUdE1BHqwVjRiMMICdR1HTomiNz8cJFG/U29ePeyBFILDrs+essqZy2ggce39GeMNFuJGZ9i+zJAOmMwlEEjZwWvneAl/9XErlTt5RQeksAplee6mhxSaD78Yczxqwje1zN51P+R8j3sBAjANZ5KaL06fS0FffCyAMMhi79mYw9wDw7d1YIoKtwkXIF6aBiwVilvIxidnT5knO5YYB6sv3p13Biv5h0fNPRdjKU0tPTHU4rWae2ploXys4vidtX/Ybn6d9/C6DrxUXL8PWc2DFkLjx4eeAiaYms2DYx+xGor7VW/qsOzv/II+ARWPEI0GYAyGkryFuxDr3ev3v/bh6g5240AXGAHJ37HTuU0yIpDKNyPAgd4OVGKz/f4xWNVheQDqHE86CqssqAOoWPKL63FiO++Rkd36tCigCYJhIN7yRzmZGaITq6jI5FR5dH6pRuUrsEqYD2nPo1OLo0CKTX1NQYUenX+gaSviB5mZ5+Fq5eu2Elmh+p0hUNYIcSdHq6uyR76bEEBZatxsQFy8synAXMGbrGL/StihfhQsNDlAcrDDoXbRyyTpaLkS1bjf3ydXoEPAL5GYHYZgSTxM3K+QCnKtqNXBb9Y3su7txG4GhTSkq2hxJV6kNGx2ef8jsCOL/geAFQv3L1mpE6yJi+P33KKpRCKKHT9ckjkO8RiGTka5Gizywx+u7AYBhFjy78RUI8U5MKFjWaBr0+1KvKaJ0AeqkIVK55iMtEPuT7sa7m/hU9o85DjQuCC4OhFhiK+/cfCPkGZdDXW1EjChy1qPwsw8UrLQCPPcrYqzSnBmPRqS4qFl0vBq03KXGCQhb2QuaizkIxlb9dzQvY1+0RKNYIRBeo95ZXA5uO7IWROI3LffaQxQlYdWIYdNj0ktIdoYS6C2pn/MH32fCt6w+wo6PGx00BdZJKp+WIwXPs+DHV9xChxLOqXDpenzwC+RYBa5nU+MRRwLfm5oLU5bHw10PhLyqM4rhHsUmu4eqqaqv+vqe1xUw8KpUvSEI8xKVPCxEoeqAOa42J/oAcXpC83Lt/3y6e3dJAtYtNZyhxlyyvysvLNSy8smmaEaRHmQs2i0hc7MXDVhczD0z0hvQck6NLHJ52LenCJervPAIbMwJ07Hk9fzFjYB35HoBtOVNsY2JiaXlZSSgrLbF2x8H6cqK4tr8F5GAs0CeNOkCdoi/IBg7KkeyAnMm693aGKhU/8skjkG8RIBmUNmpGbRa68+HhEbm6qLKoruGncnSZfTUrsmB7oB5A4+5Gqyza0FBvIB2JHiQl5IK3Tx+e2aIH6hSMwOWFDPrbStB5Ov3ULgQaPJxe2vbsscJGDAmv1MURh6yjSwMMmPmhZ2zYe9lvoVHfmjm6JJkLF2gC6R+eIv/kEfAIbMQI0HbQsSeXBuke7crXTFFWt1XtXKnl5PAgdK3610Rybf4mjgK/lePL3XDl2nVjIXHIQKK5r6dHBfmihfDa7I1vxSPw+Qgk5QBAHPtrMNf4+CNLFp2Qgce0WHVaryrp0HdJ3rJ79y5zduH9TpGkpSIQaKdWCoN9fo8L6xdFD9THxseNTe/tux3uiFHnAVWrTOIz358yoI7eb6sY7ZXk0mloeSWfY/Slb9CWCqTj3AIoL9FwNEM8MOrpAvWLtLBuHt9bj8BqRYAHHyCdNuQFjPrMrB5i2toyGyqwPTpP2pidO8vM+gxZnQP11Tpz377eCHreq/DR/XCzt08E093wUF7THR0dMj7oCieOHjUtr10P3745X4NH4JsjEDuX76xQ0Ygsr+9JXnzvwQNj0RkR5Ptaac8PHTgQOtr3hGbJt3aqOFuZcmfAPY59Pn0KihaoR5cEJC/3w42bvWaojw0Qtj+t0kMdUfGIJvl04s3JQ+xbJxpXilUwPI3M5Q0yFzFiJI+SLMrzNRYuilIXErtg053d+tbI+997BIovArlA/fnzGTm+CKhzmF8B1JH00cZViLkqLy81xxCcpHzKzwhw7nmNZZpeWHVkm5RP72hrk1b9iBWAIffAO1z5eQ43wl5FcC6ZlohIlAsw6OMTE5K5jIepJ08lMZ6WOYbyY+RShNRl166G0C5fdIoYVegzkl9Pbv+yK6UogTqNnBU2ejwZentvhct//mUPOkJyROWY0aXjnU6ho5XoybE9Er8sw1kAHW92Ll4s1Jh4SALKUzIXCV00sCuxbduA/+MR8AgUVQRoU4xRVztC9b4Z5dl8DYOq1aitiUCdQiK8sDtzoJ7Hl4vOGecfuQCl1M9duBSuqQBShayDIZqOHT1shWCws3Prujw+j0W6a0hYyLGjfQLrUE10WCz6rdu3BdbH9XnajpyCjVTS5bVHeAtfdDzRAejewVzexVF0QJ1eHhZmaPoYeunvH1BSzm3TQNVI8gJQ7+7aa56dJZKefMtEYwpbHpO+ohadbGaSgagiyJAzLHrUoUfbxa0adga4O0j/lsj733oEij8CPAhpy2DUIR6+duKhiKMV0hdj1NX++IPya6O5Rn8nNITeF9nTf3/9PVy6/JeB8traWj3DDobOjjaB9gYDPWu0R74Zj4B1IKPF9OswJYz1SGToiOwWx+SLjhb99ZvXwj2bTYuOD3qLVAtcp9XUqBFJsE0Jo265uPwLqeiAOqw2dlbD0vRR2W1IWcf4dmJp1dnZFvbv67FyzFTq+1rJCwA9gXRL+NI2zTrttZK/9B4Q/p0sF7epIqBVF7Vs5i0G2uN3yxy/Xv559b/wCHgECjwCqeYCQB1WnTbnS6wZFx82IB3mNQF1QPqmr6HnF6/YP69qBIzwEenzP//31/DH+QvGYGJpd+jgASObqAGC/MUnj8BaRCASkm/MgeiZMBZa9GE5ujzUCwtGZL9ozmtra+SLjqNLoyWOQpDi9OKW019/looKqCM/mZWWEzugu4OD0qb3mR8tDzgatyOHDqryVb1ZW/Gw+hpWm3VhQUQj+lrA/NUr/I3xRFdlUf0niD7PoFNZFDadHibDzw7Sv/5C9b/0CGy0CJDzAlh/8QLpy0trc1i2HIxNm0PyOg9K7BlJYPd2qDCuJHvWaMT219//COcvXpbud8rIngP79hnhtG9ft1UpLYyj8b0s1AhwHfKaEVnwVEUjR0SCDo9AgI7LH31So35zamO2mfZ8t9jzCNCj5SLtDhhoU4aBCjUG673fRQPUuZDQhaOXIvGGF1WweEjtqq8PhzVceFhgHR9hLp7lTtZoahv0Gt/J2xjmHKBu1UX1me9h6HFxscJF0qHD2nsvcrmR9t97BDwCRCAVPCKRlJfJ6jJC4EsiBCCHkKC9Q+ZXKvbVCx59SeTy5zc8Vy79eSX8deWqRoeHjRTCVpiRYSQw5WVlLmPKn9NVNHvCdccLCS9qAQjQycknShZ9ZNfhiIA65MEbYSCqiMKio0VvFpMOWK+o2GnXZtEEZJ0PpGiAOtr0x9JMwaZfv9EbHgwNhSdPnsjZpSkclsNLZ3u7JC/NAtPLT6TiggWgp4t2bi46usCqs10ehoByeo7byWQWWDeAruU+xLzOV7hv3iNQoBGID8tgZAAFcF6+fGVgnToMfPe5CeKAhK7SElnBiqCgXXKXhc9FLf++p/BRn+yF+27fkt3ds9AiQGQ2japUSnIeZJRPHoGVjIA5ugjzwKJDfqJBfygGHRkxIztIX3BywXIRmUtTY4Mli1ZWqLKogDu5eV8rLV7J4yiWdRUFUOeiQps+eO+BseiUXqYKFg+lLiWOnjxxXJKXOksgXc6wLw/DyGqhPY/FR+hdwqTbQ1RXAcmhNrQskM6ch6FpQDOpS7FcKH4cHgGPwNpHgHYGbeibt28MqOOrTlsHcWBt0CK8jiwmMem0R1Q8RsdM1T+cXmibfCqsCJBnhaf6ZTHrDwWUYC8xRDh18nio1/tS6YJ98gisVARoV2DLAeMTVrho3AjQyakn5kQEAGdkrlkkaHPTbgH0BrsmcSVi9I7vaYN8WrkIFAVQh9lmaObK1RvhhgpEDNy7Zw+x1uZmyV32h+PHj1qSA7ZAy5niQxId+muT1VC4iG3xkORihEGHqeJhyEORB+FyOgLL2Rf/rUfAI7AxI0A7BBkxK1bd2qJZFVATWH/7DsLAnNKywPxtI3i0TSSP7tixzdonEtr57A/Pwrx+AEgPxWj++ts5I6Ko/dHZ0R7Onjlldo2VFRV+bgvz1OblXtPW4IVuuX4D98yQY3x8whxd6OgD0Dva9oR2vVqaGyVzqVBb47kvq3kyCxqoc0HxmpLEhZ7ftes3wz0xD6/mXplHendXV9jb2R46JHvZqocVtkCfm3gomuUiUpd5Fl3JogLogPRNcnPZRI9S64tSlwUW3UH656Lr33sEPAJfEwHaJdogktYpphbbo3c24ve3pDBMtD88SCNQT7awAulqr5xJ/5qo58ffPHsemc3flFSKVzXXwJ7W1vDjD99LFxwLyHgnLD/OVSHuBW2LWcEKNyFzoWNIsa0xgXNsrl+KXQcT7RRjXqcRHOTEAPSa6qpAJzGx6IV47IWyzwUN1AHOXGCD9++HgcF7asT65ev5ONRJN4XBPsmjeHhWqTAEriufm5C58NCbU0PIepOjC9vhYuZhx0XJMDLDyYD15ObyuXX79x4Bj4BH4FsiQBvEK1VARhLDA3QeqMtxCpC+WXI8cmRor3h9vuX7lr3yv13tCLxUsSvIqHOyaLypEWOAFM+1n3/8wfzUm6QRdqC+2meh+Na/0J68M79+CmzdFY4CS+GJ/lSFi1DWkYheX1tnFd07RXzinIf8CuLTCYC1uS4KGqg/f/FCCaPT4dadO+HOnbsG0pGlkBXftbdDbHqnJTyQ4PmxhkzPPXv4cdECyGErXpkOHS0oOlDs0L6zoWMYdHtJ5sKDEKbqY+tdm9PnW/EIeAQ2UgTSwxVSgdFEQfdM+xLh+HciJEhgN4CuubdPhX914Gb2TCXa/7x6TZW2+8IDadarqyrDme9Ph2496/a0tlgHzc914Z/rtToC2g5G5WbVCZzWtfVIioRRSxgdC6OSvbyXDSxS3qrKqlBXVysGvdk80QHoZUoWRX7F9ebX3NqcsYIE6ulhxcVFok2vsuLv9N81UE1Cw/FjR5RE2hmaVG4ZBvxjU1xPMM05AH9OLDoWaFa8SBcxE/6fyXKxRCx6LkD3i/RjkfXlHgGPwGpHgPbrY5O3TR+LTOEtJx8B942bt26Z+0uvKm3zLDp29GjY19MVujo7shypzYV3cL7Hax4B2g1Iyeeqevt4UpVFR0YNpCN3efb8mV1r0dGlVjKX3VnSaJNZLpKPl0iANd/xDbzBggTqDPcmlxeGAu/ff6ALbVzDMdVmXXX86BHz9MRjlqHgpSYu1tirxCc0AnS0n/iji6JC8LlguSiwnywXYau8J7lURH2ZR8Aj4BHwCKx0BJA6Yc9J/tWtO7fDxct/2bOre+/ecGD/vnDowD7JE0o02rs8s4SV3k9fX2FEANwzI/ON4eGH0SVPGGr62bSx6JhjlJfvFDjHclGe6A315paH5eJWWb0mw4zCONLi2cuCAurwR3/rIqPRIsEGTfrVq9dNv4fri0lexKTv6+mWpqp2yeHABNBp/NB4xsJFEagnyzNjzWWzuEMN3zb1IPFIB/B/ic69eC4NPxKPgEfAI+ARWO8I8MxCkvlwdDTc1sjx7+f+UBn3l2H3rl1WI+SEXM12lpcbWF/vfd3I2+c8Ma3EaNbCWFmsdv4lcU3b/9w+QHTOzMwot+9BuCU1AsW0kMGgRtjdsEsFi2DRG6VF36X8vgqTubgW/UvOwOr9pqCA+nuGbMR4P1GSw8jIQ7EL/bJj7DUnFiqOHhWTDkjfVV9ndoyLbxjuo3eyNAOgI3OBSUfmEpOy3klzHgsVMbyzGKAvXtfqnRJfs0fAI+AR8Ah4BBYiwDOKcu0k+/36+zm5nD1SIasSVSc9FH48+70AVaVXglwI15q9ywXH6b2NuLMHGn1f7pTW8QFQZxT/Mynh/F3627jpLGdliX0AR2GUgdRlQKM0N1QgEsVABOi7TTJcvrPc/Pmxdf0St7zlHqf/fnkRKCigjq7qhXqCVMe6reTRe+oR3n8wZCVrKV97UEOAeHvSgOFrniYu4Fi4KMpcEosOS4EXMZaLOCWk6qIkjFIsyVn0FEGfewQ8Ah4Bj8B6RYARYIr43R8aDn+cvxiGVcKd5xjOZri/1NfVyDihcr12b8NtN2IKOcRlOW2ci/fv3ykOkswKP+AMhxQJoPslE+uj8jkAGgludHMCrv9tIyU7tu8w2cliZhsZC799qRGWmVnZKMoAg2mHnFpwaynZUWJ/Zwuzf2xbwlKxoNEjw1Dsa70IztqaapO6WF0Y7fvyuxq5W/L3KxWBggLqc5K8YL84IBP+q/JMH58YD0+nn4VjRw6Hk8ePKTO5SRnKNerIxsJDBImLkhegHAZ9VjcC1f3wSKcU93eyGMIVpqx0h825yWKyBOtYqTD7ejwCHgGPgEfAI/B1EQCQPZfcc+ThWPhTUgX06o+UCHigpyf8/NNZK3yEI4dPaxMBOk7IRbA0nBYGefbiueXNwXwjIampqTLf8bIvrBrL+QWbPH48JavEFzbSzzImXFdqJeWlGigEYu5Ert6cVAF4nvN6JRcXOgu1wkH1dXVSF9QumbsAJkLqS8cAGTEdijLl9EFWenG03Ajnx/uCAOpcVPRYuSEopdx/dyD0S6uHNVlZWXk4quE/KpAy/Ec5ZQC2/iRLFo2Wi4B0wDo3FxeoWZhJd85FyQ2A3CU5unBqXOqSHxeo74VHwCPgEdjoEeAZODsLkHscbvTd0vNvwCpwU/DoxLGjoaOdKpFNRjItZl03euxW4viJP6PyaLsBtgDqyakpc0iZUUGgORULYsQfkAybDUDfKzeedtVzgdnOHeHP3Z+0XooK4cByR+eVOZJcMAr4pKtrr60LW0SY+tzJrBUliQITDQ7et84CSoAaqyXTEg7s67GOA9hm8cS2YfHfaFsQluwj1w7b9Sm/IlAQQD2yCTPWY7x242YYGBy0xBqM9/frQtzXTQXSDruouUi5AGOy6FsbmnrJcBIgXWAfAI7mChYdHTr2jdukz9qil1+e+XVx+t54BDwCHgGPQBwZhmB6SlEajSj3yaqRUeVqFfPrFpA7KPcXzBQYEeYZ6NPKRgAMQp7A+MSEWUJTt+WeZLdm5ZzJXsAdAHXTqKuewY9nz4TTJ48LNFd/NH/AwLIAPsD/3oMH4eKlPw3bQCwCnPEr//70yUDCMJaJyHrTxNaQAVOg6IpMNW7IvQWMzd/hs9/T3S1Z1Fmx6vVGRjr5mCJXePO8B+rcIIDs4YejZsOIHSOJNCSFdnZ0GJvQ1Ljb9FXcJOnCT1IX06PrRrKbSFf2VjVkDO9s3x7nm9VjjRW2HKYX3uXre+wR8Ah4BDZGBHgWkqP1QADxRu8tgbrLRjRho4f08/ChA/aZxECfVjYCgHRA+YhwCLIjHHgmVMcFFh3pCYw4o/WgCCtGJlnt6ZMnrKYLDio11dVLjtJzTgHlQ8PD4e7dwQARSWcA/FJeXmZV1U+dOBaOSt6L3TQV0ZlSzh25CtSQuanr4XZ/vzHi2Chis9jZ0R5+UKJxs64PQL4DdQtdQf6T90AdoM1N0He736qP3h0Y0IU9F6p14R/cvz+cOnE87KyI1lTvdDPZjSMNenJ1gYVAi75Zji5bxTTsKNluvcuoxfLKogV51fpOewQ8Ah6BDRgBbIhhUa+LsPr93AUlEr4LVRU7w9kzkb1FZuF+6it/YURcMSeAPh4eDA2ZDBctOfgCq8wxgWtwCppb5CTkwB2TC92RI4dCZ3ubOdHF3LcPCUGAOtr027fvmN009ptTktSwXsA9TizHjh4Oh5Q0DLvOiAlTIjCHhob1d3eEj+7IEWjQRlPQsW/duk0Va1vD6dMnQpsq1+KE55Kolb8u1mqNeQ3UYcHJTH48ORWuXLse+gXSp5X5Xl5ebsN8DPn16AUrDptOBjYJp4B0biwuZgPo+p4LfLteDAuh1zItloanfPIIeAQ8Ah4Bj0AhRCAZKvT23Qnnzl+wxEOeZT/J+eXsmdPyUy8zQFcIx1JI+wgWATyjR3/+XABd+AIGHWMKkjhJ8J0YH7ffgD0A64cOHDCA3bW3w/zJkSQtZrVh6gH4f129JjnTbRUhGlHxoef6+7ehsaEhdHS020gJttPJiY64sT/gGxh+9OnXxcQD1rdoG+jawT0tzc3h+PEjoUMdhWapDlwSReQKc8pboM5NwY0wqh4swzs3bvbponwooL3FKmYxzNfc1GT6q1iplJtmzoaRuFGYaMBgF6JVkqQuAuoucynMC9X32iPgEfAIbPQIRFOFaUs6PH/hklzQHgnozYYffzgbzkjLjPMLxY98Wp0IAI7BJglwk+D7YGg4/O8vv0mS9MDkMYBvgPrhgwcFsvdb/hyFhMAj6e/S3iF7Afifv3Qp9Eq+gqsdnQG2saelVZVneywPb29n+z/+HrDO7x8MjUijfk3ylz4D76wbsI4kCla/s6PNQPtSCaVpP3ye3xHIW6DOEN/zFzPhTubwAljnpmhtadZQUrsl0GDKzwX5+rWsF9/Aor9TTxMWPfYqI4uuhFGBdUrfUll08Y2S36fH984j4BHwCHgEPAIxAgC4l3o24n5G4iHPxcnJJ6aFPn7siD0fa+X44c+51bliAMdp4v2rV3OWXPq///3F/MixOzQsIunLKSWSHpcjzx5JT+rUgeKcLD4vYBoKOJ47f15Avc/YdNbJutGYHzt6SEC/09ax+G/Zj+eS30w9eaLqotfCtes3DPQz6oJyoLmp2WQzHQbUm4xtT/vu88KKQF4CdS7SqaknYVSVs0x7dfeuNU44tBxQdnt7W5sNCyF5AZwny0X80xn6AaDbC5mLGHiWxZuksE6O761HwCPgEfAIeARSBFJ1bljcS3/+ZYmNwyOjVpH74AE5oEkiAZO6FKhL6/D5ykSAhM5Xr2ZVhGok/M//AtRh1OcMj6BR//EH5Q2cOiGP+4ZQpWJUS50TpL2w4n9odOT27dumdwfTQCx27d0bjh07bBaPnNOlJhJc0bgjfbmuCqNjY2NWW2aLEkqRvpzIpC8Ybrj0ZakIFsayvAPqgHReZEHfUgIpFUi5AchibtjVEI4qsaK5sckqbsEuvNKNwe+5CajetWOHpC7KjDYtugP0wrgKfS89Ah4Bj4BH4IsiwPMObfJf0kXzfCSJcI9GmmFesfFDkxyJKc/B+qKAfuWPkMEgOxpUhfT/9//8r0lg/lZyL7gEsP3vf/0si8bTn5QjPZYHOg4yl/68Yjl4MOyctR1KHCUHj2KOzc2NJvFdajcTXiIJFY07Puzj0soDymHUYfU72lqtejvSG58KMwJ5BdS56OghkkVNQYdrN26EiYlHGg56ZpXXWpC9dHSY40vqHfI3aK9ItECPjpsLOna+R+rik0fAI+AR8Ah4BIopAlj4YcmH4wcvvLphXX+UHV9Pd5c9/5ZicIspBut5LOAOwPgTyU7uqtDQL7/+JsA9pl3627TkW5TM+dNPPyhv4ISsEVWIMcf/PHe/cW0ZvPcgXL9506QzWD0i1aV4I+fx6OGDqkxaZ375uX+3+P09dRbwU+eaQA61adNmyaBalGB8yjpxXB8O1BdHrXA+5w1QTz3DZ0qsGB9/FG6q+tpfV65YkSKAeHdXd2hTz5BSuiU7SoxFR5+OxKVEDDoJo9HNxWUuhXP5+Z56BDwCHgGPwHIjMCkntAEBxF4VPiKJkOraNdVV4T9icQ/Kyg/iyoHZcqP65b+HTYdUxK4R1xU87cdFKlJwCFCOB/qZM9+rzssR8z9HtrvUhGqg79Yd80AfFbMOG8/fNqrTBVCn4nplRYUqsJct9efzy7DstKTSa9cE+Ift3LcLL1HwqEk+7iQYe8dtPlwF9yZvgDoXKMM+MAX0UAfVO2RIr1xlc6urqkOnKo/CGJSVlRso3yzwjt0iDRQMOg0TGvU45Fdw58F32CPgEfAIeAQ8Al8UAbTNMLi9kjtcu349/C3giFwCm8aDB/YbMIPE8ml1IoCrC4YXVIlFftTb12d5dTDq5n8ul5djSiQ9JKANiYgUd6np6rUbqjB7wxxjKKAEDqpStVnkS1RdP3hgnwH/z3njD488tIKQVKsdHhnW9raZhfV//vWTJMP1pjZwoL7UGSiMZXkB1GHTGfIhgfS+qq71ik0fk85qUp8B5wzhIHup1xDQdl2AJnERQKe6KEAd5mATXVmfPAIeAY+AR8AjUOQRwPnlyZOnpkvG8YOKpUxnTp8ycFevAjcfk1sUeWjW5PDevJGtolzprt/stWJF95RH91ydJ7AMiZsdkugC0rv2dn7gf552jt8x4dxz+a8rsqEelXvLU7NXBOfs29dtQB3zjC8ZHQE3DajTcEOjK2jey0Rw9nR3h//nPz+HOrkA+ehKinxhztcdqHPB0ovES5SL7e7AYLh1546yqV/p4tpsCTIkyaCxYggoeaIjeyEzmhfjTQ7TC/MC9L32CHgEPAIegeVFAKBIIiOuaH/9pWI78lNnRJpS8wcF7tr2tFrZ+OWt1X/9pRHAAvHp9LNwWc47JHEie+F8gGdgw6kk2t29184DJOJiNhvMAyuPF/5lJZLih88oCfgdz/VDqhOzT9KX7i7yDf7pv754P0kiRUZzS84xk1OTSj7dZWD/BxXB+pjjzOJ1+Of8jUBeAHW0XrDnXPDove7JIxYgXiXJS0dHuy72PabbKpPzC44uSF6ovGVMunmjL3ikL74h8jf0vmceAY+AR8Aj4BFYfgTevXuvZMa3cvm4a+4vQ6poOanExgOSS2DRuF+MrPupLz+uX/oXMxrBoGL6+YuXLJl3WqAdHAP+gMnG0769bY+x60utEwUBZOQfFy6HPwX2n05PC+i/NEyDigB3u26x8azjU2x4YuZvKIn0hth9sBP7hlSY64DCkF4Aa6kzUFjL8gKomzb90aOAXosLbUI6dZInGlRCt0bDNpWVMZmirGRH2A5Qxx9dQB7dl9kwSqPO58iyK5m0sM6B761HwCPgEfAIeAS+OAJpJJrCRzeRX9wdlHxizNjcHjG5xwT0dtXXfxLkffHG/If/iIDVeZE899Llv0Qu3hU4fhnwuN8mHIK2/MSJY7JHbDS57j/+WAuQKgHuL0j6ckXSpZmXM1YoCde6Pa2t4bhsNkkGbRZo/xT5GCulvg9X0LpfuyYjjgmp5P+WTeex0CN7R6q3Q276VNgRyAugTiWux5OTlr1+7/6Q9OkTxppXVlYJiG8OFDaKHum4u0SNOgAdGyNLJtU8WTNu0fLNaNYz3fomDRshoZlfZp+RzMi+Ub3fT/VWC/vU+t57BDwCHgGPQDFGAKDOa0RJhIxCw6gC2nH4oGT8CSUyNkorDfD7FNArxtisxTHhY39PUl2qgd6XNSIYBte5chGM+yU9glHfpTyBaiWGLjU9VTXSCZGTFwX0rysBdE71YAD65BUgnTl18oQKFjXNVzRdah0sm5tTwSPlK1yWpz5EJ6w++0ChpU6tp1I2j2jcfSrsCOQFUKeyKL1LfEDxAx0afqgLcE7MuJJMNWeYiIsNd5dt27aHbduj/AXLIzTrzAHszLcKtCemnb+hodoGuGeu11bJZgzUZ79LVUsL+zT63nsEPAIeAY/ARooAQP2RnEIA6wC1PmmU62qqQqtK1p84dkwGDE0CfqUxj2sjBWYNjhXJEUWGbt/pDw8F2l8rZ6BUttF1dbUmOzpy5FCoFtG4c2f5kntDNdKRhzpvf141yQqadQhJZCokoJIUjFadv/9UR+vZ8+dmwkHBJKqTVlZUqoPWYIx6iwolgY+cjFzyFBTUwnUH6kSLpAr0WWNjE8amk5iBzgqQjo6LMr1o8hjmoddJA8XFG5NJxZZLrw7ghiXnZRIY9W5ZNi+RUUlds3EEsAusRzCPXEbvdYNsQT7DevR33DDpb/nMcuwgbb1i6tn2/M3Dew5i0Xz+e77zySNQRBFIbF46JN2OmhhwZRbdDOK/wUat0v3i9wQB8skjsHIRAKjh/nLu/MVw5ep1kzk0SPKCxhl9c11tjT3rVm6LviYigNQETThV0x+puujbN29DRcXO0CoWfN++HnN8KRfoLpFl5lIT1pqMgHDOyM1jApdUywsfjTuFq+pUM+ZjshWwEDkK4+qoUcX9xo1eIzrxXu/Wq0sa9Vqdeycil4p+4S3LC6Aeiwe8CTQ6ZD7Drj9/8cJeEai/suGdV8pqnxGgZ5iJIZ63uljxj33/t+YCCKyHCUBg0pdMAoPsJQF5wLaBcYFvgDtAnZsBD1pe3Fgw9iwryebG2PNZ39nfqwMQwYdAuyWzxu0lQJKyvNPnwrssfI89Ah+PgHWYue+4/3Tfgc2B6QnAR6wel29NHdzsnvn4Wv0bj4BHYLkRgMmF0PrvL7/LQeSiOajt3FlhSYRdXZ3SO7cYq7rc9frvPx0BkkBxaxkbH7NEUBhxOkVUTk/+50hzIQRzp9RGkvwLG39dABt2HtIR/IE1I5aMP/901txaPsaG4/ozKxITqTCVaVEjIKX5988/huNHj9h6SmW+AQbxqfAjkBdAnYv3nR76r6W3Quby2uQubzScJDCuXuP8S71WZDJcpG/0HrD+Sr/lM+/f8Ld8N/83skB6q3Xot+/egyYSz8eJ4z3MuFg/gQhj4mHOMxYeQB6B/ELSKjedyWfSfF5Gg6RG0htbjl4+ymv4PevhZougPV4wCcDn3kRpWfyF/+sRyL8IcJ++131E4hMjXiRQ0WkGsHP/vn2n+0xltXlocQ/+rd+i0+QBRkI4Hd7caz7/jtD3yCNQWBEwmz/da7+eOx8uCKhjc8xzB7CH60d39173U1+FU/qb4k0iKeB4+tmz8F4j/nV1NbKT3iuNugoVKf42cq/nf+4EPkE9AJtORdJ79+9LujRq7SLkIAnAFDn6WYWraDMXt5exDX5v55ltk59ws++2tblgk+9Pn7SOApIZOgo+FUcE8gKop1Cm3iaf4/tsnrF1AO10oSKXAaTPwrAD7F8pqcJkMpLK6DMAYu613ouFn9Py1wLrbwUi5kE/oELr4BUZQoEQ1g+g1/boh0a2PEtMhZ0XqqcRNFCum8D08bq5ACCRjUczL1Ze7jR8RjePHn6ehdc6NouBJ7mVJNfNzO2z1q0OwiarrBpHBIiB7tIoq8k6FHFR7CEvvoHt9/6PR2AVI4D8jPuFxG80lpQxn9YIWAIL3Ft0mpmT5MR9xVBsZ0d7aNy9Sxarn9ZbruKu+6o9AkUZgfQ8PH/xsoDjn1YokPsUxw/A+uFDB0NZeVn2HCnKEKzLQf36+x9WrCj6n7+wtg6pCW3dvp5YUdSe/8ILCdfQHr5QkSTaz4F798IdVTSlHUW6xASOoFAV5+2nH84qEbXSSD7+nok5uIe29ZFAOiw6r7t67d61y0ZP8G/HQ59OAqSjT8URgbwC6oQ0XZTxvf3LPzbZ5QqY1ickLwYQANsZi8dF/E4A/O1bvtPcPkdwHln3yLzDvnOxM6eHa3MYedh4e0Xm/r3WEdlCijIhs3kXt619MAacvQJM6wXgjhr3BVYerTtD/wm0b1cibEp6BcDb0Jjm9j4H1DMMlqQ7mwXe43s0+QD79DnOLTD+j0dgDSLAvcF9w7AtusiRh2NKZJrS/SZwrnuNe8WkaOrsMhrGvXHqxIlwWBX68Ab+WGLVGuy6b8IjUJQRSCCQCpkkE/bLppHRrva2WIIe95FKaad5bvi0chEgJwDpy/jEuEl1GWmkfWvcvVtFiugk9UizLltpyU/AKSgFkO1in4hhBq4xo2NjpiKgXeU8QgJWCZxT5OiMmHFkMKWlpfouYh2wCqOYECT3h4bDLWnbkQtDjJjcRttskh1jrYpDcr6dzFu5873ea8o7oL6cgMwDd13kTAnkx8ZLn/mP7/QyOQxyGV3sCZjz3sAHgH2O9xG8syz+Ln6fmELkNklWk1jEd7pJ5kGKthO3vTDnZjGnGd2E27YuONJEeQwSmcy1RoAdpp7lxsAbyM/kN6anJ5k1S3zVd+k36Ya0jkPSy2edh7hMgD73s9775BH4mggkoM5DBqcJEqImlMz0/MVzjWBp1Er3EWCdidErErAZwj2uxDYeYOVi9nzyCHgEVjYCPHNgaPv7B8yiD5Z2t2qQIH05dfK4EhSrze54Zbe6sdf2p7zPsWYcEmCm8BHtHtIVqqe3ygd9b0d7qBZgrhB4h7SgaumUmHNcesbGxsWsv5ACYDYShiI/3okE5HldVlYqW8YWS0ZtkOsL9o5gDdpeOmBUQ8W+GqeZ4YcjNqpfV1sXDooMObCv21xjSmTx6FNxRaCggXruqTBAnrtA7xOQZ3EC0FHeQiIcYDpzkdF7S0jN5saii0FfYNwjYOfzG7GHyGjeGciPwJ+bCFbx9Wv9DtAP0Oe9zePfLMhuKB38dn5Po797JoERY07Sa2TYkdEIxCOtyVh3S3o1q8mMmdd3WwXeAe3mSsPfz4P4hffmasNv9L0Ph82H3t8sMwLpvqBYBw8ahmwB6rDr4ypSRhEQrnnuNR46jCT9JKB+9MihUC8HA5KbfPIIeARWPgJjuv8Y6Tp//pI5kezcuVN66Q6z+WvYVW+dZO5Jn1YmAmjD76hj1CtW+6FsFgHTxBdWHMlKrdo7OkgVOg8AcnIHzB1GxB5e6bSFFHUcGx03uRIJweACnt8w8Y27G8IuyVnI8YEgfDX3ytpb2tjJqUlrZ8EFLS0tsnPsELhvNt988IOPnqzMOc6ntRQNUF/poAJKYMph0wHZiTlPCXMmq5mX3PAbkltjBn6U1Ugjr54yQ17ps30PkNcLYM/NTRJKBEDaRsZGcsNbkSZ07JkMBoBtiawC5iapMU/5qH833bwx9mLoDcjHZNbI2mfSGtj8bUhxtsZhMbTxObIabu6lXuyLN/ArfXUV5vpiZxc7VV3vAuQvVWiDBwcPrUG5DwyPDFtOCNczekvAwg9nz5j0BWaIjqZPHgGPwMpHgBL02Br/+ts5cxMh56ldWuUfZPNHdcoa2f55O75ycUfCwsjijd4+SwglVweSjhjT9pUqT620tMzICog72kue94BwZIC1tdVydakyGQwFkx4LfD+XjAUiked8mSQvtJ9YPiK7ZbQfgoSRyyiz2RmaNErZtqclUCCJwkZ4sPtUnBFwoP6J85pY+n/O+SMY+YU5vzG2XWDdmHcYdWPfM2Y9u1mjfEa/yTTyBuZJftXLGPwM7M9/1t9FYC8WPm5QG43MCJvHahLG3LTvktHAYkZNfMa6q9FIRaGo6srvAPaJeU/vE9hnbgBfc94nXTxH6pNHgAgYYNf8vR48aCRvKSkKi7E7/f2WLEWnlgdSnTSW36tCHvrJnZK9MFLkk0fAI7DyEUD/PKlO8y+//i5/75ticeeMZf3pxzPmp46bCBJIn1YmAji30Dnqu33HJEeDAtuw5kTYwqx/rJ3UMxsCDOANQG9raw3dnZ2hRrIYgPigXF8GBiRbEtmBlBCZDEQHNhJCGPOqANZL5wuLaJj2VmPS203iVFsjv3ThAGfSV+bc5uNaHKiv4Fmhx0zvN84jQw6YQX/G8vfMdRPCosPAA2iSTIYbNMplcM6AiY8AP+rm43tsJk0jr3UmuQ3rRcKz0JmIB0TPHjbehsLQuGfSF27oBNLTnO8SUN8CUM/Yelum7ygGBWDn91s15336zDL7zO+0HDeb1GDYY0H7kR4PuYxO7vsVPAW+qjWMAA8UHlY3Vb4cT+C7AzGRjet/l4bbYfJOHD+m5KhOc0Pi2vPJI+ARWPkI4HLGvXj+4qVwU4mlEyrCQ5XMH858bxKYlqZGcxmbb4xXfhc21Bp5fsNum15c8pXhkRFLKkXCwjP6nUg6K8So5yKacZhx8gaQIVFxlCRRSDM6V+QUDCvnZ0IjIrjCzGqk8vXrOcMKPNe3ajQclh25DOCeQki0r7v1IoGV9fvztLgvPwfq63h+uQkBNSavAdDPvxbAPmCI72HiZ6VTiwWgYsXWWVlPxs+xIBQ3+AvztiaxLzpxWK+ezoG2ZYBefXRsISPYjuAagG0gHEAOkLfk1cioJ/kMsoXtWE+im0deI/YeG0qWxe+iXSVAn3XBKtB4fGfymgjW42eW2Zfx+3WMv2/62yLA9Tr15Imq9F03q7H7D4YsaYqOaZsSqjo62sOxI4cDQ7Ncbzgj+eQR8AisfAQYdX0ukEeCIx3ngcFBs0P9/tQp6yhzD9LOYzns08pEgGcrI+IkeSIBfKK28Ik6S9hEsxwtOsmhVZWV9qrUPAH01BbShgLsn8mL/enTaXPRImGUc2nMup6VsPHlWg9/j7c6YJ1189xNpNjKHJGvJV8j4EB9nc8MNyM3/PzcALVA9Ty45n0sCBUBfdTMo3l7rRucubHsAvLo3t8IoJPsaomsmWzGpDj8js96wcyzLuskSG8Ms28FoeJAWxaRCKhpUCzhVeAdAE5jD+iyBFUB+8jERzlNZOIjwI/Lt4gJQBufaeYF4lmOBCKyBFqf1pFcaZD0gOGZEqhPywzcx6/83zyIANcs191jsUGXZFPW3383jGroFskWncK9HR3moX5IbgRUR1w4n3mw874LHoEiiwB5VK+UtEiCIyXpr8mqERB38MB+ub90hX1d3WZMQBE/n1YmAmrmbJSc5yojGpBmgHQ+82xNz7okPUW7HkegF6wT07M/5rKpLkxGvvGZ75h4hkKOpfXwPE0j5P5cXJlzme9rcaCe72coZ//SjZtu7siSR5Cvu9pu7PQdDTc3+yux7IAnNIsMy5E9DvNuBaH4zHI1LibBoYGxBFkkNiS6RtkOyStsy7ah/UmcDA+C9EJmA6CPAD2CcfONV6+fnr9p5zP2PeroYQSilzySCFj+77L1zReFml9/ViRKnYbYMC0A+gTkLUww+Fm8vAHLuXBW4S3XmQ39ym3iooqtIHvB1YCHFL2tfd3dVrhjv0BCk4bdffIIeARWLwLcjxAysTT93XD+0iVr29uVbEiOCIWPyuUyQtvr0+pEgHMAQGfOKz3PFoioT283/R2knRF32c95xvJsdbLj0/Er5m8dqBfg2eWGZrIbO76xz/PLsoYi6uUjAx/Z82gNaYw6IDx7wa4jlQGsm72k3gPqza1Genlj4vUQMA29viNJNrrWSKKTjQjEEQB5aLNrAGYh5tSwRDCPpCZKbIyZh50XQDd9vCW8RjkNzEGyo4SBQJtnL73PZRKirSUdBW0rAXptNHUc0nw+MP5mRSPAg2RaQ7Qjsia7/NcVcy9g6JbTz/mlhDYV9jo15I6e0iePgEdgdSNAOz4x8Tj0DwyGX3//3eQYNbIIxGMbP3UkGIB1n1YvAglspy2kZ2D6/Ll57rM997fLXU/u3/r7wo+AA/XCP4cfPYLFN31i4OcbkwzQsxwmHQAepTOxAiUMTUx2JblVrjTmVBMBfa6cxiQ5/L2AfrStVOcgpyNAEm30rY9MAzuc9g22AfmLDRMik5mXx8DKC6gjm8mG/rCetO9lMRkTYDM5Tgb6WQ8g0WQ5mVQnAnY6DtZzmJfZpIZvqflHA+pfzEeATh52cPcfPFCRlevG5FE1j/iXSk95cP/+cEjD7k1Nu2UNVz3/d/7GI+ARWJ0I0HmmtsE95Ypg04h9IO0f8jNsGuuVXEpBHp8+jABx43llI8gyZ4jPIPKs0vjsh7/3Tx6BtY6AA/W1jvg6bS8BYzZvfLzAeZp4Z+BdEpeFIlAMv/2zEBR6eYA9jRvSGgPzGdsegX1yr4laeNxsAPBmS2nz+N7Ye4C9gfvI+ifdPOu2/dF+5Xq9m7wmS3RFr8cwLnZVAHjYd5PYaG7vDeTD0gvUSxMf/zay+mjsTW5jevsM3Avkx4RHL7WdrotPzTlXlMJG8kLy2tj4uA21kzxFoY/DVMoTUKectfv7fiqS/p1HYGUiQLuJRSAA/cKly2Hw3n1LUET68q+ff1QRnV26H2tWZmNFshaeMzy3sLdEH45ElIJFlXJp8VHZIjnJRXAYDtSL4CSuxyHQwEUmPerZkcIsfCZBFTebVDBKQFyAHHCewL3JajLGHplNBPz6jZYZsw+A19/z8DFbSzEdSScP0wGoTi9LcBWTi0SGZKn5RFWWCbCbZIbv7HOU0hhrYkk5MPcxWceYeP19aqDpJOCSkNtZmP8uk9skRn49zsF6bpNzeevWHXmo35HjS7/06VM6X29ClR5y2JChiUX+Ui7/dNfFrueZ8m1vlAjQJlOqfvzRI41y3bDaBkNDw6Gzoz2cPXPakrqpeLlR26zc64BYmZOaEnCR8D2enNT8ubmtINdrbWky20OIHp88AusdAQfq630GCnj7NHZMufO4CGbevrE5LD1adoB89IoX6z4HcI9se/SM5z2gP2PfBdhf8RskNwB6veb0OfrK6zPAn+UC+eZ6o6HLtB+mcrG00gjoAe/o3k3/roTWOI/Muy0n2TVbDmiPgD8VhYq6eoA9y7cgu5nvEPB5YxaaoMOF5AU2fXDwXph6+tQ6VfUqctQml5cjhw9Jo95jnSDkMD55BDwCqxsB2j/aRSxTrRN9+445wOwWk370yBGVmu9UJctWyxWCcNioE3EifwsW/ZHkeyOjo+HB0JDA+pS1Y2dOnQ7H1H7V1FSZvaJLYDbqlZI/x+1APX/ORVHvicloBNZj8Sclsootn3+vRhPN8zxznoF6AHiSzKRk17cC9zyMWG7su73nc2TgI6sf3wP6U6GphY5D7FzQ+PKwijKYDJRnLD3AheJEfAAAKYFJREFU3rTuBszje0tohYFPOnq9t2XZb43dF2jHg97WybrS5zSnGBTLeUhq+0spIG0ZPY08nnjQ4fhy8fJfqoLYG4aHR6xCKTFuamwInZ2dJn3Z19M9PzqRx4fju+YRKJoI0I5SLXhg8H7o7btlid4VKoqzV/fkoYMHwn7dk7DEG7XzjH0iow74lj/WKCDJ8OTaPJ58bM8UUUzh7OnT6tgcNgkMvud53hwXzbXrB/LxCDhQ/3hs/Jt1jABgMDEfPHwMgOP5noF6PiOLmf9OQP2Vkl1piM3PFj9ase1YUVLu2fSHej8zG98jt0FaY9tR48w8iveDgPYCgDc5jIA24D0y7QsJr0hqtgPYYeH1Sj63aOTjKy5D+mGf9Zskw5kv522AXcA8/m/JrunJkK9MDnEnpufOXwzX5ddMdT4+s78tLbKDExiATYfB88kj4BFY2wi8VDtHpcvrN3rDb+f+sM5yo+RoJ08cD8ePHrZCdbRXG2my9l0HPDlJJdBJA+hDw8Ni0ocNtEP+UEiIxPdTihMJuHymTXegvpGulPw8Vgfq+XlefK8UAQPRAtDRMSZq1OcLQVnia06yq5xlAN7GwmfyGWwoI/seGffIzke5zevX6bsouUGGw+9h4SMrn+wr1SGA7c86DhE8RxcZGvB5m0iSXCXxgKmKL8B9lMkYwBeg5/sI6jP5jGQ0ibmP2vpsuf6OvzEXG6036uJh2dluvDTYjwUgH5cvfF7dy4eO0LQYqT/Oq1x5b6+G2p/a6AYls6mAyENub2eHaWJXd0987R4Bj8DiCFAbY1z1DW723TagDilRpvLzZ7//Pnx/6oTkHOSNbF/8Z0X5GVIBR5cZVfpkpAFgTrLtpGQutGG0ZUghqyqrQ319XWhoqA+tzU2WZ0NbjbTRJ4/AekfAgfp6nwHf/opFYAHY54B6NdRJdsP376WXt8YbUC9PeFh3KwJlBaEo/azPsxSI4r1eLM+sKefEusDgRxY/zlkXGnwj5EXKfwctD4jWUSGBMZAthn6+omsC73oIJJadOQ/OyMKjl9erZIGFj/7zFITK1keCq+Qz9rKE11gQg88A+QXAvgDsCXJanuZfG/jneuCh5zx/4ZI0sLcsAYuRDh54sOjHjh3Rw65ZD7tdX7sJ/zuPgEfgKyOAJJDO8y0lef/+x4XwVJp12qkfz54JP5z53srQlwq4F/Nkbb2OGdOCl0oYffTocRjXyB/5NEMjIzbCyvGXl5dbO9W2Z09obNxt70tLKMYHk56xIsUcKD+2goiAA/WCOE2+k18aAQPr/DhjwOPbnOTW7LsE3t9KTpPcaQyEo4tPUhu9f4fcRqAeZt7YeSsGha88ya2w8THRNRaFioWiYOT5nDoF7BP4Hf0jUJ7mHzeZ7wSyE+BOzjURlCddvPTuYt3RlCKxAchv4yWwb0mwJqVBiiPQbxIcWHi9UgchFYOi45CAvebfWuVuauqJyV3+uHAx3BYYoHPDsZToAbdfkpfTKq7SUF8vm8Yqou2TR8AjsIYRoP15/uKFWaeev3jJACq2jadOntC9eUKs8S4xyMXrp057S1v9UnUdHk9NhdGxsTA6Oq75uOwrnxlIpy2trqqSVK9ZeTUA9IZQIUvGMmnSk3XvGp4y35RH4JMRcKD+yfD4l8UeAQP2atijvAYgDeseNev2nTHmsqLMwLsltWYg3Zxo9B7ZjL0X+86wM+95UGBXiNwmSWlihyBj5SkChd5e64+sPEg+QfkYdWN0BIC3koyqFw+XeTmNQDqAPdpPLgD1KK3RkK3AuklwLNk1vue3O8R6kyDFur60tPXia2BCyVeUKj9/8bIs4PrtGNgXNJ2HDh4MP545Jdau0hwTFv+tf/YIeARWNwK0KXMaEbw/NBQuKeEbuQdSmEMHDpj7S0f7ntBQhNWCbaRT7TTEAR0TtOiA9BHp9SdFLjyRMxWjlbR/1HdgxG9Pa6tJXqjaivyQUVCfPAL5FgEH6vl2Rnx/1jwCxnjnbDV9BrabpsVmEbzP6+UNYCcpDd9FwA34TgWhYNUj855VdeWzWHgsJ42BRxOvZR++APa5AF+fM1Y/uuREcJ/2EbAdJS/MqfIa9e3bAeVWEEqSGs15XykWDRYJBqlGDyo08/ztcicefPfu3xdQ/9PKlbNdhotZ97GjR8LPP561hDU6FT55BDwCaxsB2gY6/2ixL/91Vcz6gBUn62hrC93de8ORQwfNprHYpB0k0VIdGf35w9ExFXy6FybkKf/s2XOTsUAmtMo6tiWT5dXV1opcKFf7KAJEbSHxKLaYrO2V51tbrQg4UF+tyPp6N3wEIpOeklYFuLNkVQPmGp5O3zOP/vKZNzyMPay8ZDaw82+y97YMph5wn/09lpZ0HmCTkNqgruFhk6whYeJjcutWKyEOi9Td3WVgHfnMchikBADuP1BF0ruD4c8r1wwAsK0KsenIXbA1++HsaUua/ZpOwIa/aDwAHoEVigBuTNev37SiZLf774ZdSpZsbWlRUump0N21t+CBqbVH6pRE04DXBtAjiz4exiRzgU2HFKGNq6qsMileuzorLS1NoVbuLhRjo230dmqFLjhfzapFwIH6qoXWV7zRI5BYb+bpvclqBKxB1Lacdwa0Ae5o4RcAetTEZ5+z5ZF9FxMPmM9ZluQ2r2HstTx60AP0E2P/1kqI86A+Lta7vW2Psd7LAep0BpDy3B0YNMkLxY5g7VgHZbdbWpqNrTt54phJdJyd2uh3gB//ekbgsaQft27fCb23bturvKxUnfW68J9//6w6BwcKHqinInozM3J0EWvOKN/9B8PSo4+Fp6o2yggkHvLoz5saG5Us2ijJT53JXgDotFveRq3nFerb/tIIOFD/0kj57zwCKxiBBNzTKvnMg8cSWgWIbS7gnvsZnXzUtSfnmSideQ1TD8uuVwTm/wTqAHl043W1NVZSHGYdPfty2CRkO7jh3Moe/PfvPwiPVHqbB94uAYAusXQH9vWEgwf2+UMwnVifewTWKQJPn06HBw+GQp/A+vWbNxlqC+WyZvzPv34ORw8ftDyV5XTU1+kw/rFZZD20i+jQJ+Vo8+jx4zAxEV1dJlW4iHoajCTWVNeEXdLiI/Wj3auuqQnl0qeXyFELgO4g/R+h9QV5GgEH6nl6Yny3PAKfjkBk5HlgvXmzANxT0ivLeW9zZDIC80hUkLtUV1faA3uT7B6X87CiqNEzPRyvXb8h//Q+6T8fm7sED3sYKx7+VEAkWW21AABjEW6a9ukrw7/1CBABmGZsCftu94er166Hlyr2xv3+758B6oeiPlvJ5YU2IRWkkB0uLujQYdFJbqd9YiSRXBwKPCHvYQQRUgI7SogJnzwChRgBB+qFeNZ8nz0CFoHoVrOQ4BqTyNCqm6xGkppoERmXk/QJgDabRzkcRJD+5bAX/3SsGUlQu3r9uiVuoZvHYQb3hO9Pnwzte1rD7t0Ny2LqP3UyOQ4YNJLEcNR5//c7229zv9HwNcmzKaEWCC8cYhPHljohi+ef2p5/5xEolggwAvZCNo23BNT/unpNzieTdg+dPnVS0pf9dp/CsKf7I5+POxISb6wdeKKRgolHEwbUSRqd1mfsKFOyPPaTDQLqu3ftMklemSQ/SeqSz8fo++YR+FgEHKh/LDK+3CPgEfggAk9lb4Y14x+yZbyiBz9SHfUI7CHY2dFhbi8kauH+slIPfwopwZKx3Sca5kaXz7pLcLKR1RqdDkuYVVVU84o3b/qcglDqnCDvSS/bL0B87pEt/qzvVmr/czfj7z0CaxmBBG7v9A+EP/+6onySh2FKoBbXFyRqnZ3tdq8uR/62lvvPtoxwUBsDg/7CRgiwXByX5eSQSV6mpUVn2kJV5I42y71pVmXR+rpaeaKXmeViPh+f7bz/4xH4TAQcqH8mQP61R8AjECPwWHr0h0oexT8dho4HIEyVVSSV5OXfP/+khK0Gk9WsFNAloXZ2Vrp4FVZCE09ngYRWikB94ClvRaFUDErD23wXX7yPL367TYWh8Eo2K7YMwLOf0U+eqq6RhWfkIb1fqePwa8gjsNYRsLwXyd/uDtyzEbDBwfthdHw8dO/dG/b1dKvmwX5zgqFYmS79vJoSQKeTTn4N4JwkURh05DxTT6ay+g3blBxaY17orSIJGnfvVuGiCpO6mKNLdk/n1cH5zngElhkBB+rLDJj/3COw0SKQHpqU4L6v5LRLf14J127cNNALq71TNmfd3V3h5x9+sAfmSpbffqXiJche2N4dgXXs12DXNm8GXMQqqzDqVHBFfx/B+5Z5gA5Qp2rr1gywG3AXaAew8yCfLwxl76kEm+wsNRdLl7YDkImgHRCvKwAAkEltEqjnunBgv9Hujvw+Xu5d7lmcX3CA4X1rc4tySTrCieNHDNhy/+TLdZvaGgB6LFz03BxcYNCHR0bDpO5/tPfkqmAJWy/LSfJjmptJGK0NVRrNoyO+Wjky+X22fe+KNQIO1Iv1zPpxeQRWKAJoxLGOHFbC1p3+u+GGEkn7VUQFoEuVP/zTe7r3hlMnjlshJcDwSk0JqLNdGHWqC5I0hiSGpDKG93lFJwiKQcX32GAKNost179IX7I54Bswb8Wg5P6AhAYXiBIVbNqxncJQ28MO+4y0ZoeBfwql8OBnBMHWpflm1qnOAss3KymX73gB7H3yCORTBPBTv6d7hyRw/NTrBWgp/HNKNqoU/+Ga59rNhym2NW+VtP7cfNHpWLDvjOaRyM7oV5naHAB6c1OTFW6qrq4KlRU7rTPuhYvy4Sz6Pqx0BByor3REfX0egSKLAO4x+LMPyGHh5s2+MDB4T+zWiNjnLWLTy00X2tPdZUPplRp2BsCv1ITlJMwaYAMbNizZsIh8gz+8hsSRxpjfvOQwsUBUrPoKI/cBiFdnAxCAph72kCRUHuomhdH7yLRHmQxSHku4TSw8v7VXxsLr77ZkEhpbLjafY04sPSD+O6Q1SAqWnIuLB9jDymfzlYqXr8cjsDgCdG7HleNxWSNh1zUyRXJlgxItTx4/FtraWgVyV/aeXbz9z31OLDr37+yrWbvHuddHR8etnaGtoeNNh7hahYrwgm9uajTbRRLXS9WxXkly4HP76997BNY6Ag7U1zrivj2PQIFFALBs/um4R1y5Kr2odKIaggaQVqnQ0cEDB0JP115LToPtWslh5/QQB6zjYoHLDHMr8ARQz8A6uvU5VSEEwEfgznf4ysffwL7zm/TZgDzL3qrSq0YL6IwA4k3SAoAmKVVzGHJYeAPvWQLrNgH5mMgKsBcDL/kP0podBvAlvwG4C9hbkiugPr20HpYlQG/LYeT1yhfpQYFdmr67XxCBly9njaH+48IlgfW/xJ5/Z5U6jx45lNVUaLDr+wtWtSo/mWfRVbTo8eSUdOijVkjtoZJfp7WMETQY9F3qXLSIRd8tX/Td8kdH+pJGA/z+WZVT4yvNkwg4UM+TE+G74RHI1wgAbl9IJ379Zm84r4c97ivYoQFka5TIhS3jvu4u6V0bTFKyGg/NKG1B5hKLneTKXqJfPMvlF48MRq+4DI/5VAQKQB6BOssA7fYyoB4/JzBvc/02beO95DSmpNEJknv9PKDn+CMIj4y6gfAMlEcGPjL1vEc+Y8tSomv2OS03CY3JaCSfEZjfbPp45rGjwPes30F9vt4l+btfXO9IyM6dvxguXrpsOR6MGM13sOWWgvRrrad0T1NVNLH+YySNighA+jKnkTMkamUatbPKokoUratT4SLp0MuVF0NOCveDTx6BYo+AA/ViP8N+fB6Bb4wAD3kepn9euRZ++fU3e9Dz8AeQ75I+/T///pdcJPbaAxTgmi8TbDzyFwB3fPE+Ava3bzPA/z5KZGDV5+TT/koOMy+VrEpxmDh/ZccLq/dSSWwzYidZ/kogAuZ+8aSQiIGPyaoMxwMmLMk1vRdAgp3HlYbl9hstS7+15fYb6ePtd1GGA2CBued708qzoZxpNTpHOav3twUcAe4DQPE5dbIv6IWs5G/VWOjp6QoH9u8Lhw7sN+C71odIG8JI2dDwQ9ktDlsOysPRh2H80SMD4FWqpNze1hZIfEWPjlynpFQyF3VyffIIbKQIOFDfSGfbj9Uj8BURmBFIndSQ9F9Xr4ffz/1hD1ce/DDEu8Vy/effP4Xuzk6rdJhvDBf7ySuBlfiZqq4sj9VdU1EoA/MCD6Z71yjCXCadAVC8ln87On3kNMhvWPZGy5DQUPWVv00M/Xux/rDwbAuv+bQd+HgAdUo8hZGnOiwx40UnJ8liAO7GwGsZ7yOAZ9k2Y9Yjk58jq+FvxbhvyfTySXaDDj9tTxvP/OOR9nAhxPkCyE/Lv+Ii8T/J2wgk+dgVVSe9onuYpGzkMJ0d7WH//p5w/NgRk5EsXAerdyjsCx1/Or6PJZ+jujGWi9RJoKAao3eMKNVIi47+HCa9SfOdShYtU3GmdD2v3h76mj0C+RcBB+r5d058jzwCeRUBhqEZjr5y9Ua4IA91QCqgk+HyJjFd//7Xj2FvR7uSukoKeig6gXnAtTnJZIA7gu1smX0nxxlkNgLogI55/fzcK2Pa0dC/Qk9vn8XSi6nnN5HNjy41uNMg40kdCUBSeqEhBlyTPGfSF4Ft7Ce3JUtJ3idGPrHxmT7eWHcYeQF6GHk+A+oBP8bEs17095pboqvmBuTTMtxxIoqPev3FV+I82F/8hX/O1wgkoI5zUt+tO6G3r08d7yeB4mT79/WE06dOrHrhI/aBe4rO7PSzZ+biMjQkFv0Bji5TAukz1tHcubPcOv8ki7a2NJtHOnkwdo3qWvXJI7ARI+BAfSOedT9mj8AXRoAHLPpRLNJuyPHlqlg5HrZMDEM3NzaFn348K6DeZoWONokZ5m/m2dsCA3YJ1PxjruP9YJnYeJj4JKkxfXyuxAbJTca0A+ph3uNQvwC8gDvMIcz8a4A+85T4yu+UFMv3yBMIJTS4YLyx4AbmM3C9Rfp1mPhNlqQqdl3vYeETmw67vm2bGHkD7chxYvIrIN9Yev3W5khseK/vjdFXh8CAvM4drL8B92zO53RuU8eCa8Gn/I4A1+7wyMNA0aPLWZXSutqa0N3VZTkmVPJEtz7fSVvBw6EzyrX/4sVMmJyaCmNjE2FECaOw6CbD0b5x3SJtaVKiaIsAOvuGGw3Jolyjfq2t4AnxVRVcBByoF9wp8x32CKxdBHjA42Hcf3cg9PXdNg919NxMPETRqJ86edz8jPEyBjgi9TBpRmZhyLJinQAhCcBjIfe3Pts8vQds6z8SXN/ohXwGfXsE5xG0w7jDzBs7L5AOkKeok7nRKNa5SbLG9MPq6wWKt3VrbkoWBTkCGrHlWhClNVSPjZp5k9IYWI+JrQuSGjHwJrWJEputAvIR8COnicVjDPyT4Iq8JpPrxOTWLcbM23Y5yQB6O9kLHYu4mKVxmX3t/6x5BGJl4bHw+x/nVa100PzIOzraw5nvT1kiOC4qKwXU0z3B9cq1/vTptCqKPgpDKlo0ruqoyF64D+jAVkqLXitgDoOOqwtJ6WVKFuXac4C+5peJbzAPI+BAPQ9Piu+SRyBfIsAD99GjSSt01HvrlobNb5lcg/2DdWWoeq/06Y1iwmrkxgCQA6hTrZQHP9+vh6PEWsaPGDGlee77+BVwOn5vUhckL6aRX5C+RF17XJ4kMYAY9PIA97lXAviAeAH6BRYe5j3Tyou9Z6TDJDkC9+/F4pvUQO/pPLxjeya10b7ovQEp7VME9AD7yJwjtcEfn0JWpSWlKgi1XeeP90pmlbTJPpPYquVInUhyNStKdcYWS2lYJ9cI60SLj6QnH8vVc742wvRCydDkmvzvf38NN1W0jGugtaUl/HD2+9CmAkiAZc7XSkxc54w2kd8yNfU0DAwO2qjcg+Fhu57pyFdWVMo1qirsaW21ZNFavd+pNgPJFp37dE2uxP74OjwChRwBB+qFfPZ83z0CqxwBgCZ2jPfvD4Ub0rZS3RDwCEMMyoOJrZVFIzrSctmoAdyQUDQ01JvXcU1NtS1f5d0sytVHoJ0KOSGPySQyJLbq/YJnPGA9JcFG4B4BvBxubHkE/PyGIlE2x/3GwHxk+wFWsPSps5GkMTDryZ2GZcmJxqq2CqxbYSj9JklmAGDmIy+gFSU4+k7L0ggLywy00zGwYlDM8axPxaFihyFJbxLYL8oTvMYHxYjN9PSz8Mtv58J13cfPZLGK3OTHM6ctsZTO9rcCda7ZBNCRusDij48/MleX8Ylx2z5tBG0G22smWbRpt43MUSGY680nj4BH4MMIOFD/MB7+ySPgEVgUAZg4WPXrN3rlw3zJPNV56CdphbGwAmawYJWVFfYQ7pSlWmd7m3yPa41ZX7RK//gFETCeXj2l6BoD+x7Z8Hlpjb6LOvYIst+JPU+SGgPuAuVWHAqwjgYelxqWZWA9gflU4TW51vC3UXaTrCs1h5nXPhvLacA6A9p6DxBH975jhxh2ElnRvGeg3gB9zuft2wFjuZKaHOeaDNzD6FNkKgL9KL1huz59WwTo3FH/4OLlv8IN3cu4rVTpfkX60q2CZXv2tFoRs2/ZCjKumZczBs5JQH8wNCxN+rgx63QCGZmxwkXNzaG5GUeXRo3eMDIT9fF+nr8l+v63xRoBB+rFemb9uDwCKxQBgB3sGKz67Tv95toAeIdV5+ELQCdRcfv2raFCCWCRLWsIjQ0N5s8Mg+bTt0UgMd2sJfd9WivLAPLGkgtUJ107ADsVfzK2ExY9Z5mBc51fRkkM3JuEJr435h05jdj3BN4TY2p2lFrOZ9h4m/4WmE54Onsbte65Ca4C6TDwBu6jBWVi7A3A67vE5gP+7bdaxjXGK0lp7PO8tWVMqk2/cbCXrooP50ipyH240XtL+Sa3TM5GjI8ePhx6urvMr5zPxHE5E+ef62dGbcLUk6eWIDqqTsDo6LglolPVuLysNFTLchEGn7yWXbvqQnVllTr2Ma9ludtczv75bz0ChR4BB+qFfgZ9/z0CqxwBk0VI38yw+ZRcG6bkAsP72VezBtRgTcv0IKZaILp0Xngew5QlCcMq76Kv/isiIGwfdeyAdIG4CMYX5oDxBMz5jg4bGnk8uGcpDCX9MSCMpEAA4MzMQqEolvP7pSYD6dax224MPGwqnbkE2PmMpIa5MfPGzm830A6QNCCvZQvfxfdRdrV0Qail9mOjLUPaBKuOgxNWjX/K/YXz3r13ryoLd8uqsdvuWeL6pRMdRK6RZ89fmIXr8PCILBeHxNaPhjFJXgDgtAvYt8ZRtnZ15KMcLuYspJ7dl27Rf+cR2HgRcKC+8c65H7FHYFkR4GHMy/zBBcBeCqQB0pFOAOKx9kPuALhKYCsyobFKqTOcywr3mv4YFp5z+NEXiafZbyxRVQz7nGnkJaURaI+SmiireT2XzbME1yStAfAjpQEURvD/9gN3nCjpMaGPSWuwmdyUJaBuRmaDvEZymVjMKVpQJqYdPXxi3k1yA/uOMw3yGV7JulLLkNTQSWD989/rs20LzbzJa5jHU5CuWy2ZHylIy9b0JK3QxriHif+oXFcGBu6Z+wsd7t0a+donkH7syGGTrpUpkfhTU2oPkL/NzLy0HJZxWS1i/0iy6tPppwLv7y2e9XV1ob6+zvToDbvqbbSNDjznDaDuk0fAI/D5CDhQ/3yM/BceAY9ATgR4CMOi8eKhHSUHUX5QyEAm5xD97RIR4Fzb6IqAvZ1/gb50HcDW2kvXBL8BmL8TC2+WkxR/MscarCmjc80rFYOi4wdDb+y7lid5DVVd4/pYV9xmyodIxaBSRdfFoHtBPhOZ9+3bIiu/TZ1ImOId6lDugI3nc9a5NPBOkqsltJLYGt1q0rYA6pbwaq418bslwpMB/aW+yZ9lnJspJYffk4zt//7ym7HgZXLv2b9/X/j+1EnllET/8o/tsYF9nWMSmQHkFCsaEUAHpDPnfNOrgTUHoLe37ZGjS6OSzauszgKdqW9NWP3Yvvlyj0CxRsCBerGeWT8uj8AqRSAxanEeEwx9GHuVgp1nq80998k3fn6Z9nX+fS4LD2iXNt4SVNHAZ8y6MfQCfRSGeoMOnoRX9PJ4zWfA3j4jucm+e5PYfM2xm1TfwQAyLDidxHgdxk6jJaMaO5850QiMJ338FhJaxb7zgpFnJCh+jrkWJq/hO0l08JW3z/abuK50vbNN65zaHIgKS8wyTlya8z4/JoA6lYaHhx+G3879YZVB6TBRofRnFS5raNgVaqQlX2rib3k9RQInsP9gaDg8fDgqOdwT5a1Mh5eSPpVKAlcvDXqLwHlLc5MVLsIRaps6THSiXAq3VGR9mUfg0xFwoP7p+Pi3HgGPgEfAI/CVEQC4A+7iPHOtyUB8BPUCf9lvAOwA8zmx7a8A62Jn51l3k1vxOdPES4KFtCbp6NkG7D5sfK6UBiQfRTUAeYpAJRtIJDXf2WhQtI4ElCfgHjXvVq1V4Dy62GQMvD6zfEE6E5NcTW6jTgGjS8b2W6Jr8pCPPvWEMI04fW7+leH+7J8Rc7zNqQ568fKfob//bhh/9Fg69U4D6oDrXZKopP1jhcSWOM9q1IO8hLHxCSWKjoUhAfXxRxN2zogr9RL421bzRd8tR5fdtoz45a7vszvpP/AIeAQ+iIAD9Q/C4R88Ah4Bj4BHYCUjADhkWpjbpwigc77je0Bh7utdBurfIYcRg26yGKRXaN6zBNcI7iPAB9jjQBKZ+ExDL/BvxaDE2pskR4Ce9cHI44iTtss89wWwB2ACQo0JllbeNPMC4xR7Apji/U0Sa4leO/TePiu5mnwNikNhV7lV4B5gnyQ184WhbL2w7h8C+tUEtRwfSb4khWO3euv2Has63KyKoKdPnZCfepuY8GbrcLAf9nt1mEgWRYf+8OHDMKSE0REB9Tl1lvi+QhWJcXJp27Mn7FZV0XpZssZiWNuzjsvKFFGyi8j/8QhswAg4UN+AJ90P2SPgEfAIFFoEEjMOOBRCNAYdAI4/vCW1CqQDQk1GA1g30B6/A9RHYB9BPAxxWmYWlfr+g2WZ/j6308B7ts0rSmEySQzyGLHslkyd6d753pxr9BmgHln4mMRKImVk4LOEV4H4mCzLZ7HyYuNjMSiYeHUWSKjVG4CzVXZNhaLmgb7pbL74dHKc08+eGUC/KavGK9euS+5SFQ4dPBj290SbRrbJcVIV9+nTaUtAxXcdqcuTp08MuJfL2alSdqyw6E2SurQLqLMeHKBc4vLFp8N/6BH4bAQcqH82RP4Dj4BHwCPgEci3CCTQzDwlnb6XSw0gPunn41yg3hh5FYQCvKN3F7hHEw+wB9CT7JoqvRpDbyx85h9vnYHsPQA/l5k3dj7KbhgiMDANkE7su+aw6QB1A+6ZFWXSvEcwjx1lkthE2Q3A35K0s79nHTFpW2BfjD6fF5YtSGu+5BwRL9xasFG8frM3/HHhorH/He3t4chhgfV9PXYcxAEXl5GR0dA/MKCiZ48N4KPZhzGHeQeg7xZQp7BZlXzRPVn0S86A/8YjsLwIOFBfXrz81x4Bj4BHwCOQZxEAfDKlee7usYwXoB02GdkMenYrBKXPluSaFYKKy9My/QZgniWyAuop/hSLQ8Hki4WfZ+L1N6yT9QPe7RXf04nQnhn4Zb8MzJNoKkAfq68ijUlse5bkSgKraeFjoisONXy25FfNE9BP1pRRkoNEB0Y+SnWwnUxg3zoOmYaefcBtZ1QVQ2/29oVffz9nHZ3a2tpw6MD+0N2917zxnyvpFD36OK+JCZMKAdLr9LuUMEry6c6d5fJfLzWZD9vxySPgEVjZCDhQX9l4+to8Ah4Bj4BHoEAjEPF+BP0cAoA7MvBIacS6A9wzGQ1A/R2fs2Uw0JYES7En/falikBRGAottxWF0jwWipo1Vxt+b52InFghdYExN+mMnFKi/h29e9TCzxeDkg6e79LnCOIB+cm9Riw+kht7RdCfPgOmkfvg3NJ363b476+/hefSoNMJ6O7aGzo62qVhnwwTE4/DiDTpeK1jl1kny0VY9Pa2NunRW626aGVlZc7e+1uPgEdgNSLgQH01ourr9Ah4BDwCHoGCj0CU1MRE1pSAilYd4BodZhaSX2Hmc0F7lNAgmYlyG9h3WHnkNwnsp98vsPoZI6/1awjAEm7/puiUyWrkWiOQDWO+WYWckhRmk4D91oyRRw4D4E5zA+dYUUoXb1p5MeL4xovQt04DuvO+W7fCixcz1mmALa+WzvzFixfmDsMxkBBbp8JFaNEbxaDzm5qaGqtiinTHJ4+AR2B1I+BAfXXj62v3CHgEPAIegQ0QAdjxVPQpyV+SFMZkNkkSk0lv+I1ZUCph0wC8QDGsPctg3uN7ikRhV0lBKKQ32E/GzoG54AjE05nYnOni5yUuAvNRx46kJtlJIp2BaY+f2V8A+uPHjwTKZ63zEIs/bZWM560lsFZUVoRG2Sx2dXUaSK8VQIfJB6Aj4fHJI+ARWP0IOFBf/Rj7FjwCHgGPgEegyCNgSnSBX5OzMBeg5r0ltKbli5YB5I1N1xzgbpp4lkmaYgWhBMxtWSa3MecaMfIAd6q8vlYS7GuSXQXyI3MPe8/7txHQa7vAaUB1dI4RG78ls5vUMqQ7rCfZVOIqg/SmqqrCWPPGxuiH3tjYEHaW7zSpTWLyi/x0+uF5BPImAg7U8+ZU+I54BDwCHgGPwEaKgAH5BN6RuhhDnslpMnCfHG3eKZEVoI4OfhaWXay7MfIZaGfZrHTxxsAbiI8SG5PsaBvRh57OQ+xAAN5t+/KTRz6TXGSQzjQJoDc3CaQ3NprUpUI2jLDxzqJvpKvTjzVfIuBAPV/OhO+HR8Aj4BHwCGy4CACWmf45t6XzhaESqE8a+SSvAYDbCwvKTFaTmHmSWucLQAngkxiLFaWx7tl7NPPYKu4sr5AHeoleZaGhoV6MerXZMG5XUiuuNO7oYqfJ//EIrHkEHKivech9gx4Bj4BHwCPgEfi2CERgDwsf18M8LYOFh0lPxZxg4s29Bh28vRfbPm87OSfd+vZAAaPSUlVb1YtCRla4SKy7s+jfdp78rz0C3xoBB+rfGkH/e4+AR8Aj4BHwCKxzBCJgz1C79iV9BrSjl6cYlL3XF/MFobLlm6RNj04y0q/Lfx2dOnIYTxdd55Pqm/cIKAIO1P0y8Ah4BDwCHgGPQBFHYLGshkNNQB5onxJOeScS3Vn0Ir4W/NAKLwIO1AvvnPkeewQ8Ah4Bj4BHwCPgEfAIbIAIOFDfACfZD9Ej4BHwCHgEPAIeAY+AR6DwIuBAvfDOme+xR8Aj4BHwCHgEPAIeAY/ABoiAA/UNcJL9ED0CHgGPgEfAI+AR8Ah4BAovAg7UC++c+R57BDwCHgGPgEfAI+AR8AhsgAg4UN8AJ9kP0SPgEfAIeAQ8Ah4Bj4BHoPAi4EC98M6Z77FHwCPgEfAIeAQ8Ah4Bj8AGiIAD9Q1wkv0QPQIeAY+AR8Aj4BHwCHgECi8CDtQL75z5HnsEPAIeAY+AR8Aj4BHwCGyACDhQ3wAn2Q/RI+AR8Ah4BDwCHgGPgEeg8CLgQL3wzpnvsUfAI+AR8Ah4BDwCHgGPwAaIgAP1DXCS/RA9Ah4Bj4BHwCPgEfAIeAQKLwIO1AvvnPkeewQ8Ah4Bj4BHwCPgEfAIbIAIOFDfACfZD9Ej4BHwCHgEPAIeAY+AR6DwIuBAvfDOme+xR8Aj4BHwCHgEPAIeAY/ABoiAA/UNcJL9ED0CHgGPgEfAI+AR8Ah4BAovAg7UC++c+R57BDwCHgGPgEfAI+AR8AhsgAg4UN8AJ9kP0SPgEfAIeAQ8Ah4Bj4BHoPAi4EC98M6Z77FHwCPgEfAIeAQ8Ah4Bj8AGiIAD9Q1wkv0QPQIeAY+AR8Aj4BHwCHgECi8CDtQL75z5HnsEPAIeAY+AR8Aj4BHwCGyACDhQ3wAn2Q/RI+AR8Ah4BDwCHgGPgEeg8CLgQL3wzpnvsUfAI+AR8Ah4BDwCHgGPwAaIgAP1DXCS/RA9Ah4Bj4BHwCPgEfj/262DIgAAAAKC/VvLcWMbsD4IEOgJOOq9zSQmQIAAAQIECBA4EHDUD0ZWkQABAgQIECBAoCfgqPc2k5gAAQIECBAgQOBAwFE/GFlFAgQIECBAgACBnoCj3ttMYgIECBAgQIAAgQMBR/1gZBUJECBAgAABAgR6Ao56bzOJCRAgQIAAAQIEDgQc9YORVSRAgAABAgQIEOgJDFHhFJKNz4p2AAAAAElFTkSuQmCC;" parent="7" vertex="1">
                    <mxGeometry x="470" y="150" width="314.72" height="270" as="geometry"/>
                </mxCell>
                <mxCell id="13" value="" style="rounded=1;whiteSpace=wrap;html=1;fillColor=#ffffff;strokeWidth=1;strokeColor=#000000;align=left;" parent="1" vertex="1">
                    <mxGeometry x="130" y="240" width="150" height="30" as="geometry"/>
                </mxCell>
            </root>
        </mxGraphModel>
    </diagram>
</mxfile>